<?xml version="1.0" encoding="UTF-8" standalone="no"?>
<!DOCTYPE svg PUBLIC "-//W3C//DTD SVG 1.1//EN"
"http://www.w3.org/Graphics/SVG/1.1/DTD/svg11.dtd">
<svg viewBox="0 0 818 1066" version="1.1" xmlns="http://www.w3.org/2000/svg" xmlns:xlink="http://www.w3.org/1999/xlink">
<defs>
<style type="text/css"><![CDATA[
.g1_19{
fill: #9A9A9A;
}
.g2_19{
}
.g3_19{
fill: none;
stroke: #000000;
stroke-width: 0.7638889;
stroke-linecap: butt;
stroke-linejoin: miter;
stroke-miterlimit: 4;
}
]]></style>
</defs>
<path d="M79,82.1l0,-1.5l639.4,0l0,1.5Z" class="g1_19" />
<path d="M79,113.1l0,-1.5l639.4,0l0,1.5Z" class="g1_19" />
<path d="M150.9,383.7l1.9,3.3l3.6,1.2l-8,4.5l2.5,-9Z" class="g2_19" />
<path d="M150.5,390.1L216,305.2" class="g3_19" />
<path d="M224.3,307.3c6.8,0,12.3,-5.5,12.3,-12.2c0,-6.8,-5.5,-12.2,-12.3,-12.2c-6.7,0,-12.2,5.4,-12.2,12.2c0,6.7,5.5,12.2,12.2,12.2Zm327.8,94.1c32.7,27.2,-70.5,25.6,-17,-2.5" class="g3_19" />
<path d="M552.4,407.7l2,-3.3l3.5,-1.1L550,398.6l2.4,9.1Z" class="g2_19" />
<path d="M169.2,215.4c6.3,0,11.4,-5.1,11.4,-11.4c0,-6.4,-5.1,-11.5,-11.4,-11.5c-6.4,0,-11.5,5.1,-11.5,11.5c0,6.3,5.1,11.4,11.5,11.4Zm0,3.1c8,0,14.5,-6.5,14.5,-14.5c0,-8.1,-6.5,-14.6,-14.5,-14.6c-8,0,-14.5,6.5,-14.5,14.6c0,8,6.5,14.5,14.5,14.5Z" class="g3_19" />
<path d="M254,215.4c6.3,0,11.4,-5.1,11.4,-11.4c0,-6.4,-5.1,-11.5,-11.4,-11.5c-6.4,0,-11.5,5.1,-11.5,11.5c0,6.3,5.1,11.4,11.5,11.4Zm0,3.1c8,0,14.5,-6.5,14.5,-14.5c0,-8.1,-6.5,-14.6,-14.5,-14.6c-8,0,-14.5,6.5,-14.5,14.6c0,8,6.5,14.5,14.5,14.5Z" class="g3_19" />
<path d="M378.5,215.4c6.3,0,11.5,-5.1,11.5,-11.4c0,-6.4,-5.2,-11.5,-11.5,-11.5c-6.3,0,-11.5,5.1,-11.5,11.5c0,6.3,5.2,11.4,11.5,11.4Zm0,3.1c8,0,14.5,-6.5,14.5,-14.5c0,-8.1,-6.5,-14.6,-14.5,-14.6c-8,0,-14.5,6.5,-14.5,14.6c0,8,6.5,14.5,14.5,14.5Z" class="g3_19" />
<path d="M310,416.6c6.3,0,11.4,-5.1,11.4,-11.5c0,-6.3,-5.1,-11.4,-11.4,-11.4c-6.4,0,-11.5,5.1,-11.5,11.4c0,6.4,5.1,11.5,11.5,11.5Zm0,3.1c8,0,14.5,-6.5,14.5,-14.6c0,-8,-6.5,-14.5,-14.5,-14.5c-8.1,0,-14.6,6.5,-14.6,14.5c0,8.1,6.5,14.6,14.6,14.6Z" class="g3_19" />
<path d="M138.7,416.6c6.3,0,11.5,-5.1,11.5,-11.4c0,-6.4,-5.2,-11.5,-11.5,-11.5c-6.3,0,-11.4,5.1,-11.4,11.5c0,6.3,5.1,11.4,11.4,11.4Zm0,3.1c8,0,14.5,-6.5,14.5,-14.5c0,-8.1,-6.5,-14.6,-14.5,-14.6c-8,0,-14.5,6.5,-14.5,14.6c0,8,6.5,14.5,14.5,14.5Z" class="g3_19" />
<path d="M462.8,398.3c6.4,0,11.5,-5.2,11.5,-11.5c0,-6.3,-5.1,-11.5,-11.5,-11.5c-6.3,0,-11.4,5.2,-11.4,11.5c0,6.3,5.1,11.5,11.4,11.5Zm0,3c8,0,14.5,-6.5,14.5,-14.5c0,-8,-6.5,-14.5,-14.5,-14.5c-8,0,-14.5,6.5,-14.5,14.5c0,8,6.5,14.5,14.5,14.5Z" class="g3_19" />
<path d="M621.7,399c6.4,0,11.5,-5.1,11.5,-11.4c0,-6.4,-5.1,-11.5,-11.5,-11.5c-6.3,0,-11.4,5.1,-11.4,11.5c0,6.3,5.1,11.4,11.4,11.4Zm0,3.1c8,0,14.5,-6.5,14.5,-14.5c0,-8,-6.5,-14.5,-14.5,-14.5c-8,0,-14.5,6.5,-14.5,14.5c0,8,6.5,14.5,14.5,14.5Z" class="g3_19" />
<path d="M578.7,215.4c6.3,0,11.4,-5.1,11.4,-11.4c0,-6.4,-5.1,-11.5,-11.4,-11.5c-6.4,0,-11.5,5.1,-11.5,11.5c0,6.3,5.1,11.4,11.5,11.4Zm0,3.1c8,0,14.5,-6.5,14.5,-14.5c0,-8.1,-6.5,-14.6,-14.5,-14.6c-8.1,0,-14.6,6.5,-14.6,14.6c0,8,6.5,14.5,14.6,14.5Z" class="g3_19" />
<path d="M499.5,306.5c6.3,0,11.5,-5.1,11.5,-11.4c0,-6.3,-5.2,-11.5,-11.5,-11.5c-6.3,0,-11.4,5.2,-11.4,11.5c0,6.3,5.1,11.4,11.4,11.4Zm0,3.1c8,0,14.5,-6.5,14.5,-14.5c0,-8,-6.5,-14.5,-14.5,-14.5c-8,0,-14.5,6.5,-14.5,14.5c0,8,6.5,14.5,14.5,14.5Zm-1.2,-94.9c6.3,0,11.4,-5.2,11.4,-11.5c0,-6.3,-5.1,-11.4,-11.4,-11.4c-6.4,0,-11.5,5.1,-11.5,11.4c0,6.3,5.1,11.5,11.5,11.5Zm0,3c8,0,14.5,-6.5,14.5,-14.5c0,-8,-6.5,-14.5,-14.5,-14.5c-8,0,-14.5,6.5,-14.5,14.5c0,8,6.5,14.5,14.5,14.5Z" class="g3_19" />
<path d="M579,306.5c6.3,0,11.4,-5.1,11.4,-11.4c0,-6.3,-5.1,-11.5,-11.4,-11.5c-6.4,0,-11.5,5.2,-11.5,11.5c0,6.3,5.1,11.4,11.5,11.4Zm0,3.1c8,0,14.5,-6.5,14.5,-14.5c0,-8,-6.5,-14.5,-14.5,-14.5c-8,0,-14.5,6.5,-14.5,14.5c0,8,6.5,14.5,14.5,14.5Z" class="g3_19" />
<path d="M542.3,399.8c6.7,0,12.2,-5.5,12.2,-12.2c0,-6.8,-5.5,-12.3,-12.2,-12.3c-6.8,0,-12.2,5.5,-12.2,12.3c0,6.7,5.4,12.2,12.2,12.2Z" class="g3_19" />
<path d="M507.3,277.5c17.4,-40.7,-25.7,-39.3,-12,2.7" class="g3_19" />
<path d="M506.1,271.3l2.7,2.8l3.7,0.2l-6.6,6.4l0.2,-9.4Z" class="g2_19" />
<path d="M586.5,277.3C603.9,236.6,560.6,238,574.4,280" class="g3_19" />
<path d="M585.3,271.1l2.7,2.8l3.7,0.2l-6.6,6.4l0.2,-9.4Z" class="g2_19" />
<path d="M364.6,190.4c-34.3,-31,-149.6,-35.5,-185,1.5" class="g3_19" />
<path d="M358.4,190.1l3.4,-1.8l1.3,-3.6l4.3,8.1l-9,-2.7Z" class="g2_19" />
<path d="M596.5,213c59.3,19.9,58.6,-39.7,-3,-16.7" class="g3_19" />
<path d="M602.4,211.1l-2.7,2.8l-0.1,3.8L593,211.3l9.4,-0.2Z" class="g2_19" />
<path d="M486.9,215.2c-52.3,49.3,-118.1,35.5,-249.5,76.2" class="g3_19" />
<path d="M478.1,218.3l3.5,1.7l1.3,3.4l4,-8.2l-8.8,3.1Z" class="g2_19" />
<path d="M292.3,388l3.7,-1.1l1.9,-3.2l2.7,8.8L292.3,388Z" class="g2_19" />
<path d="M156,414.2c123.1,27.9,71,-82.9,-4.2,-17.7" class="g3_19" />
<path d="M161.7,412l-2.5,3l0.2,3.8l-7,-5.9l9.3,-0.9Z" class="g2_19" />
<path d="M208.8,287.7C184.4,271.9,160,268.9,147.3,269.9" class="g3_19" />
<path d="M203,288.9l2.8,-2.6l0.3,-3.7l6.2,6.7L203,288.9Z" class="g2_19" />
<path d="M229.7,199.6l1.5,3.5l-1.6,3.8l8.5,-3.6l-8.4,-3.7Z" class="g2_19" />
<path d="M233.3,203.3l-48.4,0" class="g3_19" />
<path d="M354.4,199.6l1.6,3.5l-1.6,3.8l8.5,-3.6l-8.5,-3.7Z" class="g2_19" />
<path d="M361.5,203.3l-91.6,0m125.8,10.5c54.3,37.4,63.5,-51.6,-3,-16.7" class="g3_19" />
<path d="M401.5,211.9l-2.6,2.8l-0.1,3.8l-6.6,-6.4l9.3,-0.2Z" class="g2_19" />
<path d="M177.9,227.1l2.3,-3.1l3.7,-0.6l-7.2,-5.6l1.2,9.3Z" class="g2_19" />
<path d="M178.1,220.5l39.7,62.6" class="g3_19" />
<path d="M355.3,212.6l3.2,2.3l0.7,3.6l5.4,-7.4l-9.3,1.5Z" class="g2_19" />
<path d="M236,288.6L361.5,212.9" class="g3_19" />
<path d="M554.7,199.6l1.5,3.5l-1.5,3.8l8.4,-3.6l-8.4,-3.7Z" class="g2_19" />
<path d="M561.2,203.3l-48.4,0" class="g3_19" />
<path d="M554.9,292.3l1.5,3.5l-1.5,3.8l8.4,-3.5l-8.4,-3.8Z" class="g2_19" />
<path d="M561.4,296.1l-46,0" class="g3_19" />
<path d="M475.1,291.6l1.6,3.5l-1.2,3.6l8.4,-3.8l-8.8,-3.3Z" class="g2_19" />
<path d="M237.6,295.1l243,0" class="g3_19" />
<path d="M597.7,383.3l1.5,3.6l-1.5,3.7l8.5,-3.5l-8.5,-3.8Z" class="g2_19" />
<path d="M604.3,387.1l-48.8,0" class="g3_19" />
<path d="M520.6,383.3l1.5,3.6l-1.5,3.7l8.5,-3.5l-8.5,-3.8Z" class="g2_19" />
<path d="M527.1,387.1l-48.7,0" class="g3_19" />
<path d="M441.6,374.4l0.1,3.9l-2.5,2.8l9.2,-0.2l-6.8,-6.5Z" class="g2_19" />
<path d="M236.9,300.1L445.8,380M232.6,305.8l66.2,84.9" class="g3_19" />
<path d="M79,461.3l0,-1.5l511.6,0l0,1.5Z" class="g2_19" />
<path d="M79,489.3l0,-1.5l511.6,0l0,1.5Z" class="g2_19" />
<path d="M79,982.2l0,-1.5l639.4,0l0,1.5Z" class="g1_19" />
<path d="M79,1009.7l0,-1.5l639.4,0l0,1.5Z" class="g1_19" />
</svg>