<?xml version="1.0" encoding="UTF-8" standalone="no"?>
<!DOCTYPE svg PUBLIC "-//W3C//DTD SVG 1.1//EN"
"http://www.w3.org/Graphics/SVG/1.1/DTD/svg11.dtd">
<svg viewBox="0 0 935 1210" version="1.1" xmlns="http://www.w3.org/2000/svg" xmlns:xlink="http://www.w3.org/1999/xlink">
<defs>
<style type="text/css"><![CDATA[
.g1_4{
}
]]></style>
</defs>
<path d="M250.3,128.3l0.7,0l0,-0.7l-0.7,0l0,0.7Z" class="g1_4" />
<path d="M250.3,128.3l0.7,0l0,-0.7l-0.7,0l0,0.7Z" class="g1_4" />
<path d="M251,128.3l162.6,0l0,-0.7l-162.6,0l0,0.7Z" class="g1_4" />
<path d="M413.6,128.3l0.7,0l0,-0.7l-0.7,0l0,0.7Z" class="g1_4" />
<path d="M414.3,128.3l269.7,0l0,-0.7l-269.7,0l0,0.7Z" class="g1_4" />
<path d="M684,128.3l0.8,0l0,-0.7l-0.8,0l0,0.7Z" class="g1_4" />
<path d="M684,128.3l0.8,0l0,-0.7l-0.8,0l0,0.7Z" class="g1_4" />
<path d="M250.3,145.9l0.7,0l0,-17.6l-0.7,0l0,17.6Z" class="g1_4" />
<path d="M413.6,145.9l0.7,0l0,-17.6l-0.7,0l0,17.6Z" class="g1_4" />
<path d="M684,145.9l0.8,0l0,-17.6l-0.8,0l0,17.6Z" class="g1_4" />
<path d="M250.3,146.7l0.7,0l0,-0.8l-0.7,0l0,0.8Z" class="g1_4" />
<path d="M251,146.7l162.6,0l0,-0.8l-162.6,0l0,0.8Z" class="g1_4" />
<path d="M413.6,146.7l0.7,0l0,-0.8l-0.7,0l0,0.8Z" class="g1_4" />
<path d="M414.3,146.7l269.7,0l0,-0.8l-269.7,0l0,0.8Z" class="g1_4" />
<path d="M684,146.7l0.8,0l0,-0.8l-0.8,0l0,0.8Z" class="g1_4" />
<path d="M250.3,164.3l0.7,0l0,-17.6l-0.7,0l0,17.6Z" class="g1_4" />
<path d="M413.6,164.3l0.7,0l0,-17.6l-0.7,0l0,17.6Z" class="g1_4" />
<path d="M684,164.3l0.8,0l0,-17.6l-0.8,0l0,17.6Z" class="g1_4" />
<path d="M250.3,165l0.7,0l0,-0.7l-0.7,0l0,0.7Z" class="g1_4" />
<path d="M251,165l162.6,0l0,-0.7l-162.6,0l0,0.7Z" class="g1_4" />
<path d="M413.6,165l0.7,0l0,-0.7l-0.7,0l0,0.7Z" class="g1_4" />
<path d="M414.3,165L684,165l0,-0.7l-269.7,0l0,0.7Z" class="g1_4" />
<path d="M684,165l0.8,0l0,-0.7l-0.8,0l0,0.7Z" class="g1_4" />
<path d="M250.3,182.6l0.7,0L251,165l-0.7,0l0,17.6Z" class="g1_4" />
<path d="M413.6,182.6l0.7,0l0,-17.6l-0.7,0l0,17.6Z" class="g1_4" />
<path d="M684,182.6l0.8,0l0,-17.6l-0.8,0l0,17.6Z" class="g1_4" />
<path d="M250.3,183.3l0.7,0l0,-0.7l-0.7,0l0,0.7Z" class="g1_4" />
<path d="M251,183.3l162.6,0l0,-0.7l-162.6,0l0,0.7Z" class="g1_4" />
<path d="M413.6,183.3l0.7,0l0,-0.7l-0.7,0l0,0.7Z" class="g1_4" />
<path d="M414.3,183.3l269.7,0l0,-0.7l-269.7,0l0,0.7Z" class="g1_4" />
<path d="M684,183.3l0.8,0l0,-0.7l-0.8,0l0,0.7Z" class="g1_4" />
<path d="M250.3,200.9l0.7,0l0,-17.6l-0.7,0l0,17.6Z" class="g1_4" />
<path d="M413.6,200.9l0.7,0l0,-17.6l-0.7,0l0,17.6Z" class="g1_4" />
<path d="M684,200.9l0.8,0l0,-17.6l-0.8,0l0,17.6Z" class="g1_4" />
<path d="M250.3,201.7l0.7,0l0,-0.8l-0.7,0l0,0.8Z" class="g1_4" />
<path d="M251,201.7l162.6,0l0,-0.8l-162.6,0l0,0.8Z" class="g1_4" />
<path d="M413.6,201.7l0.7,0l0,-0.8l-0.7,0l0,0.8Z" class="g1_4" />
<path d="M414.3,201.7l269.7,0l0,-0.8l-269.7,0l0,0.8Z" class="g1_4" />
<path d="M684,201.7l0.8,0l0,-0.8l-0.8,0l0,0.8Z" class="g1_4" />
<path d="M250.3,219.3l0.7,0l0,-17.6l-0.7,0l0,17.6Z" class="g1_4" />
<path d="M413.6,219.3l0.7,0l0,-17.6l-0.7,0l0,17.6Z" class="g1_4" />
<path d="M684,219.3l0.8,0l0,-17.6l-0.8,0l0,17.6Z" class="g1_4" />
<path d="M250.3,220l0.7,0l0,-0.7l-0.7,0l0,0.7Z" class="g1_4" />
<path d="M251,220l162.6,0l0,-0.7l-162.6,0l0,0.7Z" class="g1_4" />
<path d="M413.6,220l0.7,0l0,-0.7l-0.7,0l0,0.7Z" class="g1_4" />
<path d="M414.3,220L684,220l0,-0.7l-269.7,0l0,0.7Z" class="g1_4" />
<path d="M684,220l0.8,0l0,-0.7l-0.8,0l0,0.7Z" class="g1_4" />
<path d="M250.3,237.6l0.7,0L251,220l-0.7,0l0,17.6Z" class="g1_4" />
<path d="M413.6,237.6l0.7,0l0,-17.6l-0.7,0l0,17.6Z" class="g1_4" />
<path d="M684,237.6l0.8,0l0,-17.6l-0.8,0l0,17.6Z" class="g1_4" />
<path d="M250.3,238.3l0.7,0l0,-0.7l-0.7,0l0,0.7Z" class="g1_4" />
<path d="M251,238.3l162.6,0l0,-0.7l-162.6,0l0,0.7Z" class="g1_4" />
<path d="M413.6,238.3l0.7,0l0,-0.7l-0.7,0l0,0.7Z" class="g1_4" />
<path d="M414.3,238.3l269.7,0l0,-0.7l-269.7,0l0,0.7Z" class="g1_4" />
<path d="M684,238.3l0.8,0l0,-0.7l-0.8,0l0,0.7Z" class="g1_4" />
<path d="M250.3,255.9l0.7,0l0,-17.6l-0.7,0l0,17.6Z" class="g1_4" />
<path d="M413.6,255.9l0.7,0l0,-17.6l-0.7,0l0,17.6Z" class="g1_4" />
<path d="M684,255.9l0.8,0l0,-17.6l-0.8,0l0,17.6Z" class="g1_4" />
<path d="M250.3,256.7l0.7,0l0,-0.8l-0.7,0l0,0.8Z" class="g1_4" />
<path d="M251,256.7l162.6,0l0,-0.8l-162.6,0l0,0.8Z" class="g1_4" />
<path d="M413.6,256.7l0.7,0l0,-0.8l-0.7,0l0,0.8Z" class="g1_4" />
<path d="M414.3,256.7l269.7,0l0,-0.8l-269.7,0l0,0.8Z" class="g1_4" />
<path d="M684,256.7l0.8,0l0,-0.8l-0.8,0l0,0.8Z" class="g1_4" />
<path d="M250.3,274.3l0.7,0l0,-17.6l-0.7,0l0,17.6Z" class="g1_4" />
<path d="M413.6,274.3l0.7,0l0,-17.6l-0.7,0l0,17.6Z" class="g1_4" />
<path d="M684,274.3l0.8,0l0,-17.6l-0.8,0l0,17.6Z" class="g1_4" />
<path d="M250.3,275l0.7,0l0,-0.7l-0.7,0l0,0.7Z" class="g1_4" />
<path d="M251,275l162.6,0l0,-0.7l-162.6,0l0,0.7Z" class="g1_4" />
<path d="M413.6,275l0.7,0l0,-0.7l-0.7,0l0,0.7Z" class="g1_4" />
<path d="M414.3,275L684,275l0,-0.7l-269.7,0l0,0.7Z" class="g1_4" />
<path d="M684,275l0.8,0l0,-0.7l-0.8,0l0,0.7Z" class="g1_4" />
<path d="M250.3,292.6l0.7,0L251,275l-0.7,0l0,17.6Z" class="g1_4" />
<path d="M413.6,292.6l0.7,0l0,-17.6l-0.7,0l0,17.6Z" class="g1_4" />
<path d="M684,292.6l0.8,0l0,-17.6l-0.8,0l0,17.6Z" class="g1_4" />
<path d="M250.3,293.3l0.7,0l0,-0.7l-0.7,0l0,0.7Z" class="g1_4" />
<path d="M251,293.3l162.6,0l0,-0.7l-162.6,0l0,0.7Z" class="g1_4" />
<path d="M413.6,293.3l0.7,0l0,-0.7l-0.7,0l0,0.7Z" class="g1_4" />
<path d="M414.3,293.3l269.7,0l0,-0.7l-269.7,0l0,0.7Z" class="g1_4" />
<path d="M684,293.3l0.8,0l0,-0.7l-0.8,0l0,0.7Z" class="g1_4" />
<path d="M250.3,310.9l0.7,0l0,-17.6l-0.7,0l0,17.6Z" class="g1_4" />
<path d="M413.6,310.9l0.7,0l0,-17.6l-0.7,0l0,17.6Z" class="g1_4" />
<path d="M684,310.9l0.8,0l0,-17.6l-0.8,0l0,17.6Z" class="g1_4" />
<path d="M250.3,311.7l0.7,0l0,-0.8l-0.7,0l0,0.8Z" class="g1_4" />
<path d="M251,311.7l162.6,0l0,-0.8l-162.6,0l0,0.8Z" class="g1_4" />
<path d="M413.6,311.7l0.7,0l0,-0.8l-0.7,0l0,0.8Z" class="g1_4" />
<path d="M414.3,311.7l269.7,0l0,-0.8l-269.7,0l0,0.8Z" class="g1_4" />
<path d="M684,311.7l0.8,0l0,-0.8l-0.8,0l0,0.8Z" class="g1_4" />
<path d="M250.3,329.3l0.7,0l0,-17.6l-0.7,0l0,17.6Z" class="g1_4" />
<path d="M250.3,330l0.7,0l0,-0.7l-0.7,0l0,0.7Z" class="g1_4" />
<path d="M250.3,330l0.7,0l0,-0.7l-0.7,0l0,0.7Z" class="g1_4" />
<path d="M251,330l162.6,0l0,-0.7l-162.6,0l0,0.7Z" class="g1_4" />
<path d="M413.6,329.3l0.7,0l0,-17.6l-0.7,0l0,17.6Z" class="g1_4" />
<path d="M413.6,330l0.7,0l0,-0.7l-0.7,0l0,0.7Z" class="g1_4" />
<path d="M414.3,330L684,330l0,-0.7l-269.7,0l0,0.7Z" class="g1_4" />
<path d="M684,329.3l0.8,0l0,-17.6l-0.8,0l0,17.6Z" class="g1_4" />
<path d="M684,330l0.8,0l0,-0.7l-0.8,0l0,0.7Z" class="g1_4" />
<path d="M684,330l0.8,0l0,-0.7l-0.8,0l0,0.7Z" class="g1_4" />
</svg>