<?xml version="1.0" encoding="UTF-8" standalone="no"?>
<!DOCTYPE svg PUBLIC "-//W3C//DTD SVG 1.1//EN"
"http://www.w3.org/Graphics/SVG/1.1/DTD/svg11.dtd">
<svg viewBox="0 0 818 1066" version="1.1" xmlns="http://www.w3.org/2000/svg" xmlns:xlink="http://www.w3.org/1999/xlink">
<defs>
<style type="text/css"><![CDATA[
.g1_47{
fill: #9A9A9A;
}
.g2_47{
}
]]></style>
</defs>
<path d="M79,82.1l0,-1.5l639.4,0l0,1.5Z" class="g1_47" />
<path d="M79,113.1l0,-1.5l639.4,0l0,1.5Z" class="g1_47" />
<path d="M249.3,154.3l0,-16.8l1.6,0l0,16.8Z" class="g2_47" />
<path d="M331.5,154.3l0,-16.8l1.5,0l0,16.8Z" class="g2_47" />
<path d="M131.6,154.9l0,-1.5l200.3,0l0,1.5Z" class="g2_47" />
<path d="M131.3,171l0,-16.8l1.5,0l0,16.8Z" class="g2_47" />
<path d="M249.3,171l0,-16.8l1.6,0l0,16.8Z" class="g2_47" />
<path d="M331.5,171l0,-16.8l1.5,0l0,16.8Z" class="g2_47" />
<path d="M131.3,187.7l0,-16.9l1.5,0l0,16.9Z" class="g2_47" />
<path d="M249.3,187.7l0,-16.9l1.6,0l0,16.9Z" class="g2_47" />
<path d="M331.5,187.7l0,-16.9l1.5,0l0,16.9Z" class="g2_47" />
<path d="M131.3,204.6l0,-16.9l1.5,0l0,16.9Z" class="g2_47" />
<path d="M249.3,204.6l0,-16.9l1.6,0l0,16.9Z" class="g2_47" />
<path d="M331.5,204.6l0,-16.9l1.5,0l0,16.9Z" class="g2_47" />
<path d="M131.3,221.3l0,-16.9l1.5,0l0,16.9Z" class="g2_47" />
<path d="M249.3,221.3l0,-16.9l1.6,0l0,16.9Z" class="g2_47" />
<path d="M331.5,221.3l0,-16.9l1.5,0l0,16.9Z" class="g2_47" />
<path d="M131.3,238l0,-16.9l1.5,0l0,16.9Z" class="g2_47" />
<path d="M249.3,238l0,-16.9l1.6,0l0,16.9Z" class="g2_47" />
<path d="M331.5,238l0,-16.9l1.5,0l0,16.9Z" class="g2_47" />
<path d="M131.3,254.8l0,-16.8l1.5,0l0,16.8Z" class="g2_47" />
<path d="M249.3,254.8l0,-16.8l1.6,0l0,16.8Z" class="g2_47" />
<path d="M331.5,254.8l0,-16.8l1.5,0l0,16.8Z" class="g2_47" />
<path d="M131.6,255.4l0,-1.6l200.3,0l0,1.6Z" class="g2_47" />
<path d="M79,266.9l0,-1.5l511.6,0l0,1.5Z" class="g2_47" />
<path d="M79,298.5l0,-1.6l511.6,0l0,1.6Z" class="g2_47" />
<path d="M79,982.2l0,-1.5l639.4,0l0,1.5Z" class="g1_47" />
<path d="M79,1009.7l0,-1.5l639.4,0l0,1.5Z" class="g1_47" />
</svg>