<?xml version="1.0" encoding="UTF-8" standalone="no"?>
<!DOCTYPE svg PUBLIC "-//W3C//DTD SVG 1.1//EN"
"http://www.w3.org/Graphics/SVG/1.1/DTD/svg11.dtd">
<svg viewBox="0 0 818 1066" version="1.1" xmlns="http://www.w3.org/2000/svg" xmlns:xlink="http://www.w3.org/1999/xlink">
<defs>
<style type="text/css"><![CDATA[
.g1_46{
fill: #9A9A9A;
}
.g2_46{
fill: none;
stroke: #000000;
stroke-width: 0.7638889;
stroke-linecap: butt;
stroke-linejoin: miter;
stroke-miterlimit: 4;
}
.g3_46{
}
]]></style>
</defs>
<path d="M79,82.1l0,-1.5l639.4,0l0,1.5Z" class="g1_46" />
<path d="M79,113.1l0,-1.5l639.4,0l0,1.5Z" class="g1_46" />
<path d="M147.6,330.2l6.9,4l-6.9,3.7m6.9,-3.7l-16.3,0" class="g2_46" />
<path d="M294.3,183.5l6.9,4l-6.9,3.7m6.9,-3.7l-16.4,0" class="g2_46" />
<path d="M294.3,232.4l6.9,4l-6.9,3.7m6.9,-3.7l-16.4,0m9.5,14.4l6.9,3.9l-6.9,3.7m6.9,-3.7l-16.4,0M259.3,371.8l97.8,0l0,-82.5l-97.8,0ZM112.6,347.3l97.8,0l0,-27.5l-97.8,0ZM259.3,173.2l97.8,0l0,27.5l-97.8,0Zm0,94.7l97.8,0l0,-45.9l-97.8,0Z" class="g2_46" />
<path d="M157.9,310.1l3.5,1.6l3.8,-1.5l-3.7,8.4l-3.6,-8.5Z" class="g3_46" />
<path d="M161.5,313.7l0,-56.7" class="g2_46" />
<path d="M323,277.7l3.6,-1.7l3.8,1.6l-3.8,-8.5l-3.6,8.6Z" class="g3_46" />
<path d="M326.6,273.2l0,14.9" class="g2_46" />
<path d="M249.6,181.9l1.6,3.5l-1.6,3.8l8.5,-3.8l-8.5,-3.5Z" class="g3_46" />
<path d="M254,185.4l-42.3,0" class="g2_46" />
<path d="M249.6,230.7l1.6,3.6l-1.6,3.8l8.5,-3.8l-8.5,-3.6Z" class="g3_46" />
<path d="M254,234.3l-42.3,0" class="g2_46" />
<path d="M440.8,354.7l6.9,4l-6.9,3.6m6.9,-3.6l-16.4,0m-25.5,13.1l97.8,0l0,-27.5l-97.8,0Z" class="g2_46" />
<path d="M294.3,299.7l6.9,3.9l-6.9,3.7m6.9,-3.7l-16.4,0m9.5,14.4l6.9,4l-6.9,3.6m6.9,-3.6l-16.4,0m9.5,14.3l6.9,4l-6.9,3.7m6.9,-3.7l-16.4,0m9.5,14.4l6.9,3.9l-6.9,3.7m6.9,-3.7l-16.4,0M112.6,255.7l97.8,0l0,-82.5l-97.8,0Z" class="g2_46" />
<path d="M147.6,183.5l6.9,4l-6.9,3.7m6.9,-3.7l-16.3,0m9.4,14.4l6.9,4l-6.9,3.6m6.9,-3.6l-16.3,0m9.4,14.3l6.9,4l-6.9,3.7m6.9,-3.7l-16.3,0m9.4,14.3l6.9,4l-6.9,3.7m6.9,-3.7l-16.3,0" class="g2_46" />
<path d="M220.2,328.5l-1.6,3.6l1.6,3.8l-8.5,-3.8l8.5,-3.6Z" class="g3_46" />
<path d="M215.8,332.1l42.3,0" class="g2_46" />
<path d="M395.9,353.6l1.6,3.5l-1.5,3.8l8.5,-3.8l-8.6,-3.5Z" class="g3_46" />
<path d="M400.3,357.1l-42.3,0" class="g2_46" />
<path d="M280.2,279.5l3.6,1.6l3.8,-1.6l-3.8,8.6l-3.6,-8.6Z" class="g3_46" />
<path d="M283.8,283.9l0,-14.8" class="g2_46" />
<path d="M481.7,158.6l0,-1.6l215,0l0,1.6Z" class="g3_46" />
<path d="M481.5,174.7l0,-16.9l1.5,0l0,16.9Z" class="g3_46" />
<path d="M614.2,174.7l0,-16.9l1.5,0l0,16.9Z" class="g3_46" />
<path d="M696.4,174.7l0,-16.9l1.5,0l0,16.9Z" class="g3_46" />
<path d="M481.5,191.4l0,-16.9l1.5,0l0,16.9Z" class="g3_46" />
<path d="M614.2,191.4l0,-16.9l1.5,0l0,16.9Z" class="g3_46" />
<path d="M696.4,191.4l0,-16.9l1.5,0l0,16.9Z" class="g3_46" />
<path d="M481.5,208.3l0,-16.9l1.5,0l0,16.9Z" class="g3_46" />
<path d="M614.2,208.3l0,-16.9l1.5,0l0,16.9Z" class="g3_46" />
<path d="M696.4,208.3l0,-16.9l1.5,0l0,16.9Z" class="g3_46" />
<path d="M481.5,224.9l0,-16.8l1.5,0l0,16.8Z" class="g3_46" />
<path d="M614.2,224.9l0,-16.8l1.5,0l0,16.8Z" class="g3_46" />
<path d="M696.4,224.9l0,-16.8l1.5,0l0,16.8Z" class="g3_46" />
<path d="M481.5,241.6l0,-16.8l1.5,0l0,16.8Z" class="g3_46" />
<path d="M614.2,241.6l0,-16.8l1.5,0l0,16.8Z" class="g3_46" />
<path d="M696.4,241.6l0,-16.8l1.5,0l0,16.8Z" class="g3_46" />
<path d="M481.5,258.5l0,-16.9l1.5,0l0,16.9Z" class="g3_46" />
<path d="M614.2,258.5l0,-16.9l1.5,0l0,16.9Z" class="g3_46" />
<path d="M696.4,258.5l0,-16.9l1.5,0l0,16.9Z" class="g3_46" />
<path d="M481.7,259l0,-1.5l215,0l0,1.5Z" class="g3_46" />
<path d="M79,404.4l0,-1.5l511.6,0l0,1.5Z" class="g3_46" />
<path d="M79,436l0,-1.6l511.6,0l0,1.6Z" class="g3_46" />
<path d="M79,982.2l0,-1.5l639.4,0l0,1.5Z" class="g1_46" />
<path d="M79,1009.7l0,-1.5l639.4,0l0,1.5Z" class="g1_46" />
</svg>