<?xml version="1.0" encoding="UTF-8" standalone="no"?>
<!DOCTYPE svg PUBLIC "-//W3C//DTD SVG 1.1//EN"
"http://www.w3.org/Graphics/SVG/1.1/DTD/svg11.dtd">
<svg viewBox="0 0 818 1066" version="1.1" xmlns="http://www.w3.org/2000/svg" xmlns:xlink="http://www.w3.org/1999/xlink">
<defs>
<style type="text/css"><![CDATA[
.g1_24{
fill: #9A9A9A;
}
.g2_24{
}
.g3_24{
fill: none;
stroke: #000000;
stroke-width: 0.7638889;
stroke-linecap: butt;
stroke-linejoin: miter;
stroke-miterlimit: 4;
}
]]></style>
</defs>
<path d="M79,82.1l0,-1.5l639.4,0l0,1.5Z" class="g1_24" />
<path d="M79,113.1l0,-1.5l639.4,0l0,1.5Z" class="g1_24" />
<path d="M165,306.4l3.8,0.3l3,-2.3l-0.8,9.1l-6,-7.1Z" class="g2_24" />
<path d="M170,310.4L154.7,268.3" class="g3_24" />
<path d="M151,267.9c6.7,0,12.2,-5.5,12.2,-12.2c0,-6.8,-5.5,-12.2,-12.2,-12.2c-6.8,0,-12.3,5.4,-12.3,12.2c0,6.7,5.5,12.2,12.3,12.2Z" class="g3_24" />
<path d="M135.4,248.3c-16.6,-9.6,-25.2,-10.5,-37.7,-9" class="g3_24" />
<path d="M129.6,249.5l2.8,-2.6l0.4,-3.7l6.1,6.8l-9.3,-0.5Z" class="g2_24" />
<path d="M180.5,187.8l3.8,0.5l2.4,2.9l1.2,-9.2l-7.4,5.8Z" class="g2_24" />
<path d="M186.3,184.7l-29.4,58.9" class="g3_24" />
<path d="M355,197.1l2.3,3.1l-0.3,3.7l7.3,-5.6L355,197.1Z" class="g2_24" />
<path d="M163.7,251.9L360.9,199.3" class="g3_24" />
<path d="M354.9,308.6l2.3,-3.1l-0.5,-3.7l7.5,5.3l-9.3,1.5Z" class="g2_24" />
<path d="M163.8,259l197.9,47.6" class="g3_24" />
<path d="M273.2,181.5c6.3,0,11.5,-5.1,11.5,-11.4c0,-6.3,-5.2,-11.5,-11.5,-11.5c-6.3,0,-11.5,5.2,-11.5,11.5c0,6.3,5.2,11.4,11.5,11.4Zm0,3.1c8,0,14.5,-6.5,14.5,-14.5c0,-8,-6.5,-14.5,-14.5,-14.5c-8,0,-14.5,6.5,-14.5,14.5c0,8,6.5,14.5,14.5,14.5Z" class="g3_24" />
<path d="M193.7,182.3c6.8,0,12.3,-5.5,12.3,-12.2c0,-6.8,-5.5,-12.2,-12.3,-12.2c-6.7,0,-12.2,5.4,-12.2,12.2c0,6.7,5.5,12.2,12.2,12.2Z" class="g3_24" />
<path d="M249.2,165.7l1.5,3.6l-1.5,3.7l8.5,-3.5l-8.5,-3.8Z" class="g2_24" />
<path d="M255.7,169.5l-48.7,0" class="g3_24" />
<path d="M663.3,184.8l1.5,3.6l-1.5,3.7l8.4,-3.5l-8.4,-3.8Z" class="g2_24" />
<path d="M667.5,188.1l-36.1,0" class="g3_24" />
<path d="M462.8,206.7c6.8,0,12.3,-5.4,12.3,-12.2c0,-6.7,-5.5,-12.2,-12.3,-12.2c-6.7,0,-12.2,5.5,-12.2,12.2c0,6.8,5.5,12.2,12.2,12.2Z" class="g3_24" />
<path d="M447.2,202.4c-15.5,10.7,-42.5,12,-58,-1.6" class="g3_24" />
<path d="M441.3,201.6l3,2.4l0.5,3.7l5.8,-7.1l-9.3,1Z" class="g2_24" />
<path d="M447.2,186.6c-15.5,-10.6,-42.5,-11.9,-58,1.7" class="g3_24" />
<path d="M441.3,187.5l3,-2.5l0.5,-3.7l5.8,7.1l-9.3,-0.9Z" class="g2_24" />
<path d="M377.2,206.7c6.8,0,12.2,-5.4,12.2,-12.2c0,-6.7,-5.4,-12.2,-12.2,-12.2c-6.7,0,-12.2,5.5,-12.2,12.2c0,6.8,5.5,12.2,12.2,12.2Z" class="g3_24" />
<path d="M602.5,196.5c-12.9,8.9,-49.1,9.5,-62,-1.8" class="g3_24" />
<path d="M596.6,195.7l3,2.4l0.5,3.7l5.8,-7.1l-9.3,1Z" class="g2_24" />
<path d="M602.6,180.2c-12.9,-8.8,-49.2,-9.3,-62.1,2" class="g3_24" />
<path d="M596.7,181.1l3,-2.5l0.5,-3.7L606,182l-9.3,-0.9Z" class="g2_24" />
<path d="M528.6,200.6c6.8,0,12.2,-5.4,12.2,-12.2c0,-6.7,-5.4,-12.2,-12.2,-12.2c-6.8,0,-12.2,5.5,-12.2,12.2c0,6.8,5.4,12.2,12.2,12.2Z" class="g3_24" />
<path d="M679.2,169.7C667.4,124.6,534.6,153.8,474.8,188" class="g3_24" />
<path d="M674.1,166.2l3.8,0.2l2.9,-2.4l-0.5,9.2l-6.2,-7Z" class="g2_24" />
<path d="M533.5,205.2c8,29.8,136,37.4,149.1,-2.6" class="g3_24" />
<path d="M538.5,208.8l-3.9,-0.3l-2.9,2.3l0.7,-9.1l6.1,7.1Z" class="g2_24" />
<path d="M496.9,165.1l-3.2,0c0.1,1.1,0.6,2.1,1.8,2.5c0.7,0.3,1.5,0.4,2.4,0.1l0,0.6c-0.4,0.1,-1,0.5,-2.6,0.2c-1.6,-0.4,-3.1,-2,-3,-4.1c0,-1.6,1.2,-4.4,5.1,-3.5l0,0.7c-0.8,-0.2,-1.6,-0.1,-2.4,0.4c-0.6,0.5,-1.2,1.3,-1.3,2.3l3.2,0l0,0.8Z" class="g2_24" />
<path d="M666.5,228.5l-3.2,0c0.1,1.2,0.6,2.1,1.8,2.6c0.7,0.2,1.5,0.3,2.4,0l0,0.6c-0.4,0.1,-1,0.5,-2.6,0.2c-1.6,-0.4,-3.1,-2,-3,-4.1c0,-1.6,1.2,-4.4,5.1,-3.5l0,0.7c-0.8,-0.1,-1.6,-0.1,-2.4,0.5c-0.6,0.4,-1.2,1.2,-1.3,2.2l3.2,0l0,0.8Z" class="g2_24" />
<path d="M671.1,346.9l-3.2,0c0.1,1.2,0.6,2.1,1.8,2.6c0.6,0.2,1.5,0.3,2.4,0l0,0.6c-0.4,0.2,-1,0.6,-2.6,0.2c-1.7,-0.4,-3.1,-2,-3,-4.1c0,-1.6,1.2,-4.4,5.1,-3.5l0,0.7c-0.8,-0.1,-1.6,-0.1,-2.4,0.5c-0.6,0.4,-1.2,1.2,-1.3,2.2l3.2,0l0,0.8Z" class="g2_24" />
<path d="M646.7,180.4l-3.2,0c0.1,1.1,0.6,2,1.8,2.5c0.6,0.3,1.4,0.4,2.3,0.1l0,0.6c-0.4,0.1,-1,0.5,-2.5,0.2c-1.7,-0.4,-3.1,-2,-3.1,-4.1c0,-1.6,1.2,-4.4,5.2,-3.5l0,0.6c-0.9,-0.1,-1.7,-0.1,-2.5,0.5c-0.6,0.5,-1.2,1.2,-1.3,2.3l3.3,0l0,0.8Z" class="g2_24" />
<path d="M647.4,301.1l-3.2,0c0.1,1.1,0.6,2,1.8,2.5c0.7,0.3,1.5,0.4,2.4,0.1l0,0.6c-0.4,0.1,-1,0.5,-2.6,0.2c-1.6,-0.4,-3.1,-2,-3,-4.1c0,-1.6,1.2,-4.4,5.1,-3.5l0,0.7c-0.8,-0.2,-1.6,-0.2,-2.4,0.4c-0.6,0.5,-1.2,1.2,-1.3,2.3l3.2,0l0,0.8Z" class="g2_24" />
<path d="M245.8,271.7l-3.2,0c0.1,1.1,0.6,2,1.8,2.5c0.7,0.3,1.5,0.4,2.4,0.1l0,0.6c-0.4,0.1,-1,0.5,-2.6,0.2c-1.6,-0.4,-3.1,-2.1,-3,-4.1c0,-1.6,1.2,-4.4,5.1,-3.5l0,0.6c-0.8,-0.1,-1.6,-0.1,-2.4,0.5c-0.6,0.5,-1.2,1.2,-1.3,2.3l3.2,0l0,0.8Z" class="g2_24" />
<path d="M247,221.2l-3.2,0c0.1,1.1,0.6,2,1.8,2.5c0.7,0.3,1.5,0.4,2.4,0.1l0,0.6c-0.4,0.1,-1,0.5,-2.6,0.2c-1.6,-0.4,-3,-2,-3,-4.1c0,-1.6,1.2,-4.4,5.1,-3.5l0,0.7c-0.8,-0.2,-1.6,-0.2,-2.4,0.4c-0.6,0.5,-1.2,1.2,-1.3,2.3l3.2,0l0,0.8Z" class="g2_24" />
<path d="M168.4,281.2l-3.2,0c0.1,1.2,0.6,2.1,1.8,2.6c0.7,0.2,1.5,0.3,2.4,0l0,0.6c-0.4,0.2,-1,0.6,-2.6,0.2c-1.6,-0.4,-3.1,-2,-3,-4.1c0,-1.6,1.2,-4.4,5.1,-3.5l0,0.7c-0.8,-0.1,-1.6,-0.1,-2.4,0.5c-0.6,0.4,-1.2,1.2,-1.3,2.2l3.2,0l0,0.8Z" class="g2_24" />
<path d="M497.1,288.3l-3.2,0c0.1,1.1,0.6,2,1.8,2.5c0.6,0.2,1.5,0.4,2.3,0l0,0.7c-0.3,0.1,-0.9,0.5,-2.5,0.1c-1.7,-0.4,-3.1,-2,-3,-4.1c0,-1.6,1.2,-4.4,5.1,-3.4l0,0.6c-0.8,-0.1,-1.6,-0.1,-2.4,0.5c-0.6,0.4,-1.2,1.2,-1.3,2.2l3.2,0l0,0.9Z" class="g2_24" />
<path d="M679.2,290.4C667.4,245.3,534.6,274.5,474.8,308.7" class="g3_24" />
<path d="M674.1,286.9l3.8,0.2l2.9,-2.4l-0.5,9.2l-6.2,-7Z" class="g2_24" />
<path d="M533.5,325.9c8,29.8,136,37.4,149.1,-2.6" class="g3_24" />
<path d="M538.5,329.5l-3.9,-0.3l-2.9,2.3l0.7,-9.1l6.1,7.1Z" class="g2_24" />
<path d="M462.8,322.9c6.8,0,12.3,-5.4,12.3,-12.2c0,-6.7,-5.5,-12.2,-12.3,-12.2c-6.7,0,-12.2,5.5,-12.2,12.2c0,6.8,5.5,12.2,12.2,12.2Z" class="g3_24" />
<path d="M447.2,318.6c-15.5,10.7,-42.5,12,-58,-1.6" class="g3_24" />
<path d="M441.3,317.8l3,2.4l0.5,3.7l5.8,-7.1l-9.3,1Z" class="g2_24" />
<path d="M447.2,302.8c-15.5,-10.6,-42.5,-11.9,-58,1.7" class="g3_24" />
<path d="M441.3,303.6l3,-2.4l0.5,-3.7l5.8,7.1l-9.3,-1Z" class="g2_24" />
<path d="M377.2,322.9c6.8,0,12.3,-5.4,12.3,-12.2c0,-6.7,-5.5,-12.2,-12.3,-12.2c-6.7,0,-12.2,5.5,-12.2,12.2c0,6.8,5.5,12.2,12.2,12.2Z" class="g3_24" />
<path d="M602.6,317.2c-12.9,8.8,-49.2,9.6,-62,-1.7" class="g3_24" />
<path d="M596.7,316.4l3,2.4l0.5,3.7l5.8,-7.1l-9.3,1Z" class="g2_24" />
<path d="M602.8,300.8C589.9,292,553.4,291.7,540.6,303" class="g3_24" />
<path d="M596.9,301.6l3,-2.4l0.5,-3.7l5.8,7.1l-9.3,-1Z" class="g2_24" />
<path d="M528.6,321.4c6.8,0,12.2,-5.5,12.2,-12.2c0,-6.8,-5.4,-12.2,-12.2,-12.2c-6.7,0,-12.2,5.4,-12.2,12.2c0,6.7,5.5,12.2,12.2,12.2Z" class="g3_24" />
<path d="M619.1,200.6c6.8,0,12.3,-5.4,12.3,-12.2c0,-6.7,-5.5,-12.2,-12.3,-12.2c-6.7,0,-12.2,5.5,-12.2,12.2c0,6.8,5.5,12.2,12.2,12.2Z" class="g3_24" />
<path d="M619.2,321.4c6.7,0,12.2,-5.5,12.2,-12.2c0,-6.8,-5.5,-12.2,-12.2,-12.2c-6.8,0,-12.3,5.4,-12.3,12.2c0,6.7,5.5,12.2,12.3,12.2Z" class="g3_24" />
<path d="M663.3,306.3l1.5,3.5l-1.5,3.8l8.4,-3.6l-8.4,-3.7Z" class="g2_24" />
<path d="M667.5,309.6l-36.1,0" class="g3_24" />
<path d="M261.5,334.3c-12.8,8.8,-61.2,9.9,-74,-1.4" class="g3_24" />
<path d="M255.6,333.5l3,2.4l0.5,3.7l5.8,-7.1l-9.3,1Z" class="g2_24" />
<path d="M261.5,318.5c-12.8,-8.9,-61.7,-10.5,-74,1.9" class="g3_24" />
<path d="M259.1,313.2l5.9,7.1l-9.4,-1l3,-2.4l0.5,-3.7Z" class="g2_24" />
<path d="M175.5,338.8c6.8,0,12.2,-5.5,12.2,-12.2c0,-6.8,-5.4,-12.3,-12.2,-12.3c-6.7,0,-12.2,5.5,-12.2,12.3c0,6.7,5.5,12.2,12.2,12.2Z" class="g3_24" />
<path d="M279.5,338c6.3,0,11.4,-5.1,11.4,-11.4c0,-6.4,-5.1,-11.5,-11.4,-11.5c-6.4,0,-11.5,5.1,-11.5,11.5c0,6.3,5.1,11.4,11.5,11.4Zm0,3.1c8,0,14.5,-6.5,14.5,-14.5c0,-8,-6.5,-14.5,-14.5,-14.5c-8,0,-14.5,6.5,-14.5,14.5c0,8,6.5,14.5,14.5,14.5Z" class="g3_24" />
<path d="M688.2,199.9c6.3,0,11.5,-5.2,11.5,-11.5c0,-6.3,-5.2,-11.4,-11.5,-11.4c-6.3,0,-11.5,5.1,-11.5,11.4c0,6.3,5.2,11.5,11.5,11.5Zm0,3c8,0,14.5,-6.5,14.5,-14.5c0,-8,-6.5,-14.5,-14.5,-14.5c-8,0,-14.5,6.5,-14.5,14.5c0,8,6.5,14.5,14.5,14.5Z" class="g3_24" />
<path d="M688.2,320.7c6.3,0,11.5,-5.2,11.5,-11.5c0,-6.3,-5.2,-11.5,-11.5,-11.5c-6.3,0,-11.5,5.2,-11.5,11.5c0,6.3,5.2,11.5,11.5,11.5Zm0,3c8,0,14.5,-6.5,14.5,-14.5c0,-8,-6.5,-14.5,-14.5,-14.5c-8,0,-14.5,6.5,-14.5,14.5c0,8,6.5,14.5,14.5,14.5Z" class="g3_24" />
<path d="M79,392.5L79,391l511.6,0l0,1.5Z" class="g2_24" />
<path d="M79,424.1l0,-1.6l511.6,0l0,1.6Z" class="g2_24" />
<path d="M79,982.2l0,-1.5l639.4,0l0,1.5Z" class="g1_24" />
<path d="M79,1009.7l0,-1.5l639.4,0l0,1.5Z" class="g1_24" />
</svg>