<?xml version="1.0" encoding="UTF-8" standalone="no"?>
<!DOCTYPE svg PUBLIC "-//W3C//DTD SVG 1.1//EN"
"http://www.w3.org/Graphics/SVG/1.1/DTD/svg11.dtd">
<svg viewBox="0 0 818 1066" version="1.1" xmlns="http://www.w3.org/2000/svg" xmlns:xlink="http://www.w3.org/1999/xlink">
<defs>
<style type="text/css"><![CDATA[
.g1_29{
fill: #9A9A9A;
}
.g2_29{
fill: none;
stroke: #000000;
stroke-width: 0.7638889;
stroke-linecap: butt;
stroke-linejoin: miter;
stroke-miterlimit: 4;
}
.g3_29{
}
]]></style>
</defs>
<path d="M79,82.1l0,-1.5l639.4,0l0,1.5Z" class="g1_29" />
<path d="M79,113.1l0,-1.5l639.4,0l0,1.5Z" class="g1_29" />
<path d="M538.7,911.5C578.3,928.1,578,873.8,535,898" class="g2_29" />
<path d="M544.6,909.8l-2.8,2.7l-0.1,3.8l-6.5,-6.5l9.4,0Z" class="g3_29" />
<path d="M307.2,896.5c-39.5,-22.3,-38.9,40.2,3.2,13.6" class="g2_29" />
<path d="M301.4,898.2l2.7,-2.7l0.2,-3.8l6.2,6.5l-9.1,0Z" class="g3_29" />
<path d="M371.1,925.1c-18.1,59.9,66.7,27.4,12.1,-6.8" class="g2_29" />
<path d="M373.3,931l-3,-2.5l-3.7,0.3l5.5,-7.1l1.2,9.3Z" class="g3_29" />
<path d="M352.4,922.4c23.7,0,42.8,-8.2,42.8,-18.4c0,-10.1,-19.1,-18.3,-42.8,-18.3c-23.6,0,-42.8,8.2,-42.8,18.3c0,10.2,19.2,18.4,42.8,18.4Z" class="g2_29" />
<path d="M493.1,922.4c23.6,0,42.8,-8.2,42.8,-18.4c0,-10.1,-19.2,-18.3,-42.8,-18.3c-23.7,0,-42.8,8.2,-42.8,18.3c0,10.2,19.1,18.4,42.8,18.4ZM447.7,896.6c-19.8,-7.6,-36,-6.6,-53.3,1.3" class="g2_29" />
<path d="M442,898.3l2.6,-2.8l0,-3.8l6.7,6.3l-9.3,0.3Z" class="g3_29" />
<path d="M397.8,911.4c19.5,7.1,37.1,6.6,53.5,-1.2" class="g2_29" />
<path d="M403.5,909.8l-2.6,2.8l0,3.7l-6.7,-6.2l9.3,-0.3Z" class="g3_29" />
<path d="M329.6,884C314.3,869.9,303.9,865.4,287.4,865.4" class="g2_29" />
<path d="M323.5,883.6l3.5,-1.8l1.4,-3.4l3.8,8.1l-8.7,-2.9Z" class="g3_29" />
<path d="M79,982.2l0,-1.5l639.4,0l0,1.5Z" class="g1_29" />
<path d="M79,1009.7l0,-1.5l639.4,0l0,1.5Z" class="g1_29" />
</svg>