<?xml version="1.0" encoding="UTF-8" standalone="no"?>
<!DOCTYPE svg PUBLIC "-//W3C//DTD SVG 1.1//EN"
"http://www.w3.org/Graphics/SVG/1.1/DTD/svg11.dtd">
<svg viewBox="0 0 818 1066" version="1.1" xmlns="http://www.w3.org/2000/svg" xmlns:xlink="http://www.w3.org/1999/xlink">
<defs>
<style type="text/css"><![CDATA[
.g1_55{
fill: #9A9A9A;
}
.g2_55{
}
]]></style>
</defs>
<path d="M79,82.1l0,-1.5l639.4,0l0,1.5Z" class="g1_55" />
<path d="M79,113.1l0,-1.5l639.4,0l0,1.5Z" class="g1_55" />
<path d="M585.6,154.3l0,-16.8l1.5,0l0,16.8Z" class="g2_55" />
<path d="M138.4,154.9l0,-1.5l495.6,0l0,1.5Z" class="g2_55" />
<path d="M138.1,171l0,-16.8l1.5,0l0,16.8Z" class="g2_55" />
<path d="M585.6,171l0,-16.8l1.5,0l0,16.8Z" class="g2_55" />
<path d="M633.7,171l0,-16.8l1.5,0l0,16.8Z" class="g2_55" />
<path d="M138.1,187.7l0,-16.9l1.5,0l0,16.9Z" class="g2_55" />
<path d="M585.6,187.7l0,-16.9l1.5,0l0,16.9Z" class="g2_55" />
<path d="M633.7,187.7l0,-16.9l1.5,0l0,16.9Z" class="g2_55" />
<path d="M138.1,204.6l0,-16.9l1.5,0l0,16.9Z" class="g2_55" />
<path d="M585.6,204.6l0,-16.9l1.5,0l0,16.9Z" class="g2_55" />
<path d="M633.7,204.6l0,-16.9l1.5,0l0,16.9Z" class="g2_55" />
<path d="M138.1,221.3l0,-16.9l1.5,0l0,16.9Z" class="g2_55" />
<path d="M585.6,221.3l0,-16.9l1.5,0l0,16.9Z" class="g2_55" />
<path d="M633.7,221.3l0,-16.9l1.5,0l0,16.9Z" class="g2_55" />
<path d="M138.1,238l0,-16.9l1.5,0l0,16.9Z" class="g2_55" />
<path d="M585.6,238l0,-16.9l1.5,0l0,16.9Z" class="g2_55" />
<path d="M633.7,238l0,-16.9l1.5,0l0,16.9Z" class="g2_55" />
<path d="M138.1,254.8l0,-16.8l1.5,0l0,16.8Z" class="g2_55" />
<path d="M585.6,254.8l0,-16.8l1.5,0l0,16.8Z" class="g2_55" />
<path d="M633.7,254.8l0,-16.8l1.5,0l0,16.8Z" class="g2_55" />
<path d="M138.1,271.5l0,-16.9l1.5,0l0,16.9Z" class="g2_55" />
<path d="M585.6,271.5l0,-16.9l1.5,0l0,16.9Z" class="g2_55" />
<path d="M633.7,271.5l0,-16.9l1.5,0l0,16.9Z" class="g2_55" />
<path d="M138.1,288.2l0,-16.9l1.5,0l0,16.9Z" class="g2_55" />
<path d="M585.6,288.2l0,-16.9l1.5,0l0,16.9Z" class="g2_55" />
<path d="M633.7,288.2l0,-16.9l1.5,0l0,16.9Z" class="g2_55" />
<path d="M138.1,305.1l0,-16.9l1.5,0l0,16.9Z" class="g2_55" />
<path d="M585.6,305.1l0,-16.9l1.5,0l0,16.9Z" class="g2_55" />
<path d="M633.7,305.1l0,-16.9l1.5,0l0,16.9Z" class="g2_55" />
<path d="M138.1,321.7l0,-16.8l1.5,0l0,16.8Z" class="g2_55" />
<path d="M585.6,321.7l0,-16.8l1.5,0l0,16.8Z" class="g2_55" />
<path d="M633.7,321.7l0,-16.8l1.5,0l0,16.8Z" class="g2_55" />
<path d="M138.1,338.4l0,-16.8l1.5,0l0,16.8Z" class="g2_55" />
<path d="M585.6,338.4l0,-16.8l1.5,0l0,16.8Z" class="g2_55" />
<path d="M633.7,338.4l0,-16.8l1.5,0l0,16.8Z" class="g2_55" />
<path d="M138.1,355.3l0,-16.9l1.5,0l0,16.9Z" class="g2_55" />
<path d="M585.6,355.3l0,-16.9l1.5,0l0,16.9Z" class="g2_55" />
<path d="M633.7,355.3l0,-16.9l1.5,0l0,16.9Z" class="g2_55" />
<path d="M138.1,372l0,-16.9l1.5,0l0,16.9Z" class="g2_55" />
<path d="M585.6,372l0,-16.9l1.5,0l0,16.9Z" class="g2_55" />
<path d="M633.7,372l0,-16.9l1.5,0l0,16.9Z" class="g2_55" />
<path d="M138.1,388.7l0,-16.9l1.5,0l0,16.9Z" class="g2_55" />
<path d="M585.6,388.7l0,-16.9l1.5,0l0,16.9Z" class="g2_55" />
<path d="M633.7,388.7l0,-16.9l1.5,0l0,16.9Z" class="g2_55" />
<path d="M138.1,405.5l0,-16.8l1.5,0l0,16.8Z" class="g2_55" />
<path d="M585.6,405.5l0,-16.8l1.5,0l0,16.8Z" class="g2_55" />
<path d="M633.7,405.5l0,-16.8l1.5,0l0,16.8Z" class="g2_55" />
<path d="M138.4,406.1l0,-1.5l495.6,0l0,1.5Z" class="g2_55" />
<path d="M79,417.6l0,-1.5l511.6,0l0,1.5Z" class="g2_55" />
<path d="M79,449.2l0,-1.6l511.6,0l0,1.6Z" class="g2_55" />
<path d="M79,982.2l0,-1.5l639.4,0l0,1.5Z" class="g1_55" />
<path d="M79,1009.7l0,-1.5l639.4,0l0,1.5Z" class="g1_55" />
</svg>