<?xml version="1.0" encoding="UTF-8" standalone="no"?>
<!DOCTYPE svg PUBLIC "-//W3C//DTD SVG 1.1//EN"
"http://www.w3.org/Graphics/SVG/1.1/DTD/svg11.dtd">
<svg viewBox="0 0 818 1066" version="1.1" xmlns="http://www.w3.org/2000/svg" xmlns:xlink="http://www.w3.org/1999/xlink">
<defs>
<style type="text/css"><![CDATA[
.g1_17{
fill: #9A9A9A;
}
.g2_17{
}
]]></style>
</defs>
<path d="M79,82.1l0,-1.5l639.4,0l0,1.5Z" class="g1_17" />
<path d="M79,113.1l0,-1.5l639.4,0l0,1.5Z" class="g1_17" />
<path d="M79,412.9l0,-1.6l511.6,0l0,1.6Z" class="g2_17" />
<path d="M79,444.2l0,-1.5l511.6,0l0,1.5Z" class="g2_17" />
<path d="M79,576.6l0,-1.5l511.6,0l0,1.5Z" class="g2_17" />
<path d="M79,608.1l0,-1.5l511.6,0l0,1.5Z" class="g2_17" />
<path d="M79,982.2l0,-1.5l639.4,0l0,1.5Z" class="g1_17" />
<path d="M79,1009.7l0,-1.5l639.4,0l0,1.5Z" class="g1_17" />
</svg>