<?xml version="1.0" encoding="UTF-8" standalone="no"?>
<!DOCTYPE svg PUBLIC "-//W3C//DTD SVG 1.1//EN"
"http://www.w3.org/Graphics/SVG/1.1/DTD/svg11.dtd">
<svg viewBox="0 0 935 1210" version="1.1" xmlns="http://www.w3.org/2000/svg" xmlns:xlink="http://www.w3.org/1999/xlink">
<defs>
<style type="text/css"><![CDATA[
.g1_1{
fill: #FFFFFF;
}
.g2_1{
fill: none;
stroke: #000000;
stroke-width: 1.0360777;
stroke-linecap: square;
stroke-linejoin: miter;
}
.g3_1{
}
]]></style>
</defs>
<path d="M393.6,686.1l-1.5,0L390.8,686l-1.4,-0.5l-1.3,-0.4l-1.2,-0.6l-1,-0.7L384.8,683l-1,-0.9l-0.9,-1l-0.7,-1l-0.8,-1.2l-0.6,-1.2l-0.4,-1.2l-0.3,-1.4l-0.3,-1.4l0,-1.4l0,-1.5l0.3,-1.3l0.3,-1.3l0.4,-1.4l0.6,-1.2l0.8,-1.1l0.7,-1.1l0.9,-1l1,-0.9l1.1,-0.8l1,-0.7l1.2,-0.6l1.3,-0.4l1.4,-0.3l1.3,-0.3l1.5,0l1.3,0l1.3,0.3l1.4,0.3l1.3,0.4l1.2,0.6l1.2,0.7l1,0.8l0.9,0.9l0.9,1l0.9,1.1l0.6,1.1l0.5,1.2l0.5,1.4l0.4,1.3l0.2,1.3l0.1,1.5l-0.1,1.4l-0.2,1.4l-0.4,1.4l-0.5,1.2l-0.5,1.2l-0.6,1.2l-0.9,1l-0.9,1l-0.9,0.9l-1,0.8l-1.2,0.7l-1.2,0.6l-1.3,0.4l-1.4,0.5l-1.3,0.1Z" class="g1_1" />
<path d="M379.8,672.3l0,-1.5l0.3,-1.3l0.3,-1.3l0.4,-1.4l0.6,-1.2l0.8,-1.1l0.7,-1.1l0.9,-1l1,-0.9l1.1,-0.8l1,-0.7l1.2,-0.6l1.3,-0.4l1.4,-0.3l1.3,-0.3l1.5,0l1.3,0l1.3,0.3l1.4,0.3l1.3,0.4l1.2,0.6l1.2,0.7l1,0.8l0.9,0.9l0.9,1l0.9,1.1l0.6,1.1l0.5,1.2l0.5,1.4l0.4,1.3l0.2,1.3l0.1,1.5l-0.1,1.4l-0.2,1.4l-0.4,1.4l-0.5,1.2l-0.5,1.2L405,680l-0.9,1.1l-0.9,1l-0.9,0.9l-1,0.8l-1.2,0.7l-1.2,0.6l-1.3,0.4l-1.4,0.5l-1.3,0.1l-1.3,0l-1.5,0L390.8,686l-1.4,-0.5l-1.3,-0.4l-1.2,-0.6l-1,-0.7L384.8,683l-1,-0.9l-0.9,-1L382.2,680l-0.8,-1.1l-0.6,-1.2l-0.4,-1.2l-0.3,-1.4l-0.3,-1.4l0,-1.4" class="g2_1" />
<path d="M503.5,686.1l-1.4,0L500.7,686l-1.3,-0.5l-1.2,-0.4l-1.3,-0.6l-1.1,-0.7l-1,-0.8l-1,-0.9l-0.9,-1l-0.8,-1l-0.7,-1.2l-0.6,-1.2l-0.4,-1.2l-0.3,-1.4l-0.3,-1.4l0,-1.4l0,-1.5l0.3,-1.3l0.3,-1.3l0.4,-1.4l0.6,-1.2l0.7,-1.1l0.8,-1.1l0.9,-1l1,-0.9l1,-0.8l1.1,-0.7l1.3,-0.6l1.2,-0.4l1.3,-0.3l1.4,-0.3l1.4,0l1.4,0l1.3,0.3l1.3,0.3l1.4,0.4l1.2,0.6l1.1,0.7l1.1,0.8l0.9,0.9l0.9,1l0.8,1.1l0.6,1.1l0.6,1.2l0.5,1.4l0.4,1.3l0.2,1.3l0.1,1.5l-0.1,1.4l-0.2,1.4l-0.4,1.4l-0.5,1.2l-0.6,1.2l-0.6,1.2l-0.8,1l-0.9,1l-0.9,0.9l-1.1,0.8l-1.1,0.7l-1.2,0.6l-1.4,0.4l-1.3,0.5l-1.3,0.1Z" class="g1_1" />
<path d="M489.8,672.3l0,-1.5l0.3,-1.3l0.3,-1.3l0.4,-1.4l0.6,-1.2l0.7,-1.1l0.8,-1.1l0.9,-1l1,-0.9l1,-0.8l1.1,-0.7l1.3,-0.6l1.2,-0.4l1.3,-0.3l1.4,-0.3l1.4,0l1.4,0l1.3,0.3l1.3,0.3l1.4,0.4l1.2,0.6l1.1,0.7l1.1,0.8l0.9,0.9l0.9,1l0.8,1.1l0.6,1.1l0.6,1.2l0.5,1.4l0.4,1.3l0.2,1.3l0.1,1.5l-0.1,1.4l-0.2,1.4l-0.4,1.4l-0.5,1.2l-0.6,1.2l-0.6,1.1l-0.8,1.1l-0.9,1l-0.9,0.9l-1.1,0.8l-1.1,0.7l-1.2,0.6l-1.4,0.4l-1.3,0.5l-1.3,0.1l-1.4,0l-1.4,0L500.7,686l-1.3,-0.5l-1.2,-0.4l-1.3,-0.6l-1.1,-0.7l-1,-0.8l-1,-0.9l-0.9,-1L492.1,680l-0.7,-1.1l-0.6,-1.2l-0.4,-1.2l-0.3,-1.4l-0.3,-1.4l0,-1.4" class="g2_1" />
<path d="M620.3,689.7l-0.9,0l-0.7,-0.1l-0.9,0l-0.9,-0.2L616,689.1L615.3,689l-0.9,-0.3l-0.7,-0.3l-1.5,-0.8l-1.5,-0.9l-1.2,-1l-1.3,-1l-1,-1.4L606.1,682l-0.9,-1.4L604.5,679l-0.3,-0.7l-0.3,-0.8l-0.1,-0.9l-0.2,-0.9L603.5,675l-0.2,-0.9l-0.1,-0.9l0,-0.9l0,-0.9l0.1,-0.9l0.2,-0.8l0.1,-0.9l0.2,-0.9l0.1,-0.8l0.3,-0.9l0.3,-0.7l0.7,-1.5l0.9,-1.5l1.1,-1.3l1,-1.2l1.3,-1.2l1.2,-0.9l1.5,-0.9l1.5,-0.7l0.7,-0.3l0.9,-0.3l0.7,-0.3l0.9,-0.2l0.9,-0.1l0.9,-0.2l0.7,0l0.9,0l0.9,0l0.9,0l0.9,0.2l0.9,0.1l0.7,0.2l0.9,0.3l0.8,0.3l0.8,0.3l1.5,0.7l1.4,0.9l1.3,0.9l1.3,1.2l1.1,1.2l1,1.3l0.7,1.5l0.8,1.5l0.3,0.7l0.3,0.9l0.3,0.8l0.1,0.9l0.2,0.9l0.1,0.8l0,0.9l0.1,0.9l-0.1,0.9l0,0.9l-0.1,0.9l-0.2,0.7l-0.1,0.9l-0.3,0.9l-0.3,0.8l-0.3,0.7l-0.6,1.6l-0.9,1.4l-1,1.3l-1.1,1.4l-1.3,1l-1.3,1l-1.4,0.9l-1.5,0.8l-0.8,0.3l-0.8,0.3l-0.9,0.1l-0.7,0.3l-0.9,0.2l-0.9,0l-0.9,0.1Z" class="g1_1" />
<path d="M603.2,672.3l0,-0.9l0.1,-0.9l0.2,-0.8l0.1,-0.9l0.2,-0.9l0.1,-0.8l0.3,-0.9l0.3,-0.7l0.7,-1.5l0.9,-1.5l1.1,-1.3l1,-1.2l1.3,-1.2l1.2,-0.9l1.5,-0.9l1.5,-0.7l0.7,-0.3l0.9,-0.3l0.7,-0.3l0.9,-0.2l0.9,-0.1l0.9,-0.2l0.7,0l0.9,0l0.9,0l0.9,0l0.9,0.2l0.9,0.1l0.7,0.2l0.9,0.3l0.7,0.3l0.9,0.3l1.5,0.7l1.3,0.9l1.4,0.9l1.3,1.2l1.1,1.2l1,1.3l0.7,1.5l0.8,1.5l0.3,0.7l0.3,0.9l0.3,0.8l0.1,0.9l0.2,0.9l0.1,0.8l0,0.9l0.1,0.9l-0.1,0.9l0,0.9l-0.1,0.9l-0.2,0.7l-0.1,0.9l-0.3,0.9l-0.3,0.8l-0.3,0.7l-0.6,1.6l-0.9,1.4l-1,1.3l-1.1,1.4l-1.3,1l-1.4,1l-1.3,0.9l-1.5,0.8l-0.9,0.3l-0.7,0.3l-0.9,0.1l-0.7,0.3l-0.9,0.2l-0.9,0l-0.9,0.1l-0.9,0l-0.9,0l-0.7,-0.1l-0.9,0l-0.9,-0.2L616,689.1L615.3,689l-0.9,-0.3l-0.7,-0.3l-1.5,-0.8l-1.5,-0.9l-1.2,-1l-1.3,-1l-1,-1.4L606.1,682l-0.9,-1.4L604.5,679l-0.3,-0.7l-0.3,-0.8l-0.1,-0.9l-0.2,-0.9L603.5,675l-0.2,-0.9l-0.1,-0.9l0,-0.9" class="g2_1" />
<path d="M407.3,672.3l1.7,0l1.7,0l2,0l1.9,0l2.1,0l2,0l2.2,0l2.3,0l2.2,0l2.4,0l2.3,0l2.4,0l4.9,0l5,0l5,0l5.1,0l5,0l4.9,0l2.4,0l2.3,0l2.4,0l2.4,0l2.2,0l2.2,0l2.2,0l2.1,0" class="g2_1" />
<path d="M477.9,677.7l0.3,-0.8l0.3,-0.7l0.2,-0.8l0.1,-0.7l0.2,-0.9l0.1,-0.7l0,-0.8l0,-0.9L479,670.7l-0.2,-0.8l-0.1,-0.7l-0.2,-0.9l-0.3,-0.7l-0.3,-0.8l-0.3,-0.7l12.2,6.2l-12.2,6.1Z" class="g3_1" />
<path d="M517.3,672.3l1.8,0l1.9,0l1.9,0l2.1,0l2.1,0l2.2,0l2.4,0l2.2,0l2.4,0l2.5,0l2.5,0l2.5,0l5,0l5.2,0l5.3,0l5.4,0l5.2,0l5.1,0l2.5,0l2.6,0l2.3,0l2.5,0l2.4,0l2.2,0l2.4,0l2.1,0" class="g2_1" />
<path d="M591.5,677.7l0.3,-0.8l0.1,-0.7l0.3,-0.8l0.2,-0.7l0.1,-0.9l0,-0.7l0,-0.8l0,-0.9l0,-0.7l-0.1,-0.8l-0.2,-0.7l-0.3,-0.9l-0.1,-0.7l-0.3,-0.8l-0.3,-0.7l12,6.2l-12,6.1Z" class="g3_1" />
<path d="M619,686.1L617.7,686l-1.4,-0.5L615,685.1l-1.2,-0.6l-1.2,-0.7l-1,-0.8l-0.9,-0.9l-0.9,-1l-0.9,-1l-0.6,-1.2l-0.6,-1.2l-0.4,-1.2l-0.4,-1.4l-0.2,-1.4l0,-1.4l0,-1.5l0.2,-1.3l0.4,-1.3l0.4,-1.4l0.6,-1.2l0.6,-1.1l0.9,-1.1l0.9,-1l0.9,-0.9l1,-0.8l1.2,-0.7l1.2,-0.6l1.3,-0.4l1.4,-0.3l1.3,-0.3l1.3,0l1.5,0l1.3,0.3l1.4,0.3l1.3,0.4L627,660l1,0.7l1.1,0.8l1,0.9l0.9,1l0.7,1.1l0.8,1.1l0.6,1.2l0.4,1.4l0.3,1.3l0.3,1.3l0,1.5l0,1.4l-0.3,1.4l-0.3,1.4l-0.4,1.2l-0.6,1.2l-0.8,1.2l-0.7,1l-0.9,1l-1,0.9l-1.1,0.8l-1,0.7l-1.2,0.6l-1.3,0.4l-1.4,0.5l-1.3,0.1l-1.5,0.2Z" class="g1_1" />
<path d="M606.7,672.3l0,-1.5l0.2,-1.3l0.4,-1.3l0.4,-1.4l0.6,-1.2l0.6,-1.1l0.9,-1.1l0.9,-1l0.9,-0.9l1,-0.8l1.2,-0.7l1.2,-0.6l1.3,-0.4l1.4,-0.3l1.3,-0.3l1.3,0l1.5,0l1.3,0.3l1.4,0.3l1.3,0.4L627,660l1,0.7l1.1,0.8l1,0.9l0.9,1l0.7,1.1l0.8,1.1l0.6,1.2l0.4,1.4l0.3,1.3l0.3,1.3l0,1.5l0,1.4l-0.3,1.4l-0.3,1.4l-0.4,1.2l-0.6,1.2l-0.8,1.2l-0.7,1l-0.9,1l-1,0.9l-1.1,0.8l-1,0.7l-1.2,0.6l-1.3,0.4l-1.4,0.5l-1.3,0.1l-1.5,0.2L619,686.1L617.7,686l-1.4,-0.5L615,685.1l-1.2,-0.6l-1.2,-0.7l-1,-0.8l-0.9,-0.9l-0.9,-1l-0.9,-1l-0.6,-1.2l-0.6,-1.2l-0.4,-1.2l-0.4,-1.4l-0.2,-1.4l0,-1.4" class="g2_1" />
<path d="M297.2,672.3l1.8,0l1.8,0l1.9,0l1.9,0l2.1,0l2,0l2.3,0l2.2,0l2.2,0l2.4,0l2.3,0l2.4,0l4.9,0l5,0l5.1,0l5,0l4.9,0l5,0l2.4,0l2.3,0l2.4,0l2.4,0l2.2,0l2.2,0l2.2,0l2.1,0" class="g2_1" />
<path d="M368,677.7l0.3,-0.8l0.2,-0.7l0.2,-0.8l0.1,-0.7l0.2,-0.9l0,-0.7l0.1,-0.8L369,671.4l0,-0.7l-0.2,-0.8l-0.1,-0.7l-0.2,-0.9l-0.2,-0.7L368,666.8l-0.3,-0.7l12.1,6.2l-12.1,6.1Z" class="g3_1" />
<path d="M493.8,662.4l0.3,-1.8l0.1,-1.8l0.3,-1.6l0.2,-1.7l0.3,-1.6l0.1,-1.6l0.3,-1.5l0.3,-1.4l0.1,-1.4l0.3,-1.4l0.3,-1.2l0.3,-1.3l0.3,-1.2l0.2,-1l0.3,-1.1l0.3,-1l0.3,-1l0.3,-0.9l0.3,-0.9l0.3,-0.8l0.2,-0.7l0.3,-0.8l0.3,-0.6l0.3,-0.5l0.3,-0.6l0.3,-0.5l0.3,-0.4l0.5,-0.5l0.3,-0.3l0.3,-0.3l0.3,-0.1l0.3,-0.2l0.2,-0.1l0.3,-0.2l0.3,0l0.3,0.2l0.5,0l0.3,0.1l0.3,0.3l0.3,0.2l0.3,0.3l0.3,0.4l0.3,0.5l0.3,0.4l0.3,0.5l0.2,0.6l0.3,0.5l0.5,0.8l0.3,0.7l0.3,0.8l0.3,0.9l0.1,0.9l0.3,0.8l0.3,1.1l0.3,1l0.3,1.1l0.3,1.2l0.3,1.1l0.3,1.4l0.1,1.3l0.3,1.4l0.3,1.3l0.2,1.5l0.3,1.5" class="g2_1" />
<path d="M505.6,651.1l0.8,0.3l0.7,0.1l0.9,0.2l0.7,0.1l0.8,0l0.7,0l0.9,0l0.7,-0.1l0.8,-0.2l0.7,-0.1l0.8,-0.2l0.7,-0.3l0.7,-0.3l0.8,-0.3l0.6,-0.4l0.7,-0.5l-4.4,13Z" class="g3_1" />
</svg>