<svg width="30.851" height="30.851" xmlns="http://www.w3.org/2000/svg">

 <g>
  <title>background</title>
  <rect fill="none" id="canvas_background" height="402" width="582" y="-1" x="-1"/>
 </g>
 <g>
  <title>Layer 1</title>
  <g id="svg_1">
   <g id="c43_terminal">
    <path id="svg_2" fill="#c732a7" d="m28.645,2.203l-26.441,0c-1.217,0 -2.204,0.985 -2.204,2.202l0,22.038c0,1.216 0.987,2.204 2.204,2.204l26.441,0c1.215,0 2.206,-0.988 2.206,-2.204l0,-22.038c0,-1.217 -0.992,-2.202 -2.206,-2.202zm-21.483,1.654c0.607,0 1.102,0.491 1.102,1.103c0,0.607 -0.494,1.098 -1.102,1.098c-0.611,0 -1.104,-0.49 -1.104,-1.098c0.001,-0.611 0.493,-1.103 1.104,-1.103zm-3.307,0c0.608,0 1.102,0.491 1.102,1.103c0,0.607 -0.493,1.098 -1.102,1.098s-1.103,-0.49 -1.103,-1.098c0.001,-0.611 0.494,-1.103 1.103,-1.103zm24.79,22.587l-26.441,0l0,-18.709l26.441,0l0,18.709z"/>
    <polygon id="svg_3" fill="#c732a7" points="12.351,12.264 5.275,9.028 5.275,10.589 10.746,12.929 10.746,12.958 5.275,15.294 5.275,16.854 12.351,13.618       "/>
   </g>
   <g id="Capa_1_86_"/>
  </g>
  <g id="svg_5"/>
  <g id="svg_6"/>
  <g id="svg_7"/>
  <g id="svg_8"/>
  <g id="svg_9"/>
  <g id="svg_10"/>
  <g id="svg_11"/>
  <g id="svg_12"/>
  <g id="svg_13"/>
  <g id="svg_14"/>
  <g id="svg_15"/>
  <g id="svg_16"/>
  <g id="svg_17"/>
  <g id="svg_18"/>
  <g id="svg_19"/>
  <text xml:space="preserve" text-anchor="start" font-family="Arvo, sans-serif" font-size="10" id="svg_20" y="16.773812" x="13.290665" stroke-width="0" fill="#c732a7">VP</text>
  <text xml:space="preserve" text-anchor="start" font-family="Arvo, sans-serif" font-size="10" id="svg_21" y="23.290656" x="4.751353" stroke-width="0" fill="#c732a7">.......</text>
 </g>
</svg>