<?xml version="1.0" encoding="UTF-8" standalone="no"?>
<!DOCTYPE svg PUBLIC "-//W3C//DTD SVG 1.1//EN"
"http://www.w3.org/Graphics/SVG/1.1/DTD/svg11.dtd">
<svg viewBox="0 0 818 1066" version="1.1" xmlns="http://www.w3.org/2000/svg" xmlns:xlink="http://www.w3.org/1999/xlink">
<defs>
<style type="text/css"><![CDATA[
.g1_41{
fill: #9A9A9A;
}
.g2_41{
}
]]></style>
</defs>
<path d="M79,82.1l0,-1.5l639.4,0l0,1.5Z" class="g1_41" />
<path d="M79,113.1l0,-1.5l639.4,0l0,1.5Z" class="g1_41" />
<path d="M537.2,154.3l0,-16.8l1.5,0l0,16.8Z" class="g2_41" />
<path d="M135.7,154.9l0,-1.5l537.6,0l0,1.5Z" class="g2_41" />
<path d="M135.5,171l0,-16.8l1.5,0l0,16.8Z" class="g2_41" />
<path d="M537.2,171l0,-16.8l1.5,0l0,16.8Z" class="g2_41" />
<path d="M672.9,171l0,-16.8l1.5,0l0,16.8Z" class="g2_41" />
<path d="M135.5,187.7l0,-16.9l1.5,0l0,16.9Z" class="g2_41" />
<path d="M537.2,187.7l0,-16.9l1.5,0l0,16.9Z" class="g2_41" />
<path d="M672.9,187.7l0,-16.9l1.5,0l0,16.9Z" class="g2_41" />
<path d="M135.5,204.6l0,-16.9l1.5,0l0,16.9Z" class="g2_41" />
<path d="M537.2,204.6l0,-16.9l1.5,0l0,16.9Z" class="g2_41" />
<path d="M672.9,204.6l0,-16.9l1.5,0l0,16.9Z" class="g2_41" />
<path d="M135.5,221.3l0,-16.9l1.5,0l0,16.9Z" class="g2_41" />
<path d="M537.2,221.3l0,-16.9l1.5,0l0,16.9Z" class="g2_41" />
<path d="M672.9,221.3l0,-16.9l1.5,0l0,16.9Z" class="g2_41" />
<path d="M135.5,238l0,-16.9l1.5,0l0,16.9Z" class="g2_41" />
<path d="M537.2,238l0,-16.9l1.5,0l0,16.9Z" class="g2_41" />
<path d="M672.9,238l0,-16.9l1.5,0l0,16.9Z" class="g2_41" />
<path d="M135.7,238.7l0,-1.5l537.6,0l0,1.5Z" class="g2_41" />
<path d="M135.5,254.8l0,-16.8l1.5,0l0,16.8Z" class="g2_41" />
<path d="M537.2,254.8l0,-16.8l1.5,0l0,16.8Z" class="g2_41" />
<path d="M672.9,254.8l0,-16.8l1.5,0l0,16.8Z" class="g2_41" />
<path d="M135.5,271.5l0,-16.9l1.5,0l0,16.9Z" class="g2_41" />
<path d="M537.2,271.5l0,-16.9l1.5,0l0,16.9Z" class="g2_41" />
<path d="M672.9,271.5l0,-16.9l1.5,0l0,16.9Z" class="g2_41" />
<path d="M135.5,288.2l0,-16.9l1.5,0l0,16.9Z" class="g2_41" />
<path d="M537.2,288.2l0,-16.9l1.5,0l0,16.9Z" class="g2_41" />
<path d="M672.9,288.2l0,-16.9l1.5,0l0,16.9Z" class="g2_41" />
<path d="M135.5,305.1l0,-16.9l1.5,0l0,16.9Z" class="g2_41" />
<path d="M537.2,305.1l0,-16.9l1.5,0l0,16.9Z" class="g2_41" />
<path d="M672.9,305.1l0,-16.9l1.5,0l0,16.9Z" class="g2_41" />
<path d="M135.5,321.7l0,-16.8l1.5,0l0,16.8Z" class="g2_41" />
<path d="M537.2,321.7l0,-16.8l1.5,0l0,16.8Z" class="g2_41" />
<path d="M672.9,321.7l0,-16.8l1.5,0l0,16.8Z" class="g2_41" />
<path d="M135.7,322.3l0,-1.5l537.6,0l0,1.5Z" class="g2_41" />
<path d="M135.5,338.4l0,-16.8l1.5,0l0,16.8Z" class="g2_41" />
<path d="M537.2,338.4l0,-16.8l1.5,0l0,16.8Z" class="g2_41" />
<path d="M672.9,338.4l0,-16.8l1.5,0l0,16.8Z" class="g2_41" />
<path d="M135.5,355.3l0,-16.9l1.5,0l0,16.9Z" class="g2_41" />
<path d="M537.2,355.3l0,-16.9l1.5,0l0,16.9Z" class="g2_41" />
<path d="M672.9,355.3l0,-16.9l1.5,0l0,16.9Z" class="g2_41" />
<path d="M135.5,372l0,-16.9l1.5,0l0,16.9Z" class="g2_41" />
<path d="M537.2,372l0,-16.9l1.5,0l0,16.9Z" class="g2_41" />
<path d="M672.9,372l0,-16.9l1.5,0l0,16.9Z" class="g2_41" />
<path d="M135.5,388.7l0,-16.9l1.5,0l0,16.9Z" class="g2_41" />
<path d="M537.2,388.7l0,-16.9l1.5,0l0,16.9Z" class="g2_41" />
<path d="M672.9,388.7l0,-16.9l1.5,0l0,16.9Z" class="g2_41" />
<path d="M135.5,405.5l0,-16.8l1.5,0l0,16.8Z" class="g2_41" />
<path d="M537.2,405.5l0,-16.8l1.5,0l0,16.8Z" class="g2_41" />
<path d="M672.9,405.5l0,-16.8l1.5,0l0,16.8Z" class="g2_41" />
<path d="M135.7,406.1l0,-1.5l537.6,0l0,1.5Z" class="g2_41" />
<path d="M135.5,422.2l0,-16.8l1.5,0l0,16.8Z" class="g2_41" />
<path d="M537.2,422.2l0,-16.8l1.5,0l0,16.8Z" class="g2_41" />
<path d="M672.9,422.2l0,-16.8l1.5,0l0,16.8Z" class="g2_41" />
<path d="M135.5,438.9l0,-16.9l1.5,0l0,16.9Z" class="g2_41" />
<path d="M537.2,438.9l0,-16.9l1.5,0l0,16.9Z" class="g2_41" />
<path d="M672.9,438.9l0,-16.9l1.5,0l0,16.9Z" class="g2_41" />
<path d="M135.5,455.8l0,-16.9l1.5,0l0,16.9Z" class="g2_41" />
<path d="M537.2,455.8l0,-16.9l1.5,0l0,16.9Z" class="g2_41" />
<path d="M672.9,455.8l0,-16.9l1.5,0l0,16.9Z" class="g2_41" />
<path d="M135.5,472.5l0,-16.9l1.5,0l0,16.9Z" class="g2_41" />
<path d="M537.2,472.5l0,-16.9l1.5,0l0,16.9Z" class="g2_41" />
<path d="M672.9,472.5l0,-16.9l1.5,0l0,16.9Z" class="g2_41" />
<path d="M135.5,489.1l0,-16.8l1.5,0l0,16.8Z" class="g2_41" />
<path d="M537.2,489.1l0,-16.8l1.5,0l0,16.8Z" class="g2_41" />
<path d="M672.9,489.1l0,-16.8l1.5,0l0,16.8Z" class="g2_41" />
<path d="M135.7,489.9l0,-1.5l537.6,0l0,1.5Z" class="g2_41" />
<path d="M135.5,506l0,-16.9l1.5,0l0,16.9Z" class="g2_41" />
<path d="M537.2,506l0,-16.9l1.5,0l0,16.9Z" class="g2_41" />
<path d="M672.9,506l0,-16.9l1.5,0l0,16.9Z" class="g2_41" />
<path d="M135.5,522.7l0,-16.9l1.5,0l0,16.9Z" class="g2_41" />
<path d="M537.2,522.7l0,-16.9l1.5,0l0,16.9Z" class="g2_41" />
<path d="M672.9,522.7l0,-16.9l1.5,0l0,16.9Z" class="g2_41" />
<path d="M135.5,539.4l0,-16.9l1.5,0l0,16.9Z" class="g2_41" />
<path d="M537.2,539.4l0,-16.9l1.5,0l0,16.9Z" class="g2_41" />
<path d="M672.9,539.4l0,-16.9l1.5,0l0,16.9Z" class="g2_41" />
<path d="M135.7,540.1l0,-1.5l537.6,0l0,1.5Z" class="g2_41" />
<path d="M79,551.7l0,-1.6l511.6,0l0,1.6Z" class="g2_41" />
<path d="M79,583.2l0,-1.5l511.6,0l0,1.5Z" class="g2_41" />
<path d="M79,721.1l0,-1.5l511.6,0l0,1.5Z" class="g2_41" />
<path d="M79,748l0,-1.5l511.6,0l0,1.5Z" class="g2_41" />
<path d="M79,982.2l0,-1.5l639.4,0l0,1.5Z" class="g1_41" />
<path d="M79,1009.7l0,-1.5l639.4,0l0,1.5Z" class="g1_41" />
</svg>