<?xml version="1.0" encoding="UTF-8" standalone="no"?>
<!DOCTYPE svg PUBLIC "-//W3C//DTD SVG 1.1//EN"
"http://www.w3.org/Graphics/SVG/1.1/DTD/svg11.dtd">
<svg viewBox="0 0 818 1066" version="1.1" xmlns="http://www.w3.org/2000/svg" xmlns:xlink="http://www.w3.org/1999/xlink">
<defs>
<style type="text/css"><![CDATA[
.g1_50{
fill: #9A9A9A;
}
.g2_50{
fill: none;
stroke: #000000;
stroke-width: 0.7638889;
stroke-linecap: butt;
stroke-linejoin: miter;
stroke-miterlimit: 4;
}
.g3_50{
}
]]></style>
</defs>
<path d="M79,82.1l0,-1.5l639.4,0l0,1.5Z" class="g1_50" />
<path d="M79,113.1l0,-1.5l639.4,0l0,1.5Z" class="g1_50" />
<path d="M212.7,378c14.3,0,24.4,-11.7,24.4,-20.5c0,-8.8,-10.1,-19,-24.4,-19c-14.3,0,-24.3,10.2,-24.3,19c0,8.8,10,20.5,24.3,20.5ZM182.9,359c0,-23.9,25.6,-35.9,59.1,-35.9c33.4,0,68.2,13.5,68.2,35.9c0,22.3,-34.8,35.9,-68.2,35.9c-33.5,0,-59.1,-13.6,-59.1,-35.9Z" class="g2_50" />
<path d="M237.8,456.9C142.9,456.9,120,417.4,120,318.3c0,-89,54.4,-99.5,136.2,-99.5c75.5,0,104.2,18.9,104.2,99.5c0,106.6,-43.5,138.6,-122.6,138.6Z" class="g2_50" />
<path d="M241.6,473.1C132.9,479.4,112.7,436.4,112.7,319.8c0,-130.4,57.7,-133.5,142.7,-133.5c85.3,0,115.7,22.8,115.2,133.5C370,446,346.8,467,241.6,473.1Z" class="g2_50" />
<path d="M315.6,140.8c191.7,0,191.7,2.4,191.6,167.5c0,180.8,0.1,180.8,-205.6,181.3c-50.3,0.1,-87.6,0.2,-116.8,0C115.6,489.2,97.7,437.3,97.8,314C97.9,140.7,97.9,140.7,315.6,140.8Zm61.9,0.5l0.1,347.5M213.4,194.8c25.3,0,40.9,7.8,40.9,115.6c0,98.1,-15.6,106.3,-40.9,106.4c-36.6,0.1,-44.4,-25,-44.3,-106.4c0.2,-107.8,19,-115.6,44.3,-115.6Zm-3,33c19.1,0,30.8,6.2,30.8,92.8c0,78.8,-11.7,85.4,-30.8,85.5C182.8,406.2,177,386,177,320.6c0.2,-86.6,14.4,-92.8,33.4,-92.8Zm17.1,196.5c-54.1,0,-80.9,-26.2,-80.9,-73c0,-54.9,44.8,-55,99,-55c58.2,0,74.8,6.8,74.8,55c0,48.5,-34.4,73,-92.9,73Zm4.8,11.6C165,435.9,131.7,401.4,131.7,339.6c0,-72.4,55.7,-72.6,123.1,-72.6c72.4,0,93,9,93,72.6c0,63.9,-42.7,96.3,-115.5,96.3Z" class="g2_50" />
<path d="M79,525.5l0,-1.6l511.6,0l0,1.6Z" class="g3_50" />
<path d="M79,557l0,-1.5l511.6,0l0,1.5Z" class="g3_50" />
<path d="M79,982.2l0,-1.5l639.4,0l0,1.5Z" class="g1_50" />
<path d="M79,1009.7l0,-1.5l639.4,0l0,1.5Z" class="g1_50" />
</svg>