<?xml version="1.0" encoding="UTF-8" standalone="no"?>
<!DOCTYPE svg PUBLIC "-//W3C//DTD SVG 1.1//EN"
"http://www.w3.org/Graphics/SVG/1.1/DTD/svg11.dtd">
<svg viewBox="0 0 818 1066" version="1.1" xmlns="http://www.w3.org/2000/svg" xmlns:xlink="http://www.w3.org/1999/xlink">
<defs>
<style type="text/css"><![CDATA[
.g1_40{
fill: #9A9A9A;
}
.g2_40{
}
]]></style>
</defs>
<path d="M79,82.1l0,-1.5l639.4,0l0,1.5Z" class="g1_40" />
<path d="M79,113.1l0,-1.5l639.4,0l0,1.5Z" class="g1_40" />
<path d="M563.4,154.3l0,-16.8l1.6,0l0,16.8Z" class="g2_40" />
<path d="M563.4,171l0,-16.8l1.6,0l0,16.8Z" class="g2_40" />
<path d="M563.4,187.7l0,-16.9l1.6,0l0,16.9Z" class="g2_40" />
<path d="M563.4,204.6l0,-16.9l1.6,0l0,16.9Z" class="g2_40" />
<path d="M563.4,221.3l0,-16.9l1.6,0l0,16.9Z" class="g2_40" />
<path d="M563.4,238l0,-16.9l1.6,0l0,16.9Z" class="g2_40" />
<path d="M563.4,254.8l0,-16.8l1.6,0l0,16.8Z" class="g2_40" />
<path d="M563.4,271.5l0,-16.9l1.6,0l0,16.9Z" class="g2_40" />
<path d="M563.4,288.2l0,-16.9l1.6,0l0,16.9Z" class="g2_40" />
<path d="M563.4,305.1l0,-16.9l1.6,0l0,16.9Z" class="g2_40" />
<path d="M563.4,321.7l0,-16.8l1.6,0l0,16.8Z" class="g2_40" />
<path d="M563.4,338.4l0,-16.8l1.6,0l0,16.8Z" class="g2_40" />
<path d="M563.4,355.3l0,-16.9l1.6,0l0,16.9Z" class="g2_40" />
<path d="M563.4,372l0,-16.9l1.6,0l0,16.9Z" class="g2_40" />
<path d="M563.4,388.7l0,-16.9l1.6,0l0,16.9Z" class="g2_40" />
<path d="M563.4,405.5l0,-16.8l1.6,0l0,16.8Z" class="g2_40" />
<path d="M563.4,422.2l0,-16.8l1.6,0l0,16.8Z" class="g2_40" />
<path d="M563.4,438.9l0,-16.9l1.6,0l0,16.9Z" class="g2_40" />
<path d="M563.4,455.8l0,-16.9l1.6,0l0,16.9Z" class="g2_40" />
<path d="M563.4,472.5l0,-16.9l1.6,0l0,16.9Z" class="g2_40" />
<path d="M563.4,489.1l0,-16.8l1.6,0l0,16.8Z" class="g2_40" />
<path d="M563.4,506l0,-16.9l1.6,0l0,16.9Z" class="g2_40" />
<path d="M563.4,522.7l0,-16.9l1.6,0l0,16.9Z" class="g2_40" />
<path d="M563.4,539.4l0,-16.9l1.6,0l0,16.9Z" class="g2_40" />
<path d="M563.4,556.3l0,-16.9l1.6,0l0,16.9Z" class="g2_40" />
<path d="M563.4,572.9l0,-16.8l1.6,0l0,16.8Z" class="g2_40" />
<path d="M563.4,589.6l0,-16.8l1.6,0l0,16.8Z" class="g2_40" />
<path d="M563.4,606.5l0,-16.9l1.6,0l0,16.9Z" class="g2_40" />
<path d="M563.4,623.2l0,-16.9l1.6,0l0,16.9Z" class="g2_40" />
<path d="M563.4,639.9l0,-16.9l1.6,0l0,16.9Z" class="g2_40" />
<path d="M563.4,656.7l0,-16.8l1.6,0l0,16.8Z" class="g2_40" />
<path d="M79,668.8l0,-1.5l511.6,0l0,1.5Z" class="g2_40" />
<path d="M79,717.2l0,-1.5l511.6,0l0,1.5Z" class="g2_40" />
<path d="M79,982.2l0,-1.5l639.4,0l0,1.5Z" class="g1_40" />
<path d="M79,1009.7l0,-1.5l639.4,0l0,1.5Z" class="g1_40" />
</svg>