<?xml version="1.0" encoding="UTF-8" standalone="no"?>
<!DOCTYPE svg PUBLIC "-//W3C//DTD SVG 1.1//EN"
"http://www.w3.org/Graphics/SVG/1.1/DTD/svg11.dtd">
<svg viewBox="0 0 818 1066" version="1.1" xmlns="http://www.w3.org/2000/svg" xmlns:xlink="http://www.w3.org/1999/xlink">
<defs>
<style type="text/css"><![CDATA[
.g1_23{
fill: #9A9A9A;
}
.g2_23{
fill: none;
stroke: #000000;
stroke-width: 0.7638889;
stroke-linecap: butt;
stroke-linejoin: miter;
stroke-miterlimit: 4;
}
.g3_23{
}
]]></style>
</defs>
<path d="M79,82.1l0,-1.5l639.4,0l0,1.5Z" class="g1_23" />
<path d="M79,113.1l0,-1.5l639.4,0l0,1.5Z" class="g1_23" />
<path d="M227.7,178.3c-6.7,0,-12.2,-5.4,-12.2,-12.2c0,-6.7,5.5,-12.2,12.2,-12.2c6.8,0,12.2,5.5,12.2,12.2c0,6.8,-5.4,12.2,-12.2,12.2ZM212,159c-18.5,-11.2,-30.8,-5.1,-40.8,2.1" class="g2_23" />
<path d="M206,159.8l3.1,-2.4l0.5,-3.7l5.7,7.2L206,159.8Z" class="g3_23" />
<path d="M227.3,221.2c6.8,-0.7,11.7,-6.6,11.1,-13.3c-0.7,-6.8,-6.6,-11.7,-13.3,-11.1c-6.8,0.6,-11.7,6.6,-11.1,13.3c0.7,6.7,6.6,11.7,13.3,11.1ZM210.2,203.1c-18.4,-5.5,-27,-4.5,-38.8,-0.2" class="g2_23" />
<path d="M204.7,205.6l2.2,-3.2l-0.5,-3.7l7.6,5.2l-9.3,1.7Z" class="g3_23" />
<path d="M277,250.5c6.7,0,12.2,-5.5,12.2,-12.2c0,-6.8,-5.5,-12.2,-12.2,-12.2c-6.8,0,-12.2,5.4,-12.2,12.2c0,6.7,5.4,12.2,12.2,12.2Z" class="g2_23" />
<path d="M275.9,265.8c6.7,0,12.2,5.5,12.2,12.2c0,6.8,-5.5,12.3,-12.2,12.3c-6.8,0,-12.3,-5.5,-12.3,-12.3c0,-6.7,5.5,-12.2,12.3,-12.2Z" class="g2_23" />
<path d="M213.3,274.4c6.8,-0.6,11.7,-6.6,11.1,-13.3c-0.7,-6.7,-6.6,-11.7,-13.3,-11c-6.7,0.6,-11.7,6.6,-11.1,13.3c0.7,6.7,6.6,11.6,13.3,11Z" class="g2_23" />
<path d="M190.7,258.9l2.2,-3.2L192.4,252l7.6,5.2l-9.3,1.7Z" class="g3_23" />
<path d="M331.4,267.8c6.7,-0.6,11.6,-6.5,11,-13.3c-0.6,-6.7,-6.6,-11.6,-13.3,-11c-6.7,0.6,-11.6,6.6,-11,13.3c0.6,6.7,6.6,11.7,13.3,11Z" class="g2_23" />
<path d="M308.2,252.3l2.4,-3.1l-0.4,-3.8l7.3,5.6l-9.3,1.3Z" class="g3_23" />
<path d="M309,261.7l2.4,3l-0.2,3.7l7.1,-5.8L309,261.7Z" class="g3_23" />
<path d="M229,271.4c7.1,-2,13.8,1,20.9,-1c1.5,-0.5,2.5,-2.6,3.6,-3.1c1.5,-0.5,4,0.5,5.6,-0.5c1,-1,2,-2,3,-2.5c1.5,-0.5,4.1,0.5,5.6,-0.5c3.1,-1.6,7.2,-3.6,10.2,-2.1c3.6,2.1,8.2,3.6,10.7,7.7c1,1.5,1,4.6,2,7.1c0.5,3.1,0.5,6.1,-0.5,8.7c-1.5,2,-2,4,-3.5,5.6c-1.6,2.5,-5.1,1,-7.7,1.5c-8.1,1.5,-15.8,0,-23.4,-3.1c-2.6,-1,-5.1,-3,-8.2,-3c-0.5,-0.5,-1.5,-1.5,-1.5,-2.6c-2,0,-4.1,0,-5.1,-1.5c-0.5,-1,-0.5,-3,-1,-3c-5.6,-3.6,-10.2,-6.2,-15.8,-9.7M231,244.9c3.1,-0.5,6.7,0,7.7,3.6c8.6,0.5,17.3,0.5,26.5,2c1.5,0.5,2.5,2.6,4,3.1c5.7,1.5,10.7,-1.5,15.8,-3.6c1.6,-1,2.6,-3,4.1,-4.6c0.5,-0.5,2,0.5,2,-0.5c0,-4,0.6,-7.6,-0.5,-11.7c-0.5,-4.1,-3,-7.6,-6.1,-8.6c-5.1,-1.6,-11.2,-0.6,-16.3,2c-3.5,2,-8.1,0,-11.7,1.5c-4.1,2.1,-8.1,3.1,-12.7,3.6c-1,0,-2.6,0.5,-3.6,1.5c-8.6,8.7,-10.7,16.3,-18.8,19.4m-49.5,0.2c14.2,-2.6,22.9,3.5,22.9,3.5m117.7,-6.8l-22.9,-7.1M313,264.3l-24.9,7.6" class="g2_23" />
<path d="M579.5,278.7c6.7,-0.6,11.6,-6.6,11,-13.3c-0.6,-6.7,-6.6,-11.7,-13.3,-11c-6.7,0.6,-11.7,6.6,-11.1,13.3c0.7,6.7,6.6,11.6,13.4,11Zm-17.2,-18c-18.4,-5.6,-27,-4.5,-38.8,-0.3" class="g2_23" />
<path d="M556.8,263.2L559,260l-0.5,-3.7l7.6,5.2l-9.3,1.7Z" class="g3_23" />
<path d="M652.2,276.9c6.7,-0.7,11.6,-6.6,11,-13.3c-0.6,-6.8,-6.6,-11.7,-13.3,-11.1c-6.7,0.6,-11.6,6.6,-11,13.3c0.6,6.7,6.6,11.7,13.3,11.1Z" class="g2_23" />
<path d="M631.4,253.8l3.2,-2.3l0.7,-3.6l5.3,7.5l-9.2,-1.6Z" class="g3_23" />
<path d="M592.2,266.1l43.2,-1m5.9,14c-29,22.5,-61.4,-11,-52.2,-3.3m-1,-19.9c14.7,-11.2,34.6,-15.8,51.4,-2" class="g2_23" />
<path d="M639.7,285.2l-1.5,-3.5l-3.5,-1.5l8.4,-3.7l-3.4,8.7Z" class="g3_23" />
<path d="M629.5,269.2l1.5,-3.6l-1.3,-3.5l8.5,3.4l-8.7,3.7Z" class="g3_23" />
<path d="M221.6,342.8c6.8,0,12.2,-5.5,12.2,-12.3c0,-6.7,-5.4,-12.2,-12.2,-12.2c-6.7,0,-12.2,5.5,-12.2,12.2c0,6.8,5.5,12.3,12.2,12.3ZM170.8,330.6c23.3,-13.5,19.2,-2,32.8,-12.3c8.7,-6.6,8.2,4,14.4,-8.1c3.3,-6.4,7.6,3.8,11.2,4c6.7,0.5,8.3,12.6,6.2,23.2c-1,5.2,-3.1,7.7,-7,7.7c-5.7,0.1,-5.2,4.9,-11.2,7c-9.2,3.2,-6.4,-5.1,-17.5,-7.8c-11.2,-2.7,-3.3,0.5,-17.7,-19.2" class="g2_23" />
<path d="M299.3,319.9c6.8,0,12.3,5.5,12.3,12.3c0,6.7,-5.5,12.2,-12.3,12.2c-6.7,0,-12.2,-5.5,-12.2,-12.2c0,-6.8,5.5,-12.3,12.2,-12.3ZM235,331.1c20.2,11.4,21.7,-10.3,39.4,12.3c8.8,11.4,8.2,-0.4,17.3,8.1c4.4,4.2,9.2,-3.7,13.5,-4c7.9,-0.4,9.9,-12.5,7.4,-23.1c-1.3,-5.3,-4.1,-8,-8.5,-7.8c-6.8,0.4,-6.7,-5.9,-13.8,-8.5c-10.1,-3.6,-6.8,9.8,-22.1,9.9c-9.9,0.1,-9.2,8.3,-19.7,16.5" class="g2_23" />
<path d="M312.7,414c6.7,0.5,12.6,-4.6,13.1,-11.3c0.5,-6.7,-4.6,-12.6,-11.3,-13.1c-6.8,-0.5,-12.6,4.6,-13.1,11.3c-0.5,6.8,4.6,12.6,11.3,13.1Zm-59,-0.4c1.1,0,2.1,-0.1,3,-0.4c5.3,-1.3,9.2,-6.1,9.2,-11.8c0,-6.8,-5.4,-12.2,-12.2,-12.2c-6.7,0,-12.2,5.4,-12.2,12.2c0,6.7,5.5,12.2,12.2,12.2Z" class="g2_23" />
<path d="M297.3,387.4l3.4,-1.8l1.3,-3.5l4.2,8.2l-8.9,-2.9Z" class="g3_23" />
<path d="M291,405.1l1.2,-3.7L290.7,398l8.7,2.9l-8.4,4.2Z" class="g3_23" />
<path d="M269.8,401.2l28,0M166.4,400.7c16.8,-13.3,84,-48.4,135.4,-15.3m8.2,30c-5.1,8.7,-23.4,7.7,-36.7,11.2c-13.2,3.6,-76.9,3.1,-83,-5.6c-6.1,-8.6,-3.5,-14.4,0.8,-17.4c19,-13.1,21.6,10.4,39.4,-12.3c8.8,-11.3,9.8,4,17.2,-8.1c3.9,-6.4,9.2,3.8,13.5,4c8,0.5,10,12.6,7.5,23.2c-1.3,5.2,-3.8,7.7,-8.5,7.7c-6.9,0.1,-6.7,2.9,-13.9,5.5c-10.1,3.5,-14.1,-5.6,-27.9,-3.8c-10,1.3,-10.6,-17.1,-13.8,-19.6" class="g2_23" />
<path d="M79,441.3l0,-1.5l511.6,0l0,1.5Z" class="g3_23" />
<path d="M79,472.8l0,-1.5l511.6,0l0,1.5Z" class="g3_23" />
<path d="M369.2,546.5c6.8,0,12.3,-5.4,12.3,-12.2c0,-6.7,-5.5,-12.2,-12.3,-12.2c-6.7,0,-12.2,5.5,-12.2,12.2c0,6.8,5.5,12.2,12.2,12.2Z" class="g2_23" />
<path d="M353.6,526.4c-15.5,-10.6,-42.5,-11.9,-58,1.7" class="g2_23" />
<path d="M347.7,527.3l3,-2.5l0.5,-3.7l5.8,7.1l-9.3,-0.9Z" class="g3_23" />
<path d="M283.6,546.5c6.8,0,12.3,-5.4,12.3,-12.2c0,-6.7,-5.5,-12.2,-12.3,-12.2c-6.7,0,-12.2,5.5,-12.2,12.2c0,6.8,5.5,12.2,12.2,12.2Z" class="g2_23" />
<path d="M268,526.4c-15.5,-10.6,-42.6,-11.9,-58,1.7" class="g2_23" />
<path d="M262.1,527.2l3,-2.4l0.5,-3.7l5.8,7.1l-9.3,-1Z" class="g3_23" />
<path d="M369.6,679c6.7,0,12.2,-5.5,12.2,-12.2c0,-6.8,-5.5,-12.3,-12.2,-12.3c-6.8,0,-12.2,5.5,-12.2,12.3c0,6.7,5.4,12.2,12.2,12.2ZM209,667.6c27.7,-16,66.3,-7,76.5,-13.7c15.5,-10.3,40.8,5.5,53.2,-6.6c10.6,-10.3,20.5,3.6,31.7,4c13.3,0.5,17.8,19.1,12.4,32.3c-2.8,6.6,-7.7,13.1,-19.5,12.6c-11.2,-0.5,-13.2,-6.9,-33,-3c-22.8,4.4,-18.6,-23.7,-58.9,-9.3c-16.2,5.8,-33.1,-24.7,-38.5,-24.4" class="g2_23" />
<path d="M79,982.2l0,-1.5l639.4,0l0,1.5Z" class="g1_23" />
<path d="M79,1009.7l0,-1.5l639.4,0l0,1.5Z" class="g1_23" />
</svg>