<?xml version="1.0" encoding="UTF-8" standalone="no"?>
<!DOCTYPE svg PUBLIC "-//W3C//DTD SVG 1.1//EN"
"http://www.w3.org/Graphics/SVG/1.1/DTD/svg11.dtd">
<svg viewBox="0 0 818 1066" version="1.1" xmlns="http://www.w3.org/2000/svg" xmlns:xlink="http://www.w3.org/1999/xlink">
<defs>
<style type="text/css"><![CDATA[
.g1_22{
fill: #9A9A9A;
}
.g2_22{
fill: none;
stroke: #000000;
stroke-width: 0.7638889;
stroke-linecap: butt;
stroke-linejoin: miter;
stroke-miterlimit: 4;
}
.g3_22{
}
]]></style>
</defs>
<path d="M79,82.1l0,-1.5l639.4,0l0,1.5Z" class="g1_22" />
<path d="M79,113.1l0,-1.5l639.4,0l0,1.5Z" class="g1_22" />
<path d="M220.9,464.4c-6.7,0,-12.2,-5.5,-12.2,-12.2c0,-6.8,5.5,-12.2,12.2,-12.2c6.8,0,12.2,5.4,12.2,12.2c0,6.7,-5.4,12.2,-12.2,12.2ZM385.5,444.3c14.9,-10.5,30.8,-10.3,43.5,1.8" class="g2_22" />
<path d="M391.4,445.1l-3,-2.4L387.9,439l-5.8,7.1l9.3,-1Z" class="g3_22" />
<path d="M349.7,459.8c-33.3,22.8,-82.6,22.9,-116.8,-1.5" class="g2_22" />
<path d="M343.8,459l3,2.4l0.6,3.7l5.8,-7.1l-9.4,1Z" class="g3_22" />
<path d="M294.3,464.4c-6.8,0,-12.2,-5.5,-12.2,-12.2c0,-6.8,5.4,-12.2,12.2,-12.2c6.7,0,12.2,5.4,12.2,12.2c0,6.7,-5.5,12.2,-12.2,12.2Zm-58,-20c14.9,-10.5,33,-10.4,45.8,1.7" class="g2_22" />
<path d="M242.2,445.2l-3,-2.4l-0.6,-3.7l-5.8,7.1l9.4,-1Z" class="g3_22" />
<path d="M309.7,444.6c14.9,-10.5,30.7,-10.4,43.5,1.7" class="g2_22" />
<path d="M315.6,445.4l-3,-2.4L312,439.2l-5.8,7.2l9.4,-1Z" class="g3_22" />
<path d="M587.8,464.4c6.8,0,12.2,-5.5,12.2,-12.2C600,445.4,594.6,440,587.8,440c-6.7,0,-12.2,5.4,-12.2,12.2c0,6.7,5.5,12.2,12.2,12.2ZM496.4,444.8C481.5,434.3,465.7,434.1,453,446.2" class="g2_22" />
<path d="M490.5,445.6l3,-2.5l0.5,-3.7l5.8,7.1l-9.3,-0.9Z" class="g3_22" />
<path d="M572.4,444.3C557.5,433.8,541.7,434,529,446" class="g2_22" />
<path d="M566.5,445.1l3,-2.4l0.6,-3.7l5.8,7.1l-9.4,-1Z" class="g3_22" />
<path d="M367.7,463.6c-6.4,0,-11.5,-5.1,-11.5,-11.4c0,-6.3,5.1,-11.5,11.5,-11.5c6.3,0,11.4,5.2,11.4,11.5c0,6.3,-5.1,11.4,-11.4,11.4Zm0,3.1c-8,0,-14.5,-6.5,-14.5,-14.5c0,-8,6.5,-14.5,14.5,-14.5c8,0,14.5,6.5,14.5,14.5c0,8,-6.5,14.5,-14.5,14.5Zm146.7,-3.1c-6.3,0,-11.4,-5.1,-11.4,-11.4c0,-6.3,5.1,-11.5,11.4,-11.5c6.4,0,11.5,5.2,11.5,11.5c0,6.3,-5.1,11.4,-11.5,11.4Zm0,3.1c-8,0,-14.5,-6.5,-14.5,-14.5c0,-8,6.5,-14.5,14.5,-14.5c8.1,0,14.6,6.5,14.6,14.5c0,8,-6.5,14.5,-14.6,14.5Zm18.1,-7.2c14.9,10.5,30.5,10.6,43.2,-1.4" class="g2_22" />
<path d="M538.4,458.7l-3.1,2.5l-0.5,3.7L529,457.8l9.4,0.9Z" class="g3_22" />
<path d="M430,432.7l3.8,0.2l2.9,-2.5l-0.4,9.2L430,432.7Z" class="g3_22" />
<path d="M422.6,403.4L435,436.2m6.1,28.2c6.7,0,12.2,-5.5,12.2,-12.2c0,-6.8,-5.5,-12.2,-12.2,-12.2c-6.8,0,-12.3,5.4,-12.3,12.2c0,6.7,5.5,12.2,12.3,12.2Z" class="g2_22" />
<path d="M265.3,847.6c-6.7,0,-12.2,-5.5,-12.2,-12.3c0,-6.7,5.5,-12.2,12.2,-12.2c6.8,0,12.2,5.5,12.2,12.2c0,6.8,-5.4,12.3,-12.2,12.3ZM249.6,828.2c-18.5,-11.2,-30.8,-5.1,-40.8,2.1" class="g2_22" />
<path d="M243.6,829.1l3,-2.4l0.6,-3.7l5.7,7.1l-9.3,-1Z" class="g3_22" />
<path d="M79,982.2l0,-1.5l639.4,0l0,1.5Z" class="g1_22" />
<path d="M79,1009.7l0,-1.5l639.4,0l0,1.5Z" class="g1_22" />
</svg>