<?xml version="1.0" encoding="UTF-8" standalone="no"?>
<!DOCTYPE svg PUBLIC "-//W3C//DTD SVG 1.1//EN"
"http://www.w3.org/Graphics/SVG/1.1/DTD/svg11.dtd">
<svg viewBox="0 0 818 1066" version="1.1" xmlns="http://www.w3.org/2000/svg" xmlns:xlink="http://www.w3.org/1999/xlink">
<defs>
<style type="text/css"><![CDATA[
.g1_45{
fill: #9A9A9A;
}
.g2_45{
fill: none;
stroke: #000000;
stroke-width: 0.7638889;
stroke-linecap: butt;
stroke-linejoin: miter;
stroke-miterlimit: 4;
}
.g3_45{
}
.g4_45{
fill: none;
stroke: #000000;
stroke-width: 0.15277778;
stroke-linecap: butt;
stroke-linejoin: miter;
stroke-miterlimit: 4;
}
]]></style>
</defs>
<path d="M79,82.1l0,-1.5l639.4,0l0,1.5Z" class="g1_45" />
<path d="M79,113.1l0,-1.5l639.4,0l0,1.5Z" class="g1_45" />
<path d="M133.9,164l6.9,4l-6.9,3.7m6.9,-3.7l-16.4,0m9.5,14.4l6.9,4l-6.9,3.6m6.9,-3.6l-16.4,0m9.5,14.3l6.9,4l-6.9,3.7m6.9,-3.7l-16.4,0" class="g2_45" />
<path d="M133.9,310.7l6.9,4l-6.9,3.7m6.9,-3.7l-16.4,0" class="g2_45" />
<path d="M280.6,164l6.8,4l-6.8,3.7m6.8,-3.7l-16.3,0" class="g2_45" />
<path d="M280.6,206.8l6.8,4l-6.8,3.7m6.8,-3.7l-16.3,0m9.5,14.4l6.8,3.9l-6.8,3.7m6.8,-3.7l-16.3,0m9.5,14.4l6.8,4l-6.8,3.6m6.8,-3.6l-16.3,0m9.5,14.3l6.8,4l-6.8,3.7m6.8,-3.7l-16.3,0m9.5,14.4l6.8,3.9l-6.8,3.7m6.8,-3.7l-16.3,0" class="g2_45" />
<path d="M280.6,341.3l6.8,4l-6.8,3.6m6.8,-3.6l-16.3,0" class="g2_45" />
<path d="M427.2,164l6.9,4l-6.9,3.7m6.9,-3.7l-16.3,0m9.4,14.4l6.9,4l-6.9,3.6m6.9,-3.6l-16.3,0m9.4,14.3l6.9,4l-6.9,3.7m6.9,-3.7l-16.3,0" class="g2_45" />
<path d="M427.2,267.9l6.9,4l-6.9,3.7m6.9,-3.7l-16.3,0m9.4,14.4l6.9,4l-6.9,3.6m6.9,-3.6l-16.3,0" class="g2_45" />
<path d="M427.2,341.3l6.9,4l-6.9,3.6m6.9,-3.6l-16.3,0" class="g2_45" />
<path d="M573.9,188.5l6.9,4l-6.9,3.6m6.9,-3.6l-16.3,0M98.9,217.8l97.8,0l0,-64.1l-97.8,0Zm146.7,79.5l97.8,0l0,-100.9l-97.8,0ZM392.3,217.8l97.7,0l0,-64.1l-97.7,0ZM98.9,327.8l97.8,0l0,-27.5l-97.8,0Zm146.7,30.6l97.8,0l0,-27.5l-97.8,0Zm0,-204.7l97.8,0l0,27.5l-97.8,0ZM392.3,303.4l97.7,0l0,-45.8l-97.7,0Zm0,55l97.7,0l0,-27.5l-97.7,0ZM538.9,205.6l97.8,0l0,-27.5l-97.8,0Z" class="g2_45" />
<path d="M144.1,290.6l3.6,1.6l3.8,-1.5l-3.7,8.4l-3.7,-8.5Z" class="g3_45" />
<path d="M147.8,294.2l0,-75" class="g2_45" />
<path d="M290.8,321.2l3.6,1.5l3.7,-1.4l-3.6,8.4l-3.7,-8.5Z" class="g3_45" />
<path d="M294.5,324.8l0,-26.1" class="g2_45" />
<path d="M437.5,321.3l3.5,1.6l3.8,-1.5l-3.6,8.4l-3.7,-8.5Z" class="g3_45" />
<path d="M441.2,324.8l0,-20.2" class="g2_45" />
<path d="M437.6,227.6l3.6,-1.6l3.7,1.6l-3.7,-8.5l-3.6,8.5Z" class="g3_45" />
<path d="M441.2,223.2l0,33.1" class="g2_45" />
<path d="M382.5,266.3l1.6,3.5l-1.6,3.8l8.5,-3.8l-8.5,-3.5Z" class="g3_45" />
<path d="M386.9,269.8l-42.3,0" class="g2_45" />
<path d="M235.8,162.4l1.6,3.5l-1.6,3.8l8.6,-3.8l-8.6,-3.5Z" class="g3_45" />
<path d="M240.2,165.9l-42.3,0" class="g2_45" />
<path d="M353.1,162.4l-1.6,3.5l1.6,3.8l-8.5,-3.8l8.5,-3.5Z" class="g3_45" />
<path d="M348.7,165.9l42.3,0" class="g2_45" />
<path d="M235.8,205.1l1.6,3.6l-1.6,3.8l8.6,-3.8l-8.6,-3.6Z" class="g3_45" />
<path d="M240.2,208.7l-42.3,0" class="g2_45" />
<path d="M353.1,205.1l-1.6,3.6l1.6,3.8l-8.5,-3.8l8.5,-3.6Z" class="g3_45" />
<path d="M348.7,208.7l42.3,0" class="g2_45" />
<path d="M529.2,186.8l1.6,3.5l-1.6,3.8l8.5,-3.8l-8.5,-3.5Z" class="g3_45" />
<path d="M533.6,190.3l-42.3,0M241.4,255.8c-30.2,-23.3,-30.5,44.3,3,14" class="g2_45" />
<path d="M235.1,256.1l3.1,-2.3l0.7,-3.7l5.5,7.4l-9.3,-1.4Z" class="g3_45" />
<path d="M295.5,189.3l-3.5,1.6l3.5,-8.5l3.8,8.5l-3.8,-1.6Z" class="g3_45" />
<path d="M295.5,189.3l0,6.1" class="g4_45" />
<path d="M79,406.3l0,-1.6l511.6,0l0,1.6Z" class="g3_45" />
<path d="M79,435.8l0,-1.5l511.6,0l0,1.5Z" class="g3_45" />
<path d="M328.4,471.4l0,-16.9l1.5,0l0,16.9Z" class="g3_45" />
<path d="M410.7,471.4l0,-16.9l1.5,0l0,16.9Z" class="g3_45" />
<path d="M131.6,471.9l0,-1.5l279.5,0l0,1.5Z" class="g3_45" />
<path d="M131.3,488l0,-16.8l1.5,0l0,16.8Z" class="g3_45" />
<path d="M328.4,488l0,-16.8l1.5,0l0,16.8Z" class="g3_45" />
<path d="M410.7,488l0,-16.8l1.5,0l0,16.8Z" class="g3_45" />
<path d="M131.3,504.7l0,-16.8l1.5,0l0,16.8Z" class="g3_45" />
<path d="M328.4,504.7l0,-16.8l1.5,0l0,16.8Z" class="g3_45" />
<path d="M410.7,504.7l0,-16.8l1.5,0l0,16.8Z" class="g3_45" />
<path d="M131.3,521.6l0,-16.9l1.5,0l0,16.9Z" class="g3_45" />
<path d="M328.4,521.6l0,-16.9l1.5,0l0,16.9Z" class="g3_45" />
<path d="M410.7,521.6l0,-16.9l1.5,0l0,16.9Z" class="g3_45" />
<path d="M131.3,538.3l0,-16.9l1.5,0l0,16.9Z" class="g3_45" />
<path d="M328.4,538.3l0,-16.9l1.5,0l0,16.9Z" class="g3_45" />
<path d="M410.7,538.3l0,-16.9l1.5,0l0,16.9Z" class="g3_45" />
<path d="M131.3,555l0,-16.9l1.5,0l0,16.9Z" class="g3_45" />
<path d="M328.4,555l0,-16.9l1.5,0l0,16.9Z" class="g3_45" />
<path d="M410.7,555l0,-16.9l1.5,0l0,16.9Z" class="g3_45" />
<path d="M131.3,571.8l0,-16.8l1.5,0l0,16.8Z" class="g3_45" />
<path d="M328.4,571.8l0,-16.8l1.5,0l0,16.8Z" class="g3_45" />
<path d="M410.7,571.8l0,-16.8l1.5,0l0,16.8Z" class="g3_45" />
<path d="M131.3,588.5l0,-16.8l1.5,0l0,16.8Z" class="g3_45" />
<path d="M328.4,588.5l0,-16.8l1.5,0l0,16.8Z" class="g3_45" />
<path d="M410.7,588.5l0,-16.8l1.5,0l0,16.8Z" class="g3_45" />
<path d="M131.3,605.2l0,-16.9l1.5,0l0,16.9Z" class="g3_45" />
<path d="M328.4,605.2l0,-16.9l1.5,0l0,16.9Z" class="g3_45" />
<path d="M410.7,605.2l0,-16.9l1.5,0l0,16.9Z" class="g3_45" />
<path d="M131.3,622.1l0,-16.9l1.5,0l0,16.9Z" class="g3_45" />
<path d="M328.4,622.1l0,-16.9l1.5,0l0,16.9Z" class="g3_45" />
<path d="M410.7,622.1l0,-16.9l1.5,0l0,16.9Z" class="g3_45" />
<path d="M131.6,622.6l0,-1.5l279.5,0l0,1.5Z" class="g3_45" />
<path d="M79,634.2l0,-1.5l511.6,0l0,1.5Z" class="g3_45" />
<path d="M79,665.7l0,-1.5l511.6,0l0,1.5Z" class="g3_45" />
<path d="M79,740.5L79,739l511.6,0l0,1.5Z" class="g3_45" />
<path d="M79,767.5l0,-1.6l511.6,0l0,1.6Z" class="g3_45" />
<path d="M79,982.2l0,-1.5l639.4,0l0,1.5Z" class="g1_45" />
<path d="M79,1009.7l0,-1.5l639.4,0l0,1.5Z" class="g1_45" />
</svg>