<?xml version="1.0" encoding="UTF-8" standalone="no"?>
<!DOCTYPE svg PUBLIC "-//W3C//DTD SVG 1.1//EN"
"http://www.w3.org/Graphics/SVG/1.1/DTD/svg11.dtd">
<svg viewBox="0 0 818 1066" version="1.1" xmlns="http://www.w3.org/2000/svg" xmlns:xlink="http://www.w3.org/1999/xlink">
<defs>
<style type="text/css"><![CDATA[
.g1_49{
fill: #9A9A9A;
}
.g2_49{
}
.g3_49{
fill: none;
stroke: #000000;
stroke-width: 0.7638889;
stroke-linecap: butt;
stroke-linejoin: miter;
stroke-miterlimit: 4;
}
]]></style>
</defs>
<path d="M79,82.1l0,-1.5l639.4,0l0,1.5Z" class="g1_49" />
<path d="M79,113.1l0,-1.5l639.4,0l0,1.5Z" class="g1_49" />
<path d="M79,215.6l0,-1.5l511.6,0l0,1.5Z" class="g2_49" />
<path d="M79,265.3l0,-1.6l511.6,0l0,1.6Z" class="g2_49" />
<path d="M166.3,295.4l6.9,4l-6.9,3.7m6.9,-3.7l-16.4,0m-25.5,13.2l128.3,0l0,-27.5l-128.3,0Z" class="g3_49" />
<path d="M258.9,457.2l0,-111.6l-143.1,0l0,111.6l143.1,0Z" class="g3_49" />
<path d="M152.3,356l6.9,4l-6.9,3.7m6.9,-3.7l-16.4,0m9.5,14.4l6.9,3.9l-6.9,3.7m6.9,-3.7l-16.4,0m9.5,14.4l6.9,4l-6.9,3.6m6.9,-3.6l-16.4,0m9.5,14.3l6.9,4l-6.9,3.7m6.9,-3.7l-16.4,0m9.5,14.4l6.9,3.9l-6.9,3.7m6.9,-3.7l-16.4,0" class="g3_49" />
<path d="M160.8,343.4l19.8,-23.7" class="g3_49" />
<path d="M182.9,322.8l-1.4,-3.6l-3.8,-1.5l8.6,-3.5l-3.4,8.6Z" class="g2_49" />
<path d="M152.9,444.6l6.9,4l-6.9,3.7m6.9,-3.7l-16.3,0m-12.6,111l128.3,0l0,-82.5l-128.3,0Z" class="g3_49" />
<path d="M165.9,487.5l6.8,4l-6.8,3.7m6.8,-3.7l-16.3,0m9.5,14.4l6.8,3.9l-6.8,3.7m6.8,-3.7l-16.3,0m9.5,14.4l6.8,4l-6.8,3.6m6.8,-3.6l-16.3,0m9.5,14.3l6.8,4l-6.8,3.7m6.8,-3.7l-16.3,0" class="g3_49" />
<path d="M170.1,467.4l3.6,1.6l3.8,-1.6l-3.8,8.5l-3.6,-8.5Z" class="g2_49" />
<path d="M173.7,471.8l0,-14.8" class="g3_49" />
<path d="M343.7,295.4l6.8,4l-6.8,3.7m6.8,-3.7l-16.3,0m9.5,14.4l6.8,4l-6.8,3.6m6.8,-3.6l-16.3,0m-25.5,13.1l128.3,0l0,-45.8l-128.3,0Z" class="g3_49" />
<path d="M343,351.5l6.8,3.9l-6.8,3.7m6.8,-3.7l-16.3,0M308,368.6l128.3,0l0,-27.5l-128.3,0Z" class="g3_49" />
<path d="M304.5,325.6L303.1,322l-3.9,-1.5l8.7,-3.6l-3.4,8.7Z" class="g2_49" />
<path d="M303.1,322l-44.3,59.8" class="g3_49" />
<path d="M304.1,363l-1.4,-3.6l-3.8,-1.5l8.6,-3.5l-3.4,8.6Z" class="g2_49" />
<path d="M302.7,359.4l-43.9,40.3" class="g3_49" />
<path d="M343,389.5l6.8,4l-6.8,3.6m6.8,-3.6l-16.3,0M308,406.6l128.3,0l0,-27.5l-128.3,0Z" class="g3_49" />
<path d="M343,430.4l6.8,4l-6.8,3.7m6.8,-3.7l-16.3,0M308,447.6l134.6,0l0,-27.6L308,420Z" class="g3_49" />
<path d="M343.4,471.2l6.9,4l-6.9,3.6m6.9,-3.6l-16.4,0m-25.5,13.1l134.7,0l0,-27.5l-134.7,0Z" class="g3_49" />
<path d="M342.7,511.4l6.9,4l-6.9,3.7m6.9,-3.7l-16.4,0m-25.5,13.1l134.7,0l0,-27.5l-134.7,0Z" class="g3_49" />
<path d="M344.2,548.8l6.9,4l-6.9,3.7m6.9,-3.7l-16.3,0m-25.6,13.1l134.7,0l0,-27.5l-134.7,0Z" class="g3_49" />
<path d="M303.6,454.7l-1.4,-3.6l-3.8,-1.5L307,446l-3.4,8.7Z" class="g2_49" />
<path d="M302.2,451.1l-43.4,52.5" class="g3_49" />
<path d="M544.1,297l6.9,3.9l-6.9,3.7m6.9,-3.7l-16.3,0m9.4,14.4l6.9,4l-6.9,3.7m6.9,-3.7l-16.3,0m9.4,14.3l6.9,4l-6.9,3.7m6.9,-3.7l-16.3,0" class="g3_49" />
<path d="M503.3,367.6l128.4,0l0,-82.5l-128.4,0ZM545,351.5l6.9,4l-6.9,3.7m6.9,-3.7l-16.3,0" class="g3_49" />
<path d="M555.6,400.9l6.9,4l-6.9,3.6m6.9,-3.6l-16.3,0" class="g3_49" />
<path d="M539.2,451.8l6.9,4l-6.9,3.6m6.9,-3.6l-16.3,0m9.4,14.3l6.9,4l-6.9,3.7m6.9,-3.7l-16.3,0m9.4,14.4l6.9,4l-6.9,3.6m6.9,-3.6l-16.3,0" class="g3_49" />
<path d="M504.2,523.9l128.4,0l0,-82.5l-128.4,0l0,82.5Z" class="g3_49" />
<path d="M539.2,506.8l6.9,4l-6.9,3.7m6.9,-3.7l-16.3,0M634.7,492.9c0,0,60.6,-4.6,0.5,-28.6" class="g3_49" />
<path d="M643,464.1l-2.7,2.8l0.2,4.1l-6.8,-6.4l9.3,-0.5Z" class="g2_49" />
<path d="M532.7,551.2l6.8,3.9l-6.8,3.7m6.8,-3.7l-16.3,0m-25.5,13.2l134.7,0l0,-27.6l-134.7,0Z" class="g3_49" />
<path d="M479.5,308l1.6,3.6l-1.5,3.8l8.5,-3.8L479.5,308Z" class="g2_49" />
<path d="M483.9,311.6l-42.3,0" class="g3_49" />
<path d="M503.3,337.6l-63.7,61.9" class="g3_49" />
<path d="M442.5,392l0.7,3.8l3.6,2.1l-9.2,2l4.9,-7.9Z" class="g2_49" />
<path d="M503.3,368.1l-56.1,89.3" class="g3_49" />
<path d="M444.5,454.2l2.2,3.2l4.1,0.5l-7.6,5.5l1.3,-9.2Z" class="g2_49" />
<path d="M453.4,485.2l-1.6,-3.5l1.5,-3.8l-8.5,3.8l8.6,3.5Z" class="g2_49" />
<path d="M448.9,481.7l54.1,0" class="g3_49" />
<path d="M443.7,414.5l0.8,-3.8l3.5,-2.1l-9.1,-2l4.8,7.9Z" class="g2_49" />
<path d="M442.3,409l61.5,57.4" class="g3_49" />
<path d="M512.5,367.5l0,66.6" class="g3_49" />
<path d="M512.5,432.2l3.8,-1.5l-3.8,8.5l-3.6,-8.6l3.6,1.6Z" class="g2_49" />
<path d="M556.8,531.7l3.5,1.6l3.8,-1.6l-3.8,8.5l-3.5,-8.5Z" class="g2_49" />
<path d="M560.3,532.4l0,-7.4" class="g3_49" />
<path d="M562.9,381.4l3.5,1.6l3.8,-1.6l-3.8,8.5l-3.5,-8.5Z" class="g2_49" />
<path d="M520.6,418.5l121.2,0l0,-27.5l-121.2,0Zm-391.1,108c0,0,-68.3,-19.9,-2.6,-25.5" class="g3_49" />
<path d="M121.8,504.6l1,-3.7l-2.1,-3.5l9,2.3l-7.9,4.9Z" class="g2_49" />
<path d="M108.5,312.8l17.6,25.4" class="g3_49" />
<path d="M122.6,339.6l3.8,-0.4l2.5,-3.3l1.1,9.3l-7.4,-5.6Z" class="g2_49" />
<path d="M566.4,383l0,-12.7" class="g3_49" />
<path d="M298.2,509.2l1.6,3.5l-1.5,3.8l8.5,-3.8l-8.6,-3.5Z" class="g2_49" />
<path d="M302.6,512.7l-42.3,0" class="g3_49" />
<path d="M298.2,429.8l1.6,3.5l-1.5,3.8l8.5,-3.8l-8.6,-3.5Z" class="g2_49" />
<path d="M302.6,433.3l-42.3,0" class="g3_49" />
<path d="M298.2,546.4l1.6,3.6l-1.5,3.8l8.5,-3.8l-8.6,-3.6Z" class="g2_49" />
<path d="M302.6,550l-42.3,0" class="g3_49" />
<path d="M79,581.6L79,580l511.6,0l0,1.6Z" class="g2_49" />
<path d="M79,610.9l0,-1.5l511.6,0l0,1.5Z" class="g2_49" />
<path d="M129.3,653.8l0,-1.5l244.4,0l0,1.5Z" class="g2_49" />
<path d="M129.1,669.9l0,-16.8l1.5,0l0,16.8Z" class="g2_49" />
<path d="M263.6,669.9l0,-16.8l1.6,0l0,16.8Z" class="g2_49" />
<path d="M373.3,669.9l0,-16.8l1.5,0l0,16.8Z" class="g2_49" />
<path d="M129.1,686.6l0,-16.9l1.5,0l0,16.9Z" class="g2_49" />
<path d="M263.6,686.6l0,-16.9l1.6,0l0,16.9Z" class="g2_49" />
<path d="M373.3,686.6l0,-16.9l1.5,0l0,16.9Z" class="g2_49" />
<path d="M129.1,703.3l0,-16.9l1.5,0l0,16.9Z" class="g2_49" />
<path d="M263.6,703.3l0,-16.9l1.6,0l0,16.9Z" class="g2_49" />
<path d="M373.3,703.3l0,-16.9l1.5,0l0,16.9Z" class="g2_49" />
<path d="M129.1,720.2l0,-16.9l1.5,0l0,16.9Z" class="g2_49" />
<path d="M263.6,720.2l0,-16.9l1.6,0l0,16.9Z" class="g2_49" />
<path d="M373.3,720.2l0,-16.9l1.5,0l0,16.9Z" class="g2_49" />
<path d="M129.1,736.9l0,-16.9l1.5,0l0,16.9Z" class="g2_49" />
<path d="M263.6,736.9l0,-16.9l1.6,0l0,16.9Z" class="g2_49" />
<path d="M373.3,736.9l0,-16.9l1.5,0l0,16.9Z" class="g2_49" />
<path d="M129.1,753.5l0,-16.8l1.5,0l0,16.8Z" class="g2_49" />
<path d="M263.6,753.5l0,-16.8l1.6,0l0,16.8Z" class="g2_49" />
<path d="M373.3,753.5l0,-16.8l1.5,0l0,16.8Z" class="g2_49" />
<path d="M129.1,770.4l0,-16.9l1.5,0l0,16.9Z" class="g2_49" />
<path d="M263.6,770.4l0,-16.9l1.6,0l0,16.9Z" class="g2_49" />
<path d="M373.3,770.4l0,-16.9l1.5,0l0,16.9Z" class="g2_49" />
<path d="M129.1,787.1l0,-16.9l1.5,0l0,16.9Z" class="g2_49" />
<path d="M263.6,787.1l0,-16.9l1.6,0l0,16.9Z" class="g2_49" />
<path d="M373.3,787.1l0,-16.9l1.5,0l0,16.9Z" class="g2_49" />
<path d="M129.1,803.8l0,-16.9l1.5,0l0,16.9Z" class="g2_49" />
<path d="M263.6,803.8l0,-16.9l1.6,0l0,16.9Z" class="g2_49" />
<path d="M373.3,803.8l0,-16.9l1.5,0l0,16.9Z" class="g2_49" />
<path d="M129.1,820.6l0,-16.8l1.5,0l0,16.8Z" class="g2_49" />
<path d="M263.6,820.6l0,-16.8l1.6,0l0,16.8Z" class="g2_49" />
<path d="M373.3,820.6l0,-16.8l1.5,0l0,16.8Z" class="g2_49" />
<path d="M129.1,837.3l0,-16.8l1.5,0l0,16.8Z" class="g2_49" />
<path d="M263.6,837.3l0,-16.8l1.6,0l0,16.8Z" class="g2_49" />
<path d="M373.3,837.3l0,-16.8l1.5,0l0,16.8Z" class="g2_49" />
<path d="M129.1,854l0,-16.9l1.5,0l0,16.9Z" class="g2_49" />
<path d="M263.6,854l0,-16.9l1.6,0l0,16.9Z" class="g2_49" />
<path d="M373.3,854l0,-16.9l1.5,0l0,16.9Z" class="g2_49" />
<path d="M129.1,870.9l0,-16.9l1.5,0l0,16.9Z" class="g2_49" />
<path d="M263.6,870.9l0,-16.9l1.6,0l0,16.9Z" class="g2_49" />
<path d="M373.3,870.9l0,-16.9l1.5,0l0,16.9Z" class="g2_49" />
<path d="M129.1,887.6l0,-16.9l1.5,0l0,16.9Z" class="g2_49" />
<path d="M263.6,887.6l0,-16.9l1.6,0l0,16.9Z" class="g2_49" />
<path d="M373.3,887.6l0,-16.9l1.5,0l0,16.9Z" class="g2_49" />
<path d="M129.3,888.1l0,-1.5l244.4,0l0,1.5Z" class="g2_49" />
<path d="M460.6,653.8l0,-1.5l223.8,0l0,1.5Z" class="g2_49" />
<path d="M460.4,669.9l0,-16.8l1.5,0l0,16.8Z" class="g2_49" />
<path d="M581.4,669.9l0,-16.8l1.5,0l0,16.8Z" class="g2_49" />
<path d="M684.1,669.9l0,-16.8l1.5,0l0,16.8Z" class="g2_49" />
<path d="M460.4,686.6l0,-16.9l1.5,0l0,16.9Z" class="g2_49" />
<path d="M581.4,686.6l0,-16.9l1.5,0l0,16.9Z" class="g2_49" />
<path d="M684.1,686.6l0,-16.9l1.5,0l0,16.9Z" class="g2_49" />
<path d="M460.4,703.3l0,-16.9l1.5,0l0,16.9Z" class="g2_49" />
<path d="M581.4,703.3l0,-16.9l1.5,0l0,16.9Z" class="g2_49" />
<path d="M684.1,703.3l0,-16.9l1.5,0l0,16.9Z" class="g2_49" />
<path d="M460.4,720.2l0,-16.9l1.5,0l0,16.9Z" class="g2_49" />
<path d="M581.4,720.2l0,-16.9l1.5,0l0,16.9Z" class="g2_49" />
<path d="M684.1,720.2l0,-16.9l1.5,0l0,16.9Z" class="g2_49" />
<path d="M460.4,736.9l0,-16.9l1.5,0l0,16.9Z" class="g2_49" />
<path d="M581.4,736.9l0,-16.9l1.5,0l0,16.9Z" class="g2_49" />
<path d="M684.1,736.9l0,-16.9l1.5,0l0,16.9Z" class="g2_49" />
<path d="M460.4,753.5l0,-16.8l1.5,0l0,16.8Z" class="g2_49" />
<path d="M581.4,753.5l0,-16.8l1.5,0l0,16.8Z" class="g2_49" />
<path d="M684.1,753.5l0,-16.8l1.5,0l0,16.8Z" class="g2_49" />
<path d="M460.4,770.4l0,-16.9l1.5,0l0,16.9Z" class="g2_49" />
<path d="M581.4,770.4l0,-16.9l1.5,0l0,16.9Z" class="g2_49" />
<path d="M684.1,770.4l0,-16.9l1.5,0l0,16.9Z" class="g2_49" />
<path d="M460.4,787.1l0,-16.9l1.5,0l0,16.9Z" class="g2_49" />
<path d="M581.4,787.1l0,-16.9l1.5,0l0,16.9Z" class="g2_49" />
<path d="M684.1,787.1l0,-16.9l1.5,0l0,16.9Z" class="g2_49" />
<path d="M460.4,803.8l0,-16.9l1.5,0l0,16.9Z" class="g2_49" />
<path d="M581.4,803.8l0,-16.9l1.5,0l0,16.9Z" class="g2_49" />
<path d="M684.1,803.8l0,-16.9l1.5,0l0,16.9Z" class="g2_49" />
<path d="M460.4,820.6l0,-16.8l1.5,0l0,16.8Z" class="g2_49" />
<path d="M581.4,820.6l0,-16.8l1.5,0l0,16.8Z" class="g2_49" />
<path d="M684.1,820.6l0,-16.8l1.5,0l0,16.8Z" class="g2_49" />
<path d="M460.6,821.2l0,-1.5l223.8,0l0,1.5Z" class="g2_49" />
<path d="M79,933.2l0,-1.5l511.6,0l0,1.5Z" class="g2_49" />
<path d="M79,964.8l0,-1.6l511.6,0l0,1.6Z" class="g2_49" />
<path d="M79,982.2l0,-1.5l639.4,0l0,1.5Z" class="g1_49" />
<path d="M79,1009.7l0,-1.5l639.4,0l0,1.5Z" class="g1_49" />
</svg>