<?xml version="1.0" encoding="UTF-8" standalone="no"?>
<!DOCTYPE svg PUBLIC "-//W3C//DTD SVG 1.1//EN"
"http://www.w3.org/Graphics/SVG/1.1/DTD/svg11.dtd">
<svg viewBox="0 0 818 1066" version="1.1" xmlns="http://www.w3.org/2000/svg" xmlns:xlink="http://www.w3.org/1999/xlink">
<defs>
<style type="text/css"><![CDATA[
.g1_48{
fill: #9A9A9A;
}
.g2_48{
}
]]></style>
</defs>
<path d="M79,82.1l0,-1.5l639.4,0l0,1.5Z" class="g1_48" />
<path d="M79,113.1l0,-1.5l639.4,0l0,1.5Z" class="g1_48" />
<path d="M225.1,318.8l0,-1.5l141.4,0l0,1.5Z" class="g2_48" />
<path d="M481.1,318.8l0,-1.5l158.1,0l0,1.5Z" class="g2_48" />
<path d="M225,340.3l0,-22l1.5,0l0,22Z" class="g2_48" />
<path d="M366.1,340.3l0,-22l1.6,0l0,22Z" class="g2_48" />
<path d="M480.7,340.3l0,-22l1.6,0l0,22Z" class="g2_48" />
<path d="M638.6,340.3l0,-22l1.5,0l0,22Z" class="g2_48" />
<path d="M225,362.1l0,-22l1.5,0l0,22Z" class="g2_48" />
<path d="M366.1,362.1l0,-22l1.6,0l0,22Z" class="g2_48" />
<path d="M480.7,362.1l0,-22l1.6,0l0,22Z" class="g2_48" />
<path d="M638.6,362.1l0,-22l1.5,0l0,22Z" class="g2_48" />
<path d="M225,384.1l0,-22l1.5,0l0,22Z" class="g2_48" />
<path d="M366.1,384.1l0,-22l1.6,0l0,22Z" class="g2_48" />
<path d="M480.7,384.1l0,-22l1.6,0l0,22Z" class="g2_48" />
<path d="M638.6,384.1l0,-22l1.5,0l0,22Z" class="g2_48" />
<path d="M225,405.9l0,-22l1.5,0l0,22Z" class="g2_48" />
<path d="M366.1,405.9l0,-22l1.6,0l0,22Z" class="g2_48" />
<path d="M480.7,405.9l0,-22l1.6,0l0,22Z" class="g2_48" />
<path d="M638.6,405.9l0,-22l1.5,0l0,22Z" class="g2_48" />
<path d="M225,427.9l0,-22l1.5,0l0,22Z" class="g2_48" />
<path d="M366.1,427.9l0,-22l1.6,0l0,22Z" class="g2_48" />
<path d="M480.7,427.9l0,-22l1.6,0l0,22Z" class="g2_48" />
<path d="M638.6,427.9l0,-22l1.5,0l0,22Z" class="g2_48" />
<path d="M225,449.7l0,-22l1.5,0l0,22Z" class="g2_48" />
<path d="M366.1,449.7l0,-22l1.6,0l0,22Z" class="g2_48" />
<path d="M480.7,449.7l0,-22l1.6,0l0,22Z" class="g2_48" />
<path d="M638.6,449.7l0,-22l1.5,0l0,22Z" class="g2_48" />
<path d="M481.1,450.5l0,-1.6l158.1,0l0,1.6Z" class="g2_48" />
<path d="M225,471.7l0,-22l1.5,0l0,22Z" class="g2_48" />
<path d="M366.3,471.7l0,-22l1.6,0l0,22Z" class="g2_48" />
<path d="M225,493.5l0,-22l1.5,0l0,22Z" class="g2_48" />
<path d="M366.3,493.5l0,-22l1.6,0l0,22Z" class="g2_48" />
<path d="M225.1,494.3l0,-1.5l141.4,0l0,1.5Z" class="g2_48" />
<path d="M79,982.2l0,-1.5l639.4,0l0,1.5Z" class="g1_48" />
<path d="M79,1009.7l0,-1.5l639.4,0l0,1.5Z" class="g1_48" />
</svg>