<?xml version="1.0" encoding="UTF-8" standalone="no"?>
<!DOCTYPE svg PUBLIC "-//W3C//DTD SVG 1.1//EN"
"http://www.w3.org/Graphics/SVG/1.1/DTD/svg11.dtd">
<svg viewBox="0 0 935 1210" version="1.1" xmlns="http://www.w3.org/2000/svg" xmlns:xlink="http://www.w3.org/1999/xlink">
<defs>
<style type="text/css"><![CDATA[
.g1_2{
}
]]></style>
</defs>
<path d="M235.2,407.7l0.8,0l0,-0.7l-0.8,0l0,0.7Z" class="g1_2" />
<path d="M235.2,407.7l0.8,0l0,-0.7l-0.8,0l0,0.7Z" class="g1_2" />
<path d="M236,407.7l119.5,0l0,-0.7L236,407l0,0.7Z" class="g1_2" />
<path d="M355.5,407.7l0.7,0l0,-0.7l-0.7,0l0,0.7Z" class="g1_2" />
<path d="M356.2,407.7l342.7,0l0,-0.7l-342.7,0l0,0.7Z" class="g1_2" />
<path d="M698.9,407.7l0.7,0l0,-0.7l-0.7,0l0,0.7Z" class="g1_2" />
<path d="M698.9,407.7l0.7,0l0,-0.7l-0.7,0l0,0.7Z" class="g1_2" />
<path d="M235.2,425.3l0.8,0l0,-17.6l-0.8,0l0,17.6Z" class="g1_2" />
<path d="M355.5,425.3l0.7,0l0,-17.6l-0.7,0l0,17.6Z" class="g1_2" />
<path d="M698.9,425.3l0.7,0l0,-17.6l-0.7,0l0,17.6Z" class="g1_2" />
<path d="M235.2,426.1l0.8,0l0,-0.8l-0.8,0l0,0.8Z" class="g1_2" />
<path d="M236,426.1l119.5,0l0,-0.8l-119.5,0l0,0.8Z" class="g1_2" />
<path d="M355.5,426.1l0.7,0l0,-0.8l-0.7,0l0,0.8Z" class="g1_2" />
<path d="M356.2,426.1l342.7,0l0,-0.8l-342.7,0l0,0.8Z" class="g1_2" />
<path d="M698.9,426.1l0.7,0l0,-0.8l-0.7,0l0,0.8Z" class="g1_2" />
<path d="M235.2,443.7l0.8,0l0,-17.6l-0.8,0l0,17.6Z" class="g1_2" />
<path d="M355.5,443.7l0.7,0l0,-17.6l-0.7,0l0,17.6Z" class="g1_2" />
<path d="M698.9,443.7l0.7,0l0,-17.6l-0.7,0l0,17.6Z" class="g1_2" />
<path d="M235.2,444.4l0.8,0l0,-0.7l-0.8,0l0,0.7Z" class="g1_2" />
<path d="M236,444.4l119.5,0l0,-0.7l-119.5,0l0,0.7Z" class="g1_2" />
<path d="M355.5,444.4l0.7,0l0,-0.7l-0.7,0l0,0.7Z" class="g1_2" />
<path d="M356.2,444.4l342.7,0l0,-0.7l-342.7,0l0,0.7Z" class="g1_2" />
<path d="M698.9,444.4l0.7,0l0,-0.7l-0.7,0l0,0.7Z" class="g1_2" />
<path d="M235.2,462l0.8,0l0,-17.6l-0.8,0l0,17.6Z" class="g1_2" />
<path d="M355.5,462l0.7,0l0,-17.6l-0.7,0l0,17.6Z" class="g1_2" />
<path d="M698.9,462l0.7,0l0,-17.6l-0.7,0l0,17.6Z" class="g1_2" />
<path d="M235.2,462.7l0.8,0l0,-0.7l-0.8,0l0,0.7Z" class="g1_2" />
<path d="M236,462.7l119.5,0l0,-0.7L236,462l0,0.7Z" class="g1_2" />
<path d="M355.5,462.7l0.7,0l0,-0.7l-0.7,0l0,0.7Z" class="g1_2" />
<path d="M356.2,462.7l342.7,0l0,-0.7l-342.7,0l0,0.7Z" class="g1_2" />
<path d="M698.9,462.7l0.7,0l0,-0.7l-0.7,0l0,0.7Z" class="g1_2" />
<path d="M235.2,480.3l0.8,0l0,-17.6l-0.8,0l0,17.6Z" class="g1_2" />
<path d="M355.5,480.3l0.7,0l0,-17.6l-0.7,0l0,17.6Z" class="g1_2" />
<path d="M698.9,480.3l0.7,0l0,-17.6l-0.7,0l0,17.6Z" class="g1_2" />
<path d="M235.2,481.1l0.8,0l0,-0.8l-0.8,0l0,0.8Z" class="g1_2" />
<path d="M236,481.1l119.5,0l0,-0.8l-119.5,0l0,0.8Z" class="g1_2" />
<path d="M355.5,481.1l0.7,0l0,-0.8l-0.7,0l0,0.8Z" class="g1_2" />
<path d="M356.2,481.1l342.7,0l0,-0.8l-342.7,0l0,0.8Z" class="g1_2" />
<path d="M698.9,481.1l0.7,0l0,-0.8l-0.7,0l0,0.8Z" class="g1_2" />
<path d="M235.2,498.7l0.8,0l0,-17.6l-0.8,0l0,17.6Z" class="g1_2" />
<path d="M355.5,498.7l0.7,0l0,-17.6l-0.7,0l0,17.6Z" class="g1_2" />
<path d="M698.9,498.7l0.7,0l0,-17.6l-0.7,0l0,17.6Z" class="g1_2" />
<path d="M235.2,499.4l0.8,0l0,-0.7l-0.8,0l0,0.7Z" class="g1_2" />
<path d="M236,499.4l119.5,0l0,-0.7l-119.5,0l0,0.7Z" class="g1_2" />
<path d="M355.5,499.4l0.7,0l0,-0.7l-0.7,0l0,0.7Z" class="g1_2" />
<path d="M356.2,499.4l342.7,0l0,-0.7l-342.7,0l0,0.7Z" class="g1_2" />
<path d="M698.9,499.4l0.7,0l0,-0.7l-0.7,0l0,0.7Z" class="g1_2" />
<path d="M235.2,517l0.8,0l0,-17.6l-0.8,0l0,17.6Z" class="g1_2" />
<path d="M355.5,517l0.7,0l0,-17.6l-0.7,0l0,17.6Z" class="g1_2" />
<path d="M698.9,517l0.7,0l0,-17.6l-0.7,0l0,17.6Z" class="g1_2" />
<path d="M235.2,517.7l0.8,0l0,-0.7l-0.8,0l0,0.7Z" class="g1_2" />
<path d="M236,517.7l119.5,0l0,-0.7L236,517l0,0.7Z" class="g1_2" />
<path d="M355.5,517.7l0.7,0l0,-0.7l-0.7,0l0,0.7Z" class="g1_2" />
<path d="M356.2,517.7l342.7,0l0,-0.7l-342.7,0l0,0.7Z" class="g1_2" />
<path d="M698.9,517.7l0.7,0l0,-0.7l-0.7,0l0,0.7Z" class="g1_2" />
<path d="M235.2,535.3l0.8,0l0,-17.6l-0.8,0l0,17.6Z" class="g1_2" />
<path d="M355.5,535.3l0.7,0l0,-17.6l-0.7,0l0,17.6Z" class="g1_2" />
<path d="M698.9,535.3l0.7,0l0,-17.6l-0.7,0l0,17.6Z" class="g1_2" />
<path d="M235.2,536.1l0.8,0l0,-0.8l-0.8,0l0,0.8Z" class="g1_2" />
<path d="M236,536.1l119.5,0l0,-0.8l-119.5,0l0,0.8Z" class="g1_2" />
<path d="M355.5,536.1l0.7,0l0,-0.8l-0.7,0l0,0.8Z" class="g1_2" />
<path d="M356.2,536.1l342.7,0l0,-0.8l-342.7,0l0,0.8Z" class="g1_2" />
<path d="M698.9,536.1l0.7,0l0,-0.8l-0.7,0l0,0.8Z" class="g1_2" />
<path d="M235.2,553.7l0.8,0l0,-17.6l-0.8,0l0,17.6Z" class="g1_2" />
<path d="M355.5,553.7l0.7,0l0,-17.6l-0.7,0l0,17.6Z" class="g1_2" />
<path d="M698.9,553.7l0.7,0l0,-17.6l-0.7,0l0,17.6Z" class="g1_2" />
<path d="M235.2,554.4l0.8,0l0,-0.7l-0.8,0l0,0.7Z" class="g1_2" />
<path d="M236,554.4l119.5,0l0,-0.7l-119.5,0l0,0.7Z" class="g1_2" />
<path d="M355.5,554.4l0.7,0l0,-0.7l-0.7,0l0,0.7Z" class="g1_2" />
<path d="M356.2,554.4l342.7,0l0,-0.7l-342.7,0l0,0.7Z" class="g1_2" />
<path d="M698.9,554.4l0.7,0l0,-0.7l-0.7,0l0,0.7Z" class="g1_2" />
<path d="M235.2,573.3l0.8,0l0,-18.9l-0.8,0l0,18.9Z" class="g1_2" />
<path d="M355.5,573.3l0.7,0l0,-18.9l-0.7,0l0,18.9Z" class="g1_2" />
<path d="M698.9,573.3l0.7,0l0,-18.9l-0.7,0l0,18.9Z" class="g1_2" />
<path d="M235.2,574l0.8,0l0,-0.7l-0.8,0l0,0.7Z" class="g1_2" />
<path d="M236,574l119.5,0l0,-0.7l-119.5,0l0,0.7Z" class="g1_2" />
<path d="M355.5,574l0.7,0l0,-0.7l-0.7,0l0,0.7Z" class="g1_2" />
<path d="M356.2,574l342.7,0l0,-0.7l-342.7,0l0,0.7Z" class="g1_2" />
<path d="M698.9,574l0.7,0l0,-0.7l-0.7,0l0,0.7Z" class="g1_2" />
<path d="M235.2,593.1l0.8,0L236,574l-0.8,0l0,19.1Z" class="g1_2" />
<path d="M355.5,593.1l0.7,0l0,-19.1l-0.7,0l0,19.1Z" class="g1_2" />
<path d="M698.9,593.1l0.7,0l0,-19.1l-0.7,0l0,19.1Z" class="g1_2" />
<path d="M235.2,593.8l0.8,0l0,-0.7l-0.8,0l0,0.7Z" class="g1_2" />
<path d="M236,593.8l119.5,0l0,-0.7l-119.5,0l0,0.7Z" class="g1_2" />
<path d="M355.5,593.8l0.7,0l0,-0.7l-0.7,0l0,0.7Z" class="g1_2" />
<path d="M356.2,593.8l342.7,0l0,-0.7l-342.7,0l0,0.7Z" class="g1_2" />
<path d="M698.9,593.8l0.7,0l0,-0.7l-0.7,0l0,0.7Z" class="g1_2" />
<path d="M235.2,612.7l0.8,0l0,-18.9l-0.8,0l0,18.9Z" class="g1_2" />
<path d="M355.5,612.7l0.7,0l0,-18.9l-0.7,0l0,18.9Z" class="g1_2" />
<path d="M698.9,612.7l0.7,0l0,-18.9l-0.7,0l0,18.9Z" class="g1_2" />
<path d="M235.2,613.4l0.8,0l0,-0.7l-0.8,0l0,0.7Z" class="g1_2" />
<path d="M236,613.4l119.5,0l0,-0.7l-119.5,0l0,0.7Z" class="g1_2" />
<path d="M355.5,613.4l0.7,0l0,-0.7l-0.7,0l0,0.7Z" class="g1_2" />
<path d="M356.2,613.4l342.7,0l0,-0.7l-342.7,0l0,0.7Z" class="g1_2" />
<path d="M698.9,613.4l0.7,0l0,-0.7l-0.7,0l0,0.7Z" class="g1_2" />
<path d="M235.2,631l0.8,0l0,-17.6l-0.8,0l0,17.6Z" class="g1_2" />
<path d="M235.2,631.8l0.8,0l0,-0.8l-0.8,0l0,0.8Z" class="g1_2" />
<path d="M235.2,631.8l0.8,0l0,-0.8l-0.8,0l0,0.8Z" class="g1_2" />
<path d="M236,631.8l119.5,0l0,-0.8L236,631l0,0.8Z" class="g1_2" />
<path d="M355.5,631l0.7,0l0,-17.6l-0.7,0l0,17.6Z" class="g1_2" />
<path d="M355.5,631.8l0.7,0l0,-0.8l-0.7,0l0,0.8Z" class="g1_2" />
<path d="M356.2,631.8l342.7,0l0,-0.8l-342.7,0l0,0.8Z" class="g1_2" />
<path d="M698.9,631l0.7,0l0,-17.6l-0.7,0l0,17.6Z" class="g1_2" />
<path d="M698.9,631.8l0.7,0l0,-0.8l-0.7,0l0,0.8Z" class="g1_2" />
<path d="M698.9,631.8l0.7,0l0,-0.8l-0.7,0l0,0.8Z" class="g1_2" />
<path d="M268.6,702.7l0.7,0l0,-0.7l-0.7,0l0,0.7Z" class="g1_2" />
<path d="M268.6,702.7l0.7,0l0,-0.7l-0.7,0l0,0.7Z" class="g1_2" />
<path d="M269.3,702.7l126,0l0,-0.7l-126,0l0,0.7Z" class="g1_2" />
<path d="M395.3,702.7l0.7,0l0,-0.7l-0.7,0l0,0.7Z" class="g1_2" />
<path d="M396,702.7l269.7,0l0,-0.7L396,702l0,0.7Z" class="g1_2" />
<path d="M665.7,702.7l0.7,0l0,-0.7l-0.7,0l0,0.7Z" class="g1_2" />
<path d="M665.7,702.7l0.7,0l0,-0.7l-0.7,0l0,0.7Z" class="g1_2" />
<path d="M268.6,720.3l0.7,0l0,-17.6l-0.7,0l0,17.6Z" class="g1_2" />
<path d="M395.3,720.3l0.7,0l0,-17.6l-0.7,0l0,17.6Z" class="g1_2" />
<path d="M665.7,720.3l0.7,0l0,-17.6l-0.7,0l0,17.6Z" class="g1_2" />
<path d="M268.6,721l0.7,0l0,-0.7l-0.7,0l0,0.7Z" class="g1_2" />
<path d="M269.3,721l126,0l0,-0.7l-126,0l0,0.7Z" class="g1_2" />
<path d="M395.3,721l0.7,0l0,-0.7l-0.7,0l0,0.7Z" class="g1_2" />
<path d="M396,721l269.7,0l0,-0.7l-269.7,0l0,0.7Z" class="g1_2" />
<path d="M665.7,721l0.7,0l0,-0.7l-0.7,0l0,0.7Z" class="g1_2" />
<path d="M268.6,738.5l0.7,0l0,-17.5l-0.7,0l0,17.5Z" class="g1_2" />
<path d="M395.3,738.5l0.7,0L396,721l-0.7,0l0,17.5Z" class="g1_2" />
<path d="M665.7,738.5l0.7,0l0,-17.5l-0.7,0l0,17.5Z" class="g1_2" />
<path d="M268.6,739.2l0.7,0l0,-0.7l-0.7,0l0,0.7Z" class="g1_2" />
<path d="M269.3,739.2l126,0l0,-0.7l-126,0l0,0.7Z" class="g1_2" />
<path d="M395.3,739.2l0.7,0l0,-0.7l-0.7,0l0,0.7Z" class="g1_2" />
<path d="M396,739.2l269.7,0l0,-0.7l-269.7,0l0,0.7Z" class="g1_2" />
<path d="M665.7,739.2l0.7,0l0,-0.7l-0.7,0l0,0.7Z" class="g1_2" />
<path d="M268.6,756.4l0.7,0l0,-17.2l-0.7,0l0,17.2Z" class="g1_2" />
<path d="M395.3,756.4l0.7,0l0,-17.2l-0.7,0l0,17.2Z" class="g1_2" />
<path d="M665.7,756.4l0.7,0l0,-17.2l-0.7,0l0,17.2Z" class="g1_2" />
<path d="M268.6,757.2l0.7,0l0,-0.8l-0.7,0l0,0.8Z" class="g1_2" />
<path d="M269.3,757.2l126,0l0,-0.8l-126,0l0,0.8Z" class="g1_2" />
<path d="M395.3,757.2l0.7,0l0,-0.8l-0.7,0l0,0.8Z" class="g1_2" />
<path d="M396,757.2l269.7,0l0,-0.8l-269.7,0l0,0.8Z" class="g1_2" />
<path d="M665.7,757.2l0.7,0l0,-0.8l-0.7,0l0,0.8Z" class="g1_2" />
<path d="M268.6,774.6l0.7,0l0,-17.4l-0.7,0l0,17.4Z" class="g1_2" />
<path d="M395.3,774.6l0.7,0l0,-17.4l-0.7,0l0,17.4Z" class="g1_2" />
<path d="M665.7,774.6l0.7,0l0,-17.4l-0.7,0l0,17.4Z" class="g1_2" />
<path d="M268.6,775.3l0.7,0l0,-0.7l-0.7,0l0,0.7Z" class="g1_2" />
<path d="M269.3,775.3l126,0l0,-0.7l-126,0l0,0.7Z" class="g1_2" />
<path d="M395.3,775.3l0.7,0l0,-0.7l-0.7,0l0,0.7Z" class="g1_2" />
<path d="M396,775.3l269.7,0l0,-0.7l-269.7,0l0,0.7Z" class="g1_2" />
<path d="M665.7,775.3l0.7,0l0,-0.7l-0.7,0l0,0.7Z" class="g1_2" />
<path d="M268.6,792.7l0.7,0l0,-17.4l-0.7,0l0,17.4Z" class="g1_2" />
<path d="M395.3,792.7l0.7,0l0,-17.4l-0.7,0l0,17.4Z" class="g1_2" />
<path d="M665.7,792.7l0.7,0l0,-17.4l-0.7,0l0,17.4Z" class="g1_2" />
<path d="M268.6,793.5l0.7,0l0,-0.8l-0.7,0l0,0.8Z" class="g1_2" />
<path d="M269.3,793.5l126,0l0,-0.8l-126,0l0,0.8Z" class="g1_2" />
<path d="M395.3,793.5l0.7,0l0,-0.8l-0.7,0l0,0.8Z" class="g1_2" />
<path d="M396,793.5l269.7,0l0,-0.8l-269.7,0l0,0.8Z" class="g1_2" />
<path d="M665.7,793.5l0.7,0l0,-0.8l-0.7,0l0,0.8Z" class="g1_2" />
<path d="M268.6,810.7l0.7,0l0,-17.2l-0.7,0l0,17.2Z" class="g1_2" />
<path d="M395.3,810.7l0.7,0l0,-17.2l-0.7,0l0,17.2Z" class="g1_2" />
<path d="M665.7,810.7l0.7,0l0,-17.2l-0.7,0l0,17.2Z" class="g1_2" />
<path d="M268.6,811.4l0.7,0l0,-0.7l-0.7,0l0,0.7Z" class="g1_2" />
<path d="M269.3,811.4l126,0l0,-0.7l-126,0l0,0.7Z" class="g1_2" />
<path d="M395.3,811.4l0.7,0l0,-0.7l-0.7,0l0,0.7Z" class="g1_2" />
<path d="M396,811.4l269.7,0l0,-0.7l-269.7,0l0,0.7Z" class="g1_2" />
<path d="M665.7,811.4l0.7,0l0,-0.7l-0.7,0l0,0.7Z" class="g1_2" />
<path d="M268.6,830.5l0.7,0l0,-19.1l-0.7,0l0,19.1Z" class="g1_2" />
<path d="M395.3,830.5l0.7,0l0,-19.1l-0.7,0l0,19.1Z" class="g1_2" />
<path d="M665.7,830.5l0.7,0l0,-19.1l-0.7,0l0,19.1Z" class="g1_2" />
<path d="M268.6,831.2l0.7,0l0,-0.7l-0.7,0l0,0.7Z" class="g1_2" />
<path d="M269.3,831.2l126,0l0,-0.7l-126,0l0,0.7Z" class="g1_2" />
<path d="M395.3,831.2l0.7,0l0,-0.7l-0.7,0l0,0.7Z" class="g1_2" />
<path d="M396,831.2l269.7,0l0,-0.7l-269.7,0l0,0.7Z" class="g1_2" />
<path d="M665.7,831.2l0.7,0l0,-0.7l-0.7,0l0,0.7Z" class="g1_2" />
<path d="M268.6,848.8l0.7,0l0,-17.6l-0.7,0l0,17.6Z" class="g1_2" />
<path d="M395.3,848.8l0.7,0l0,-17.6l-0.7,0l0,17.6Z" class="g1_2" />
<path d="M665.7,848.8l0.7,0l0,-17.6l-0.7,0l0,17.6Z" class="g1_2" />
<path d="M268.6,849.6l0.7,0l0,-0.8l-0.7,0l0,0.8Z" class="g1_2" />
<path d="M269.3,849.6l126,0l0,-0.8l-126,0l0,0.8Z" class="g1_2" />
<path d="M395.3,849.6l0.7,0l0,-0.8l-0.7,0l0,0.8Z" class="g1_2" />
<path d="M396,849.6l269.7,0l0,-0.8l-269.7,0l0,0.8Z" class="g1_2" />
<path d="M665.7,849.6l0.7,0l0,-0.8l-0.7,0l0,0.8Z" class="g1_2" />
<path d="M268.6,868.5l0.7,0l0,-18.9l-0.7,0l0,18.9Z" class="g1_2" />
<path d="M395.3,868.5l0.7,0l0,-18.9l-0.7,0l0,18.9Z" class="g1_2" />
<path d="M665.7,868.5l0.7,0l0,-18.9l-0.7,0l0,18.9Z" class="g1_2" />
<path d="M268.6,869.2l0.7,0l0,-0.7l-0.7,0l0,0.7Z" class="g1_2" />
<path d="M269.3,869.2l126,0l0,-0.7l-126,0l0,0.7Z" class="g1_2" />
<path d="M395.3,869.2l0.7,0l0,-0.7l-0.7,0l0,0.7Z" class="g1_2" />
<path d="M396,869.2l269.7,0l0,-0.7l-269.7,0l0,0.7Z" class="g1_2" />
<path d="M665.7,869.2l0.7,0l0,-0.7l-0.7,0l0,0.7Z" class="g1_2" />
<path d="M268.6,888.1l0.7,0l0,-18.9l-0.7,0l0,18.9Z" class="g1_2" />
<path d="M395.3,888.1l0.7,0l0,-18.9l-0.7,0l0,18.9Z" class="g1_2" />
<path d="M665.7,888.1l0.7,0l0,-18.9l-0.7,0l0,18.9Z" class="g1_2" />
<path d="M268.6,888.8l0.7,0l0,-0.7l-0.7,0l0,0.7Z" class="g1_2" />
<path d="M269.3,888.8l126,0l0,-0.7l-126,0l0,0.7Z" class="g1_2" />
<path d="M395.3,888.8l0.7,0l0,-0.7l-0.7,0l0,0.7Z" class="g1_2" />
<path d="M396,888.8l269.7,0l0,-0.7l-269.7,0l0,0.7Z" class="g1_2" />
<path d="M665.7,888.8l0.7,0l0,-0.7l-0.7,0l0,0.7Z" class="g1_2" />
<path d="M268.6,906.4l0.7,0l0,-17.6l-0.7,0l0,17.6Z" class="g1_2" />
<path d="M395.3,906.4l0.7,0l0,-17.6l-0.7,0l0,17.6Z" class="g1_2" />
<path d="M665.7,906.4l0.7,0l0,-17.6l-0.7,0l0,17.6Z" class="g1_2" />
<path d="M268.6,907.1l0.7,0l0,-0.7l-0.7,0l0,0.7Z" class="g1_2" />
<path d="M269.3,907.1l126,0l0,-0.7l-126,0l0,0.7Z" class="g1_2" />
<path d="M395.3,907.1l0.7,0l0,-0.7l-0.7,0l0,0.7Z" class="g1_2" />
<path d="M396,907.1l269.7,0l0,-0.7l-269.7,0l0,0.7Z" class="g1_2" />
<path d="M665.7,907.1l0.7,0l0,-0.7l-0.7,0l0,0.7Z" class="g1_2" />
<path d="M268.6,924.7l0.7,0l0,-17.6l-0.7,0l0,17.6Z" class="g1_2" />
<path d="M395.3,924.7l0.7,0l0,-17.6l-0.7,0l0,17.6Z" class="g1_2" />
<path d="M665.7,924.7l0.7,0l0,-17.6l-0.7,0l0,17.6Z" class="g1_2" />
<path d="M268.6,925.5l0.7,0l0,-0.8l-0.7,0l0,0.8Z" class="g1_2" />
<path d="M269.3,925.5l126,0l0,-0.8l-126,0l0,0.8Z" class="g1_2" />
<path d="M395.3,925.5l0.7,0l0,-0.8l-0.7,0l0,0.8Z" class="g1_2" />
<path d="M396,925.5l269.7,0l0,-0.8l-269.7,0l0,0.8Z" class="g1_2" />
<path d="M665.7,925.5l0.7,0l0,-0.8l-0.7,0l0,0.8Z" class="g1_2" />
<path d="M268.6,944.5l0.7,0l0,-19l-0.7,0l0,19Z" class="g1_2" />
<path d="M395.3,944.5l0.7,0l0,-19l-0.7,0l0,19Z" class="g1_2" />
<path d="M665.7,944.5l0.7,0l0,-19l-0.7,0l0,19Z" class="g1_2" />
<path d="M268.6,945.3l0.7,0l0,-0.8l-0.7,0l0,0.8Z" class="g1_2" />
<path d="M269.3,945.3l126,0l0,-0.8l-126,0l0,0.8Z" class="g1_2" />
<path d="M395.3,945.3l0.7,0l0,-0.8l-0.7,0l0,0.8Z" class="g1_2" />
<path d="M396,945.3l269.7,0l0,-0.8l-269.7,0l0,0.8Z" class="g1_2" />
<path d="M665.7,945.3l0.7,0l0,-0.8l-0.7,0l0,0.8Z" class="g1_2" />
<path d="M268.6,964.2l0.7,0l0,-18.9l-0.7,0l0,18.9Z" class="g1_2" />
<path d="M395.3,964.2l0.7,0l0,-18.9l-0.7,0l0,18.9Z" class="g1_2" />
<path d="M665.7,964.2l0.7,0l0,-18.9l-0.7,0l0,18.9Z" class="g1_2" />
<path d="M268.6,964.9l0.7,0l0,-0.7l-0.7,0l0,0.7Z" class="g1_2" />
<path d="M269.3,964.9l126,0l0,-0.7l-126,0l0,0.7Z" class="g1_2" />
<path d="M395.3,964.9l0.7,0l0,-0.7l-0.7,0l0,0.7Z" class="g1_2" />
<path d="M396,964.9l269.7,0l0,-0.7l-269.7,0l0,0.7Z" class="g1_2" />
<path d="M665.7,964.9l0.7,0l0,-0.7l-0.7,0l0,0.7Z" class="g1_2" />
<path d="M268.6,983.8l0.7,0l0,-18.9l-0.7,0l0,18.9Z" class="g1_2" />
<path d="M395.3,983.8l0.7,0l0,-18.9l-0.7,0l0,18.9Z" class="g1_2" />
<path d="M665.7,983.8l0.7,0l0,-18.9l-0.7,0l0,18.9Z" class="g1_2" />
<path d="M268.6,984.5l0.7,0l0,-0.7l-0.7,0l0,0.7Z" class="g1_2" />
<path d="M269.3,984.5l126,0l0,-0.7l-126,0l0,0.7Z" class="g1_2" />
<path d="M395.3,984.5l0.7,0l0,-0.7l-0.7,0l0,0.7Z" class="g1_2" />
<path d="M396,984.5l269.7,0l0,-0.7l-269.7,0l0,0.7Z" class="g1_2" />
<path d="M665.7,984.5l0.7,0l0,-0.7l-0.7,0l0,0.7Z" class="g1_2" />
<path d="M268.6,1003.6l0.7,0l0,-19.1l-0.7,0l0,19.1Z" class="g1_2" />
<path d="M268.6,1004.3l0.7,0l0,-0.7l-0.7,0l0,0.7Z" class="g1_2" />
<path d="M268.6,1004.3l0.7,0l0,-0.7l-0.7,0l0,0.7Z" class="g1_2" />
<path d="M269.3,1004.3l126,0l0,-0.7l-126,0l0,0.7Z" class="g1_2" />
<path d="M395.3,1003.6l0.7,0l0,-19.1l-0.7,0l0,19.1Z" class="g1_2" />
<path d="M395.3,1004.3l0.7,0l0,-0.7l-0.7,0l0,0.7Z" class="g1_2" />
<path d="M396,1004.3l269.7,0l0,-0.7l-269.7,0l0,0.7Z" class="g1_2" />
<path d="M665.7,1003.6l0.7,0l0,-19.1l-0.7,0l0,19.1Z" class="g1_2" />
<path d="M665.7,1004.3l0.7,0l0,-0.7l-0.7,0l0,0.7Z" class="g1_2" />
<path d="M665.7,1004.3l0.7,0l0,-0.7l-0.7,0l0,0.7Z" class="g1_2" />
</svg>