<?xml version="1.0" encoding="UTF-8" standalone="no"?>
<!DOCTYPE svg PUBLIC "-//W3C//DTD SVG 1.1//EN"
"http://www.w3.org/Graphics/SVG/1.1/DTD/svg11.dtd">
<svg viewBox="0 0 818 1066" version="1.1" xmlns="http://www.w3.org/2000/svg" xmlns:xlink="http://www.w3.org/1999/xlink">
<defs>
<style type="text/css"><![CDATA[
.g1_21{
fill: #9A9A9A;
}
.g2_21{
}
.g3_21{
fill: none;
stroke: #000000;
stroke-width: 0.7638889;
stroke-linecap: butt;
stroke-linejoin: miter;
stroke-miterlimit: 4;
}
]]></style>
</defs>
<path d="M79,82.1l0,-1.5l639.4,0l0,1.5Z" class="g1_21" />
<path d="M79,113.1l0,-1.5l639.4,0l0,1.5Z" class="g1_21" />
<path d="M97.3,182l0,-1.5l526.4,0l0,1.5Z" class="g2_21" />
<path d="M97.3,270.2l0,-1.5l526.4,0l0,1.5Z" class="g2_21" />
<path d="M97.3,336.6l0,-1.5l526.4,0l0,1.5Z" class="g2_21" />
<path d="M97.3,490.8l0,-1.5l526.4,0l0,1.5Z" class="g2_21" />
<path d="M97.3,557.2l0,-1.6l526.4,0l0,1.6Z" class="g2_21" />
<path d="M79,569.3l0,-1.6l511.6,0l0,1.6Z" class="g2_21" />
<path d="M79,673.8l0,-1.5l511.6,0l0,1.5Z" class="g2_21" />
<path d="M79,701.7l0,-1.6l109.7,0l0,1.6Z" class="g2_21" />
<path d="M79,733.6L79,732l109.7,0l0,1.6Z" class="g2_21" />
<path d="M370.7,936.1c6.8,0,12.3,-5.5,12.3,-12.2c0,-6.8,-5.5,-12.2,-12.3,-12.2c-6.7,0,-12.2,5.4,-12.2,12.2c0,6.7,5.5,12.2,12.2,12.2ZM386.4,916c14.9,-10.5,30.4,-10.3,43.2,1.7" class="g3_21" />
<path d="M392.3,916.8l-3,-2.4l-0.5,-3.7l-5.8,7.1l9.3,-1Z" class="g2_21" />
<path d="M355.2,931.7c-33.4,22.8,-82.3,22.8,-116.6,-1.6" class="g3_21" />
<path d="M349.3,930.9l3,2.4l0.5,3.7l5.8,-7.1l-9.3,1Z" class="g2_21" />
<path d="M297.3,936.1c6.8,0,12.3,-5.5,12.3,-12.2c0,-6.8,-5.5,-12.2,-12.3,-12.2c-6.7,0,-12.2,5.4,-12.2,12.2c0,6.8,5.5,12.2,12.2,12.2ZM313,916c14.9,-10.5,33,-10.3,45.8,1.7" class="g3_21" />
<path d="M318.9,916.8l-3,-2.4l-0.5,-3.7l-5.8,7.1l9.3,-1Z" class="g2_21" />
<path d="M241.7,915.9c14.9,-10.4,31,-10.2,43.7,1.8" class="g3_21" />
<path d="M247.6,916.7l-3,-2.4l-0.5,-3.7l-5.8,7.1l9.3,-1Z" class="g2_21" />
<path d="M517.5,936.1c-6.8,0,-12.2,-5.5,-12.2,-12.2c0,-6.8,5.4,-12.2,12.2,-12.2c6.7,0,12.2,5.4,12.2,12.2c0,6.7,-5.5,12.2,-12.2,12.2ZM501.8,916c-14.9,-10.5,-30.6,-10.6,-43.4,1.4" class="g3_21" />
<path d="M495.9,916.8l3,-2.4l0.6,-3.7l5.8,7.1l-9.4,-1Z" class="g2_21" />
<path d="M573.2,915.8c-14.9,-10.4,-31,-10.1,-43.8,1.9" class="g3_21" />
<path d="M567.3,916.6l3,-2.4l0.5,-3.7l5.8,7.1l-9.3,-1Z" class="g2_21" />
<path d="M224,935.4c6.3,0,11.4,-5.2,11.4,-11.5c0,-6.3,-5.1,-11.5,-11.4,-11.5c-6.4,0,-11.5,5.2,-11.5,11.5c0,6.3,5.1,11.5,11.5,11.5Zm0,3c8,0,14.5,-6.5,14.5,-14.5c0,-8,-6.5,-14.5,-14.5,-14.5c-8.1,0,-14.6,6.5,-14.6,14.5c0,8,6.5,14.5,14.6,14.5Zm366.9,-3.1c6.3,0,11.4,-5.1,11.4,-11.4c0,-6.3,-5.1,-11.5,-11.4,-11.5c-6.4,0,-11.5,5.2,-11.5,11.5c0,6.3,5.1,11.4,11.5,11.4Zm0,3.1c8,0,14.5,-6.5,14.5,-14.5c0,-8,-6.5,-14.5,-14.5,-14.5c-8,0,-14.5,6.5,-14.5,14.5c0,8,6.5,14.5,14.5,14.5ZM444.1,935.3c6.3,0,11.5,-5.1,11.5,-11.4c0,-6.3,-5.2,-11.5,-11.5,-11.5c-6.3,0,-11.4,5.2,-11.4,11.5c0,6.3,5.1,11.4,11.4,11.4Zm0,3.1c8,0,14.5,-6.5,14.5,-14.5c0,-8,-6.5,-14.5,-14.5,-14.5c-8,0,-14.5,6.5,-14.5,14.5c0,8,6.5,14.5,14.5,14.5ZM533,931.8c14.9,10.5,30.6,10.6,43.3,-1.5" class="g3_21" />
<path d="M538.9,931l-3,2.4l-0.5,3.7L529.6,930l9.3,1Z" class="g2_21" />
<path d="M432.2,902.2l3.8,0.2l2.9,-2.4l-0.4,9.1l-6.3,-6.9Z" class="g2_21" />
<path d="M425.7,875.1l11.5,30.6" class="g3_21" />
<path d="M79,982.2l0,-1.5l639.4,0l0,1.5Z" class="g1_21" />
<path d="M79,1009.7l0,-1.5l639.4,0l0,1.5Z" class="g1_21" />
</svg>