<?xml version="1.0" encoding="UTF-8" standalone="no"?>
<!DOCTYPE svg PUBLIC "-//W3C//DTD SVG 1.1//EN"
"http://www.w3.org/Graphics/SVG/1.1/DTD/svg11.dtd">
<svg viewBox="0 0 818 1066" version="1.1" xmlns="http://www.w3.org/2000/svg" xmlns:xlink="http://www.w3.org/1999/xlink">
<defs>
<style type="text/css"><![CDATA[
.g1_27{
fill: #9A9A9A;
}
.g2_27{
}
.g3_27{
fill: none;
stroke: #000000;
stroke-width: 0.7638889;
stroke-linecap: butt;
stroke-linejoin: miter;
stroke-miterlimit: 4;
}
]]></style>
</defs>
<path d="M79,82.1l0,-1.5l639.4,0l0,1.5Z" class="g1_27" />
<path d="M79,113.1l0,-1.5l639.4,0l0,1.5Z" class="g1_27" />
<path d="M624.1,331.1l0,-1.5l64.6,0l0,1.5Z" class="g2_27" />
<path d="M624.1,354l0,-22.9l1.5,0l0,22.9Z" class="g2_27" />
<path d="M688.1,354l0,-22.9l1.5,0l0,22.9Z" class="g2_27" />
<path d="M624.1,354.6l0,-1.6l64.6,0l0,1.6Z" class="g2_27" />
<path d="M207,356.8l0,-1.6l43.8,0l0,1.6Z" class="g2_27" />
<path d="M207,379.5l0,-22.9l1.5,0l0,22.9Z" class="g2_27" />
<path d="M250.1,379.5l0,-22.9l1.5,0l0,22.9Z" class="g2_27" />
<path d="M207,380.1l0,-1.6l43.8,0l0,1.6Z" class="g2_27" />
<path d="M521.8,356.8l0,-1.6l89.7,0l0,1.6Z" class="g2_27" />
<path d="M521.8,379.5l0,-22.9l1.5,0l0,22.9Z" class="g2_27" />
<path d="M610.7,379.5l0,-22.9l1.6,0l0,22.9Z" class="g2_27" />
<path d="M521.8,380.1l0,-1.6l89.7,0l0,1.6Z" class="g2_27" />
<path d="M645.6,356.8l0,-1.6l68.7,0l0,1.6Z" class="g2_27" />
<path d="M645.6,379.5l0,-22.9l1.5,0l0,22.9Z" class="g2_27" />
<path d="M713.6,379.5l0,-22.9l1.5,0l0,22.9Z" class="g2_27" />
<path d="M645.6,380.1l0,-1.6l68.7,0l0,1.6Z" class="g2_27" />
<path d="M289.3,466.2l0,-1.5l89.7,0l0,1.5Z" class="g2_27" />
<path d="M289.3,489.1l0,-22.9l1.5,0l0,22.9Z" class="g2_27" />
<path d="M378.2,489.1l0,-22.9l1.6,0l0,22.9Z" class="g2_27" />
<path d="M289.3,489.7l0,-1.5l89.7,0l0,1.5Z" class="g2_27" />
<path d="M413.1,466.2l0,-1.5l68.7,0l0,1.5Z" class="g2_27" />
<path d="M413.1,489.1l0,-22.9l1.5,0l0,22.9Z" class="g2_27" />
<path d="M481.1,489.1l0,-22.9l1.5,0l0,22.9Z" class="g2_27" />
<path d="M413.1,489.7l0,-1.5l68.7,0l0,1.5Z" class="g2_27" />
<path d="M226.9,601.5c6.7,0,12.2,-4.9,12.2,-12.3c0,-6.7,-5.5,-12.2,-12.2,-12.2c-6.8,0,-12.3,5.5,-12.3,12.2c0,6.8,5.5,12.3,12.3,12.3Z" class="g3_27" />
<path d="M373.6,570.9c6.7,0,12.2,-5.5,12.2,-12.2c0,-6.8,-5.5,-12.2,-12.2,-12.2c-6.8,0,-12.3,5.4,-12.3,12.2c0,6.7,5.5,12.2,12.3,12.2Z" class="g3_27" />
<path d="M270.4,613.2l2.9,-2.7l0.1,-4l6.3,6.7l-9.3,0Z" class="g2_27" />
<path d="M275.2,611.3L239.3,595.1" class="g3_27" />
<path d="M294.1,570.1c6.3,0,11.5,-5.1,11.5,-11.4c0,-6.3,-5.2,-11.5,-11.5,-11.5c-6.3,0,-11.5,5.2,-11.5,11.5c0,6.3,5.2,11.4,11.5,11.4Zm0,3.1c8,0,14.5,-6.5,14.5,-14.5c0,-8,-6.5,-14.5,-14.5,-14.5c-8,0,-14.5,6.5,-14.5,14.5c0,8,6.5,14.5,14.5,14.5Zm18,-6.6c15.4,10.6,33.7,11.8,49.2,-1.8" class="g3_27" />
<path d="M318,565.8l-3.1,2.4l-0.5,3.7l-5.8,-7.1l9.4,1Z" class="g2_27" />
<path d="M373.6,632c6.7,0,12.2,-5.5,12.2,-12.2c0,-6.8,-5.5,-12.2,-12.2,-12.2c-6.8,0,-12.3,5.4,-12.3,12.2c0,6.7,5.5,12.2,12.3,12.2Z" class="g3_27" />
<path d="M294.1,631.3c6.3,0,11.5,-5.2,11.5,-11.5c0,-6.3,-5.2,-11.5,-11.5,-11.5c-6.3,0,-11.5,5.2,-11.5,11.5c0,6.3,5.2,11.5,11.5,11.5Zm0,3c8,0,14.5,-6.5,14.5,-14.5c0,-8,-6.5,-14.5,-14.5,-14.5c-8,0,-14.5,6.5,-14.5,14.5c0,8,6.5,14.5,14.5,14.5Z" class="g3_27" />
<path d="M270.3,565.5l2.9,2.6l0.3,4l6.1,-6.8l-9.3,0.2Z" class="g2_27" />
<path d="M275.2,567.3l-35.7,16.4m72.6,44c15.4,10.6,33.7,11.8,49.2,-1.8" class="g3_27" />
<path d="M318,626.9l-3.1,2.4l-0.5,3.7l-5.8,-7.1l9.4,1Z" class="g2_27" />
<path d="M357.9,550.8C342.4,540.1,324.1,539,308.6,552.6" class="g3_27" />
<path d="M352,551.6l3,-2.4l0.5,-3.7l5.8,7.1l-9.3,-1Z" class="g2_27" />
<path d="M357.9,611.9c-15.5,-10.6,-33.8,-11.8,-49.3,1.8" class="g3_27" />
<path d="M352,612.7l3,-2.4l0.5,-3.7l5.8,7.1l-9.3,-1Z" class="g2_27" />
<path d="M79,786.7l0,-1.5l109.7,0l0,1.5Z" class="g2_27" />
<path d="M79,818.8l0,-1.5l109.7,0l0,1.5Z" class="g2_27" />
<path d="M79,982.2l0,-1.5l639.4,0l0,1.5Z" class="g1_27" />
<path d="M79,1009.7l0,-1.5l639.4,0l0,1.5Z" class="g1_27" />
</svg>