<?xml version="1.0" encoding="UTF-8" standalone="no"?>
<!DOCTYPE svg PUBLIC "-//W3C//DTD SVG 1.1//EN"
"http://www.w3.org/Graphics/SVG/1.1/DTD/svg11.dtd">
<svg viewBox="0 0 818 1066" version="1.1" xmlns="http://www.w3.org/2000/svg" xmlns:xlink="http://www.w3.org/1999/xlink">
<defs>
<style type="text/css"><![CDATA[
.g1_43{
fill: #9A9A9A;
}
.g2_43{
}
]]></style>
</defs>
<path d="M79,82.1l0,-1.5l639.4,0l0,1.5Z" class="g1_43" />
<path d="M79,113.1l0,-1.5l639.4,0l0,1.5Z" class="g1_43" />
<path d="M225.1,238.5l0,-1.5l61.8,0l0,1.5Z" class="g2_43" />
<path d="M225.1,259l0,-20.7l1.6,0l0,20.7Z" class="g2_43" />
<path d="M286.4,259l0,-20.7l1.5,0l0,20.7Z" class="g2_43" />
<path d="M225.1,259.6l0,-1.5l61.8,0l0,1.5Z" class="g2_43" />
<path d="M225.1,444.2l0,-1.5l88.8,0l0,1.5Z" class="g2_43" />
<path d="M225.1,563l0,-118.8l1.6,0l0,118.8Z" class="g2_43" />
<path d="M313.3,563l0,-118.8l1.6,0l0,118.8Z" class="g2_43" />
<path d="M225.1,563.6l0,-1.5l88.8,0l0,1.5Z" class="g2_43" />
<path d="M225.1,724.9l0,-1.5l79.3,0l0,1.5Z" class="g2_43" />
<path d="M225.1,756.1l0,-31.2l1.6,0l0,31.2Z" class="g2_43" />
<path d="M303.6,756.1l0,-31.2l1.5,0l0,31.2Z" class="g2_43" />
<path d="M225.1,756.7l0,-1.6l79.3,0l0,1.6Z" class="g2_43" />
<path d="M79,982.2l0,-1.5l639.4,0l0,1.5Z" class="g1_43" />
<path d="M79,1009.7l0,-1.5l639.4,0l0,1.5Z" class="g1_43" />
</svg>