<?xml version="1.0" encoding="UTF-8" standalone="no"?>
<!DOCTYPE svg PUBLIC "-//W3C//DTD SVG 1.1//EN"
"http://www.w3.org/Graphics/SVG/1.1/DTD/svg11.dtd">
<svg viewBox="0 0 818 1066" version="1.1" xmlns="http://www.w3.org/2000/svg" xmlns:xlink="http://www.w3.org/1999/xlink">
<defs>
<style type="text/css"><![CDATA[
.g1_26{
fill: #9A9A9A;
}
.g2_26{
}
.g3_26{
fill: none;
stroke: #000000;
stroke-width: 0.7638889;
stroke-linecap: butt;
stroke-linejoin: miter;
stroke-miterlimit: 4;
}
]]></style>
</defs>
<path d="M79,82.1l0,-1.5l639.4,0l0,1.5Z" class="g1_26" />
<path d="M79,113.1l0,-1.5l639.4,0l0,1.5Z" class="g1_26" />
<path d="M354.4,308.4l1.5,-3.6l-1.3,-3.5l8.5,3.5l-8.7,3.6Z" class="g2_26" />
<path d="M360,304.8l-33.4,0" class="g3_26" />
<path d="M222.5,186.8l3.4,2l1,3.5l4.7,-7.8l-9.1,2.3Z" class="g2_26" />
<path d="M229.1,186.2L145.5,256" class="g3_26" />
<path d="M224.2,242.4l2.3,3.2l-0.6,4l7.4,-5.5l-9.1,-1.7Z" class="g2_26" />
<path d="M231.5,244.6l-73.1,17.7M496.6,223.4C500.5,183.7,478.1,159,404.7,159.2c-54.8,0.2,-62.6,-2.4,-98.4,9.2" class="g3_26" />
<path d="M492.7,218.6l3.6,1.3l3.5,-1.5l-3,8.6l-4.1,-8.4Z" class="g2_26" />
<path d="M499.8,265.9c10.6,39.5,62.1,-10,25.2,-21.4" class="g3_26" />
<path d="M504.8,269.6l-3.9,-0.3l-2.9,2.3l0.7,-9.2l6.1,7.2Z" class="g2_26" />
<path d="M129.6,283c17,0,30.8,-5.3,30.8,-13.7c0,-8.4,-13.8,-13.7,-30.8,-13.7c-17.1,0,-30.9,5.3,-30.9,13.7c0,8.4,13.8,13.7,30.9,13.7Z" class="g3_26" />
<path d="M270.2,191.5c20.4,0,36.9,-5.4,36.9,-13.9c0,-8.5,-16.5,-13.9,-36.9,-13.9c-20.4,0,-36.9,5.4,-36.9,13.9c0,8.5,16.5,13.9,36.9,13.9Zm0,2.9c22,0,39.9,-6.7,39.9,-16.8c0,-10.2,-17.9,-16.9,-39.9,-16.9c-22,0,-39.9,6.7,-39.9,16.9c0,10.1,17.9,16.8,39.9,16.8Z" class="g3_26" />
<path d="M270.2,258.7c18.2,0,32.8,-5.3,32.8,-13.8c0,-8.4,-14.6,-13.7,-32.8,-13.7c-18.1,0,-32.8,5.3,-32.8,13.7c0,8.5,14.7,13.8,32.8,13.8Zm0,2.9C290,261.6,306,255,306,244.9c0,-10,-16,-16.7,-35.8,-16.7c-19.7,0,-35.8,6.7,-35.8,16.7c0,10.1,16.1,16.7,35.8,16.7Zm130.7,58.5c18.1,0,32.8,-5.3,32.8,-13.8c0,-8.4,-14.7,-13.7,-32.8,-13.7c-18.1,0,-32.8,5.3,-32.8,13.7c0,8.5,14.7,13.8,32.8,13.8Zm0,2.9c19.7,0,35.8,-6.6,35.8,-16.7c0,-10,-16.1,-16.7,-35.8,-16.7c-19.8,0,-35.8,6.7,-35.8,16.7c0,10.1,16,16.7,35.8,16.7Z" class="g3_26" />
<path d="M270.2,320c35.5,0,50.8,-7.2,50.8,-13.8c0,-8.5,-22.7,-13.8,-50.8,-13.8c-28,0,-50.7,5.3,-50.7,13.8c0,8.5,22.7,13.8,50.7,13.8Zm0,3.2c30.9,0,55.3,-6.8,55.3,-17c0,-10.2,-24.4,-17,-55.3,-17c-30.8,0,-55.2,6.8,-55.2,17c0,10.2,24.4,17,55.2,17Z" class="g3_26" />
<path d="M501.1,261.2c13.2,0,23.9,-6.6,23.9,-16.7c0,-10,-10.7,-16.2,-23.9,-16.2c-13.3,0,-24,6.2,-24,16.2c0,10.1,10.7,16.7,24,16.7Zm0,-2.8c10.9,0,19.8,-5.2,19.8,-13.5c0,-8.4,-8.9,-13.6,-19.8,-13.6c-11,0,-19.9,5.2,-19.9,13.6c0,8.3,8.9,13.5,19.9,13.5Z" class="g3_26" />
<path d="M270.2,383.5c10.1,0,18.2,-6.6,18.2,-16.6c0,-10.1,-8.1,-16.7,-18.2,-16.7c-10.1,0,-18.2,6.6,-18.2,16.7c0,10,8.1,16.6,18.2,16.6Zm0,-2.8c8.3,0,15.1,-5.2,15.1,-13.5c0,-8.4,-6.8,-13.6,-15.1,-13.6c-8.3,0,-15.1,5.2,-15.1,13.6c0,8.3,6.8,13.5,15.1,13.5Z" class="g3_26" />
<path d="M242.6,362.8l2.4,-3.1l-0.4,-3.8l7.3,5.5l-9.3,1.4Z" class="g2_26" />
<path d="M209.4,293.2l-0.2,3.8l-3.1,2.7l9.2,0.6l-5.9,-7.1Z" class="g2_26" />
<path d="M213.6,299.4L160.7,272.6m-18.3,10.6c4.3,9.3,36.5,52.3,105.2,77.4" class="g3_26" />
<path d="M468.2,248.4l1.5,-3.6l-1.3,-3.5l8.5,3.6l-8.7,3.5Z" class="g2_26" />
<path d="M473.1,244.9l-165.9,0" class="g3_26" />
<path d="M367.1,188.3L369,185l-0.8,-3.7l8,4.7l-9.1,2.3Z" class="g2_26" />
<path d="M373.3,185.6l-62,-8.3" class="g3_26" />
<path d="M471.3,232.3l3.2,-2.1l0.9,-3.6l5.1,7.6l-9.2,-1.9Z" class="g2_26" />
<path d="M478.1,232.6L429.4,200.1" class="g3_26" />
<path d="M408.9,327.5c13.4,50.1,63.6,-9.7,27.8,-21.2" class="g3_26" />
<path d="M413.9,331.1L410,330.8l-2.9,2.3l0.7,-9.1l6.1,7.1Z" class="g2_26" />
<path d="M404.7,203.7c13.6,0,24.7,-5.4,24.7,-13.9c0,-8.5,-11.1,-13.8,-24.7,-13.8c-13.6,0,-24.6,5.3,-24.6,13.8c0,8.5,11,13.9,24.6,13.9Zm0,2.9c15.5,0,28,-6.6,28,-16.8c0,-10.1,-12.5,-16.8,-28,-16.8c-15.4,0,-27.9,6.7,-27.9,16.8c0,10.2,12.5,16.8,27.9,16.8Z" class="g3_26" />
<path d="M79,418.6L79,417l511.6,0l0,1.6Z" class="g2_26" />
<path d="M79,446.4l0,-1.5l511.6,0l0,1.5Z" class="g2_26" />
<path d="M79,982.2l0,-1.5l639.4,0l0,1.5Z" class="g1_26" />
<path d="M79,1009.7l0,-1.5l639.4,0l0,1.5Z" class="g1_26" />
</svg>