<?xml version="1.0" encoding="UTF-8" standalone="no"?>
<!DOCTYPE svg PUBLIC "-//W3C//DTD SVG 1.1//EN"
"http://www.w3.org/Graphics/SVG/1.1/DTD/svg11.dtd">
<svg viewBox="0 0 818 1066" version="1.1" xmlns="http://www.w3.org/2000/svg" xmlns:xlink="http://www.w3.org/1999/xlink">
<defs>
<style type="text/css"><![CDATA[
.g1_18{
fill: #9A9A9A;
}
.g2_18{
fill: none;
stroke: #000000;
stroke-width: 0.6111111;
stroke-linecap: butt;
stroke-linejoin: miter;
stroke-miterlimit: 4;
}
.g3_18{
}
]]></style>
</defs>
<path d="M79,82.1l0,-1.5l639.4,0l0,1.5Z" class="g1_18" />
<path d="M79,113.1l0,-1.5l639.4,0l0,1.5Z" class="g1_18" />
<path d="M132.4,205.1c-8.2,-8.7,-9.5,-7.8,-20.7,-7.8" class="g2_18" />
<path d="M127.7,204.5l2.8,-1.3l1.2,-2.7l2.9,6.8l-6.9,-2.8Z" class="g3_18" />
<path d="M190.4,206.2c-13.3,-5.1,-25.3,-3.5,-36.2,1.1" class="g2_18" />
<path d="M185.8,207.5l2.1,-2.2l0,-3l5.4,5l-7.5,0.2Z" class="g3_18" />
<path d="M144.4,221.9c5.4,0,9.8,-4.4,9.8,-9.8c0,-5.4,-4.4,-9.7,-9.8,-9.7c-5.4,0,-9.8,4.3,-9.8,9.7c0,5.4,4.4,9.8,9.8,9.8Z" class="g2_18" />
<path d="M266.7,221.3c5,0,9.1,-4.1,9.1,-9.2c0,-5,-4.1,-9.1,-9.1,-9.1c-5.1,0,-9.2,4.1,-9.2,9.1c0,5.1,4.1,9.2,9.2,9.2Zm0,2.5c6.4,0,11.6,-5.2,11.6,-11.7c0,-6.4,-5.2,-11.6,-11.6,-11.6c-6.5,0,-11.7,5.2,-11.7,11.6c0,6.5,5.2,11.7,11.7,11.7Z" class="g2_18" />
<path d="M203.1,221.9c5.4,0,9.8,-4.4,9.8,-9.8c0,-5.4,-4.4,-9.7,-9.8,-9.7c-5.4,0,-9.8,4.3,-9.8,9.7c0,5.4,4.4,9.8,9.8,9.8Z" class="g2_18" />
<path d="M252.1,206.2c-13.2,-5.1,-28.3,-3.5,-39.2,1.1" class="g2_18" />
<path d="M247.5,207.5l2.2,-2.2l0,-3l5.3,5l-7.5,0.2Z" class="g3_18" />
<path d="M452.4,194.4c24.2,29.7,36.9,0.9,2.9,-8.7" class="g2_18" />
<path d="M457.1,195.7l-3,0.7l-1.7,2.5l-1.7,-7.1l6.4,3.9Z" class="g3_18" />
<path d="M368.2,174.5c-8.2,-8.6,-9.9,-7.8,-21.1,-7.8" class="g2_18" />
<path d="M363.5,173.9l2.8,-1.2l1.2,-2.7l3,6.7l-7,-2.8Z" class="g3_18" />
<path d="M443.4,190.8c5.1,0,9.2,-4.1,9.2,-9.2c0,-5.1,-4.1,-9.2,-9.2,-9.2c-5.1,0,-9.2,4.1,-9.2,9.2c0,5.1,4.1,9.2,9.2,9.2Zm0,2.4c6.4,0,11.6,-5.2,11.6,-11.6C455,175.2,449.8,170,443.4,170c-6.4,0,-11.6,5.2,-11.6,11.6c0,6.4,5.2,11.6,11.6,11.6Z" class="g2_18" />
<path d="M379.8,191.4c5.4,0,9.8,-4.4,9.8,-9.8c0,-5.4,-4.4,-9.8,-9.8,-9.8c-5.4,0,-9.7,4.4,-9.7,9.8c0,5.4,4.3,9.8,9.7,9.8Z" class="g2_18" />
<path d="M428.9,175.6c-13,-5,-28.4,-3.3,-39.6,1.3" class="g2_18" />
<path d="M424.3,177l2.1,-2.3l0,-3l5.4,5l-7.5,0.3Z" class="g3_18" />
<path d="M458.8,179.3c34.9,-8.3,36.4,-28,27.1,-34.9c-8.2,-6,-24.8,-1.9,-33.6,28.5" class="g2_18" />
<path d="M462.1,175.7l-0.7,3l1.4,2.6l-7.1,-1.7l6.4,-3.9Z" class="g3_18" />
<path d="M569.5,196.5c-8.2,-8.6,-9.5,-7.8,-20.7,-7.8" class="g2_18" />
<path d="M564.8,195.9l2.8,-1.2l1.3,-2.7l2.9,6.7l-7,-2.8Z" class="g3_18" />
<path d="M645.1,212.8c5.1,0,9.2,-4.1,9.2,-9.2c0,-5.1,-4.1,-9.2,-9.2,-9.2c-5.1,0,-9.2,4.1,-9.2,9.2c0,5.1,4.1,9.2,9.2,9.2Zm0,2.4c6.4,0,11.6,-5.2,11.6,-11.6c0,-6.4,-5.2,-11.6,-11.6,-11.6c-6.4,0,-11.6,5.2,-11.6,11.6c0,6.4,5.2,11.6,11.6,11.6Z" class="g2_18" />
<path d="M581.5,213.4c5.4,0,9.8,-4.4,9.8,-9.8c0,-5.4,-4.4,-9.8,-9.8,-9.8c-5.4,0,-9.7,4.4,-9.7,9.8c0,5.4,4.3,9.8,9.7,9.8Z" class="g2_18" />
<path d="M630.6,197.6c-13.3,-5.1,-28.3,-3.5,-39.3,1.1" class="g2_18" />
<path d="M626,199l2.1,-2.3l0,-3l5.4,5L626,199Z" class="g3_18" />
<path d="M660.8,207.1c38.1,16,38.1,-28,-3.5,-8.4" class="g2_18" />
<path d="M665.5,205.8l-2.2,2.2l-0.1,3L658,205.8l7.5,0Z" class="g3_18" />
<path d="M120.8,328.7c-8.2,-8.6,-11,-7.6,-22.2,-7.6" class="g2_18" />
<path d="M116.1,328.1l2.8,-1.2l1.2,-2.7l2.9,6.7l-6.9,-2.8Z" class="g3_18" />
<path d="M197.5,323.5c14.5,-34,-21.3,-33.6,-9.7,1.9" class="g2_18" />
<path d="M196.5,318.5l2.2,2.2l3,0.2l-5.3,5.1l0.1,-7.5Z" class="g3_18" />
<path d="M178.4,330.9C165.1,325.8,153.9,327,143,331.5" class="g2_18" />
<path d="M173.8,332.2l2.1,-2.2l0,-3l5.4,5l-7.5,0.2Z" class="g3_18" />
<path d="M241.1,368.3c27.3,9.8,30.4,-17.7,-3.7,-8.4" class="g2_18" />
<path d="M245.8,367l-2.2,2.2l-0.1,3L238.3,367l7.5,0Z" class="g3_18" />
<path d="M225.7,374.3c5.1,0,9.2,-4.1,9.2,-9.2c0,-5,-4.1,-9.1,-9.2,-9.1c-5.1,0,-9.2,4.1,-9.2,9.1c0,5.1,4.1,9.2,9.2,9.2Zm0,2.4c6.4,0,11.6,-5.2,11.6,-11.6c0,-6.4,-5.2,-11.6,-11.6,-11.6c-6.4,0,-11.6,5.2,-11.6,11.6c0,6.4,5.2,11.6,11.6,11.6Z" class="g2_18" />
<path d="M132.8,345.6c5.4,0,9.8,-4.4,9.8,-9.8c0,-5.4,-4.4,-9.8,-9.8,-9.8c-5.4,0,-9.8,4.4,-9.8,9.8c0,5.4,4.4,9.8,9.8,9.8Z" class="g2_18" />
<path d="M255,345c5.1,0,9.2,-4.1,9.2,-9.2c0,-5.1,-4.1,-9.2,-9.2,-9.2c-5,0,-9.1,4.1,-9.1,9.2c0,5.1,4.1,9.2,9.1,9.2Zm0,2.4c6.5,0,11.7,-5.2,11.7,-11.6c0,-6.4,-5.2,-11.6,-11.7,-11.6c-6.4,0,-11.6,5.2,-11.6,11.6c0,6.4,5.2,11.6,11.6,11.6Z" class="g2_18" />
<path d="M162.1,374.9c5.5,0,9.8,-4.4,9.8,-9.8c0,-5.4,-4.3,-9.8,-9.8,-9.8c-5.4,0,-9.7,4.4,-9.7,9.8c0,5.4,4.3,9.8,9.7,9.8Z" class="g2_18" />
<path d="M191.5,345.6c5.4,0,9.8,-4.4,9.8,-9.8c0,-5.4,-4.4,-9.8,-9.8,-9.8c-5.4,0,-9.8,4.4,-9.8,9.8c0,5.4,4.4,9.8,9.8,9.8Z" class="g2_18" />
<path d="M151.9,350.6l-1.2,2.8l-3,1.3l6.8,2.8l-2.6,-6.9Z" class="g3_18" />
<path d="M152,354.9L140.5,343.4" class="g2_18" />
<path d="M240.5,329.8c-13.2,-5.1,-28.3,-3.5,-39.2,1.1" class="g2_18" />
<path d="M235.9,331.2l2.1,-2.3l0,-3l5.4,5l-7.5,0.3Z" class="g3_18" />
<path d="M261.1,321.7c13.3,-31.2,-20.1,-29.8,-9.7,1.9" class="g2_18" />
<path d="M260.1,316.7l2.2,2.3l2.9,0.2l-5.3,5l0.2,-7.5Z" class="g3_18" />
<path d="M210.4,362.9c-13,-5.9,-23.8,-6.3,-37.6,1.3" class="g2_18" />
<path d="M205.7,364l2.2,-2.1l0.2,-3l5.1,5.3L205.7,364Z" class="g3_18" />
<path d="M345.1,285.9c-5.5,-6.1,-11.4,-10.4,-18.2,-7.8" class="g2_18" />
<path d="M340.4,285.3l2.8,-1.2l1.2,-2.8l2.9,6.8l-6.9,-2.8Z" class="g3_18" />
<path d="M442.3,361.7c47.5,16,74.1,4.3,73.8,-7.2c-0.3,-10.6,-25.8,-22.7,-76.2,-6.1" class="g2_18" />
<path d="M447,360.3l-2.1,2.2l-0.1,3l-5.3,-5.1l7.5,-0.1Z" class="g3_18" />
<path d="M428.6,363.3c5.1,0,9.2,-4.1,9.2,-9.2c0,-5,-4.1,-9.1,-9.2,-9.1c-5,0,-9.1,4.1,-9.1,9.1c0,5.1,4.1,9.2,9.1,9.2Zm0,2.4c6.4,0,11.6,-5.2,11.6,-11.6c0,-6.4,-5.2,-11.6,-11.6,-11.6c-6.4,0,-11.6,5.2,-11.6,11.6c0,6.4,5.2,11.6,11.6,11.6Z" class="g2_18" />
<path d="M355.3,305.2c5.4,0,9.8,-4.3,9.8,-9.8c0,-5.4,-4.4,-9.7,-9.8,-9.7c-5.4,0,-9.8,4.3,-9.8,9.7c0,5.5,4.4,9.8,9.8,9.8Z" class="g2_18" />
<path d="M404.2,305.2c5.4,0,9.8,-4.3,9.8,-9.8c0,-5.4,-4.4,-9.7,-9.8,-9.7c-5.4,0,-9.8,4.3,-9.8,9.7c0,5.5,4.4,9.8,9.8,9.8Z" class="g2_18" />
<path d="M386.5,292.6l1.3,2.9l-1.1,3l6.6,-3.1l-6.8,-2.8Z" class="g3_18" />
<path d="M389.8,295.4l-23.6,0m93.2,12.2c30.3,44,-64,23.2,-14.3,-4.7" class="g2_18" />
<path d="M459.1,312.6l1.8,-2.5l3,-0.5L458,305.2l1.1,7.4Z" class="g3_18" />
<path d="M413,354.1c-65,-0.1,-57.3,11,-57.6,-47.9" class="g2_18" />
<path d="M408.7,356.7l1.3,-2.8l-0.9,-2.8l6.7,3.1l-7.1,2.5Z" class="g3_18" />
<path d="M453.1,305.2c5.4,0,9.7,-4.3,9.7,-9.8c0,-5.4,-4.3,-9.7,-9.7,-9.7c-5.4,0,-9.8,4.3,-9.8,9.7c0,5.5,4.4,9.8,9.8,9.8Z" class="g2_18" />
<path d="M502,304.6c5,0,9.1,-4.1,9.1,-9.2c0,-5,-4.1,-9.1,-9.1,-9.1c-5.1,0,-9.2,4.1,-9.2,9.1c0,5.1,4.1,9.2,9.2,9.2Zm0,2.5c6.4,0,11.6,-5.2,11.6,-11.7c0,-6.4,-5.2,-11.6,-11.6,-11.6c-6.5,0,-11.7,5.2,-11.7,11.6c0,6.5,5.2,11.7,11.7,11.7Z" class="g2_18" />
<path d="M435.2,292.6l1.3,2.9l-1.1,3l6.6,-3.1l-6.8,-2.8Z" class="g3_18" />
<path d="M438.4,295.4l-23.4,0" class="g2_18" />
<path d="M482.7,292.6l1.3,2.9l-1.1,3l6.7,-3.1l-6.9,-2.8Z" class="g3_18" />
<path d="M486,295.4l-22.3,0m105.8,59c-4.5,-5.2,-12.6,-10,-18.2,-7.8" class="g2_18" />
<path d="M564.8,353.8l2.8,-1.3l1.3,-2.7l2.9,6.7l-7,-2.7Z" class="g3_18" />
<path d="M579.7,373.7c5.4,0,9.8,-4.4,9.8,-9.8c0,-5.4,-4.4,-9.8,-9.8,-9.8c-5.4,0,-9.8,4.4,-9.8,9.8c0,5.4,4.4,9.8,9.8,9.8Z" class="g2_18" />
<path d="M682.4,373.1c5,0,9.1,-4.1,9.1,-9.2c0,-5.1,-4.1,-9.2,-9.1,-9.2c-5.1,0,-9.2,4.1,-9.2,9.2c0,5.1,4.1,9.2,9.2,9.2Zm0,2.4c6.4,0,11.6,-5.2,11.6,-11.6c0,-6.4,-5.2,-11.6,-11.6,-11.6c-6.4,0,-11.6,5.2,-11.6,11.6c0,6.4,5.2,11.6,11.6,11.6Z" class="g2_18" />
<path d="M662.9,361.1l1.3,2.8l-1.1,3.1l6.7,-3.1l-6.9,-2.8Z" class="g3_18" />
<path d="M666.3,363.9l-75.8,0" class="g2_18" />
<path d="M79,420.9l0,-1.5l511.6,0l0,1.5Z" class="g3_18" />
<path d="M79,507.1l0,-1.5l511.6,0l0,1.5Z" class="g3_18" />
<path d="M79,677.3l0,-1.6l109.7,0l0,1.6Z" class="g3_18" />
<path d="M79,709.2l0,-1.6l109.7,0l0,1.6Z" class="g3_18" />
<path d="M79,982.2l0,-1.5l639.4,0l0,1.5Z" class="g1_18" />
<path d="M79,1010.4l0,-1.5l639.4,0l0,1.5Z" class="g1_18" />
</svg>