<?xml version="1.0" encoding="UTF-8" standalone="no"?>
<!DOCTYPE svg PUBLIC "-//W3C//DTD SVG 1.1//EN"
"http://www.w3.org/Graphics/SVG/1.1/DTD/svg11.dtd">
<svg viewBox="0 0 818 1066" version="1.1" xmlns="http://www.w3.org/2000/svg" xmlns:xlink="http://www.w3.org/1999/xlink">
<defs>
<style type="text/css"><![CDATA[
.g1_34{
fill: #9A9A9A;
}
.g2_34{
}
.g3_34{
fill: none;
stroke: #000000;
stroke-width: 1.5277778;
stroke-linecap: butt;
stroke-linejoin: miter;
}
]]></style>
</defs>
<path d="M79,82.1l0,-1.5l639.4,0l0,1.5Z" class="g1_34" />
<path d="M79,113.1l0,-1.5l639.4,0l0,1.5Z" class="g1_34" />
<path d="M136.8,160l0,-1.5l317.3,0l0,1.5Z" class="g2_34" />
<path d="M136.4,203.3l0,-44l1.5,0l0,44Z" class="g2_34" />
<path d="M453.8,203.3l0,-44l1.5,0l0,44Z" class="g2_34" />
<path d="M136.4,247.1l0,-44l1.5,0l0,44Z" class="g2_34" />
<path d="M453.8,247.1l0,-44l1.5,0l0,44Z" class="g2_34" />
<path d="M136.4,290.9l0,-44l1.5,0l0,44Z" class="g2_34" />
<path d="M453.8,290.9l0,-44l1.5,0l0,44Z" class="g2_34" />
<path d="M136.8,291.7l0,-1.5l317.3,0l0,1.5Z" class="g2_34" />
<path d="M79,303.2l0,-1.5l511.6,0l0,1.5Z" class="g2_34" />
<path d="M79,334.8l0,-1.6l511.6,0l0,1.6Z" class="g2_34" />
<path d="M239.5,795.3l0,10" class="g3_34" />
<path d="M426.4,795.3l-44.8,18.8" class="g3_34" />
<path d="M381.6,830.3l0,10.1" class="g3_34" />
<path d="M381.6,856.6l0,10.1m48.9,-71.4l0,18.8" class="g3_34" />
<path d="M430.5,830.3l0,10.1m4.1,-45.1l44.8,18.8" class="g3_34" />
<path d="M479.4,830.3l0,10.1" class="g3_34" />
<path d="M79,982.2l0,-1.5l639.4,0l0,1.5Z" class="g1_34" />
<path d="M79,1010.4l0,-1.5l639.4,0l0,1.5Z" class="g1_34" />
</svg>