<?xml version="1.0" encoding="UTF-8" standalone="no"?>
<!DOCTYPE svg PUBLIC "-//W3C//DTD SVG 1.1//EN"
"http://www.w3.org/Graphics/SVG/1.1/DTD/svg11.dtd">
<svg viewBox="0 0 818 1066" version="1.1" xmlns="http://www.w3.org/2000/svg" xmlns:xlink="http://www.w3.org/1999/xlink">
<defs>
<style type="text/css"><![CDATA[
.g1_56{
fill: #9A9A9A;
}
.g2_56{
}
.g3_56{
fill: none;
stroke: #000000;
stroke-width: 1.5277778;
stroke-linecap: butt;
stroke-linejoin: miter;
}
]]></style>
</defs>
<path d="M79,82.1l0,-1.5l639.4,0l0,1.5Z" class="g1_56" />
<path d="M79,113.1l0,-1.5l639.4,0l0,1.5Z" class="g1_56" />
<path d="M225.1,138.2l0,-1.5l184.9,0l0,1.5Z" class="g2_56" />
<path d="M225.1,186.8l0,-48.8l1.6,0l0,48.8Z" class="g2_56" />
<path d="M409.4,186.8l0,-48.8l1.5,0l0,48.8Z" class="g2_56" />
<path d="M225.1,187.4l0,-1.6l184.9,0l0,1.6Z" class="g2_56" />
<path d="M284.9,324.8l-44.8,18.8" class="g3_56" />
<path d="M289,324.8l0,18.8" class="g3_56" />
<path d="M293,324.8l44.9,18.8" class="g3_56" />
<path d="M333.8,359.9L289,378.7" class="g3_56" />
<path d="M337.9,359.9l0,18.8" class="g3_56" />
<path d="M341.9,359.9l44.9,18.8" class="g3_56" />
<path d="M514.5,324.8l-44.9,18.8" class="g3_56" />
<path d="M465.6,359.9l-44.9,18.8" class="g3_56" />
<path d="M469.6,359.9l0,18.8" class="g3_56" />
<path d="M473.7,359.9l44.8,18.8" class="g3_56" />
<path d="M518.5,324.8l0,18.8" class="g3_56" />
<path d="M522.6,324.8l44.8,18.8" class="g3_56" />
<path d="M225.1,560.1l0,-1.5l184.9,0l0,1.5Z" class="g2_56" />
<path d="M225.1,608.7l0,-48.8l1.6,0l0,48.8Z" class="g2_56" />
<path d="M409.4,608.7l0,-48.8l1.5,0l0,48.8Z" class="g2_56" />
<path d="M225.1,609.2l0,-1.5l184.9,0l0,1.5Z" class="g2_56" />
<path d="M79,982.2l0,-1.5l639.4,0l0,1.5Z" class="g1_56" />
<path d="M79,1009.7l0,-1.5l639.4,0l0,1.5Z" class="g1_56" />
</svg>