<?xml version="1.0" encoding="UTF-8" standalone="no"?>
<!DOCTYPE svg PUBLIC "-//W3C//DTD SVG 1.1//EN"
"http://www.w3.org/Graphics/SVG/1.1/DTD/svg11.dtd">
<svg viewBox="0 0 818 1066" version="1.1" xmlns="http://www.w3.org/2000/svg" xmlns:xlink="http://www.w3.org/1999/xlink">
<defs>
<style type="text/css"><![CDATA[
.g1_28{
fill: #9A9A9A;
}
.g2_28{
}
.g3_28{
fill: none;
stroke: #000000;
stroke-width: 1.5277778;
stroke-linecap: butt;
stroke-linejoin: miter;
}
]]></style>
</defs>
<path d="M79,82.1l0,-1.5l639.4,0l0,1.5Z" class="g1_28" />
<path d="M79,113.1l0,-1.5l639.4,0l0,1.5Z" class="g1_28" />
<path d="M79,215.6l0,-1.5l511.6,0l0,1.5Z" class="g2_28" />
<path d="M79,242.5L79,241l511.6,0l0,1.5Z" class="g2_28" />
<path d="M140.8,287L96,305.8M144.9,287l0,18.8" class="g3_28" />
<path d="M148.9,287l44.8,18.8" class="g3_28" />
<path d="M189.7,322.1l-44.8,18.8m48.8,-18.8l0,18.8" class="g3_28" />
<path d="M197.8,322.1l44.8,18.8" class="g3_28" />
<path d="M387.8,287l-44.9,18.8" class="g3_28" />
<path d="M338.9,322.1L294,340.9m48.9,-18.8l0,18.8" class="g3_28" />
<path d="M347,322.1l44.8,18.8m0,-53.9l0,18.8" class="g3_28" />
<path d="M395.9,287l44.8,18.8" class="g3_28" />
<path d="M79,375.7l0,-1.6l511.6,0l0,1.6Z" class="g2_28" />
<path d="M79,407.2l0,-1.5l511.6,0l0,1.5Z" class="g2_28" />
<path d="M79,982.2l0,-1.5l639.4,0l0,1.5Z" class="g1_28" />
<path d="M79,1009.7l0,-1.5l639.4,0l0,1.5Z" class="g1_28" />
</svg>