<?xml version="1.0" encoding="UTF-8" standalone="no"?>
<!DOCTYPE svg PUBLIC "-//W3C//DTD SVG 1.1//EN"
"http://www.w3.org/Graphics/SVG/1.1/DTD/svg11.dtd">
<svg viewBox="0 0 818 1066" version="1.1" xmlns="http://www.w3.org/2000/svg" xmlns:xlink="http://www.w3.org/1999/xlink">
<defs>
<style type="text/css"><![CDATA[
.g1_37{
fill: #9A9A9A;
}
.g2_37{
}
]]></style>
</defs>
<path d="M79,82.1l0,-1.5l639.4,0l0,1.5Z" class="g1_37" />
<path d="M79,113.1l0,-1.5l639.4,0l0,1.5Z" class="g1_37" />
<path d="M141.5,160l0,-1.5l549.9,0l0,1.5Z" class="g2_37" />
<path d="M141.2,181.5l0,-22l1.5,0l0,22Z" class="g2_37" />
<path d="M690.9,181.5l0,-22l1.5,0l0,22Z" class="g2_37" />
<path d="M141.2,203.3l0,-22l1.5,0l0,22Z" class="g2_37" />
<path d="M690.9,203.3l0,-22l1.5,0l0,22Z" class="g2_37" />
<path d="M141.2,225.3l0,-22l1.5,0l0,22Z" class="g2_37" />
<path d="M690.9,225.3l0,-22l1.5,0l0,22Z" class="g2_37" />
<path d="M141.2,247.1l0,-22l1.5,0l0,22Z" class="g2_37" />
<path d="M690.9,247.1l0,-22l1.5,0l0,22Z" class="g2_37" />
<path d="M141.2,269.1l0,-22l1.5,0l0,22Z" class="g2_37" />
<path d="M690.9,269.1l0,-22l1.5,0l0,22Z" class="g2_37" />
<path d="M141.2,290.9l0,-22l1.5,0l0,22Z" class="g2_37" />
<path d="M690.9,290.9l0,-22l1.5,0l0,22Z" class="g2_37" />
<path d="M141.5,291.7l0,-1.5l549.9,0l0,1.5Z" class="g2_37" />
<path d="M79,303.2l0,-1.5l511.6,0l0,1.5Z" class="g2_37" />
<path d="M79,367.6l0,-1.5l511.6,0l0,1.5Z" class="g2_37" />
<path d="M79,982.2l0,-1.5l639.4,0l0,1.5Z" class="g1_37" />
<path d="M79,1009.7l0,-1.5l639.4,0l0,1.5Z" class="g1_37" />
</svg>